{"glyphs":{"0":{"ha":694,"x_min":0,"x_max":0,"o":"m 353 939 b 661 458 535 939 661 743 b 528 53 661 290 608 129 b 347 -19 478 4 418 -19 b 144 75 267 -19 196 14 b 33 467 79 153 33 314 b 167 867 33 629 86 789 b 353 939 218 917 276 939 m 349 903 b 167 454 229 903 167 750 b 347 17 167 165 228 17 b 528 456 467 17 528 165 b 349 903 528 746 465 903 "},"1":{"ha":694,"x_min":0,"x_max":0,"o":"m 164 21 b 296 129 269 22 293 42 l 296 758 b 254 824 296 803 283 824 b 154 793 242 824 208 814 l 154 813 l 404 939 l 415 936 l 415 103 b 547 21 417 36 440 21 l 547 0 l 164 0 "},"2":{"ha":694,"x_min":0,"x_max":0,"o":"m 583 0 l 42 0 l 42 17 l 289 279 b 469 640 406 403 469 531 b 274 836 469 757 392 836 b 72 656 176 836 128 792 l 43 663 b 132 853 67 761 88 806 b 332 939 183 908 256 939 b 589 694 476 939 589 832 b 411 350 589 585 535 479 l 178 106 l 510 106 b 642 197 575 107 590 117 l 660 190 "},"3":{"ha":694,"x_min":0,"x_max":0,"o":"m 211 476 b 386 572 306 510 344 531 b 442 707 421 608 442 657 b 289 856 442 796 381 856 b 83 708 201 856 139 811 l 63 714 b 154 871 92 797 113 833 b 335 939 204 915 265 939 b 551 749 464 939 551 863 b 422 557 551 674 517 622 b 538 483 482 531 508 514 b 599 304 576 440 599 376 b 499 74 599 211 564 131 b 217 -19 432 17 322 -19 b 60 60 119 -19 60 11 b 113 108 60 89 81 108 b 200 74 136 108 160 99 b 318 31 251 40 279 31 b 499 238 421 31 499 119 b 358 443 499 333 446 411 b 213 458 326 456 294 458 "},"4":{"ha":694,"x_min":0,"x_max":0,"o":"m 656 232 l 514 232 l 514 0 l 407 0 l 407 232 l 17 232 l 17 321 l 453 939 l 514 939 l 514 321 l 656 321 m 406 797 l 72 321 l 406 321 "},"5":{"ha":694,"x_min":0,"x_max":0,"o":"m 193 692 b 497 569 357 663 436 631 b 592 336 565 500 592 436 b 500 89 592 231 563 151 b 214 -19 429 18 329 -19 b 44 67 108 -19 44 14 b 103 118 44 101 64 118 b 210 72 135 118 165 106 b 301 32 251 42 274 32 b 494 269 411 32 494 136 b 263 544 494 408 422 493 b 106 572 204 563 150 572 b 89 583 94 572 89 575 b 90 590 89 586 89 588 l 242 919 l 532 919 b 596 956 563 919 575 928 l 608 946 l 556 822 b 524 810 551 811 547 810 l 251 810 "},"6":{"ha":694,"x_min":0,"x_max":0,"o":"m 622 928 b 211 532 404 892 249 742 b 388 594 299 585 326 594 b 650 304 550 594 650 483 b 358 -19 650 113 531 -19 b 144 75 272 -19 197 14 b 47 388 85 144 47 267 b 279 839 47 574 129 732 b 619 950 381 910 461 936 m 336 531 b 215 496 288 531 244 518 b 176 365 188 475 176 436 b 374 19 176 150 251 19 b 525 257 471 19 525 104 b 336 531 525 431 457 531 "},"7":{"ha":694,"x_min":0,"x_max":0,"o":"m 632 897 l 338 -11 l 247 -11 l 522 817 l 221 817 b 60 704 143 815 117 797 l 36 715 l 118 919 l 632 919 "},"8":{"ha":694,"x_min":0,"x_max":0,"o":"m 403 515 b 618 215 571 389 618 324 b 344 -19 618 72 511 -19 b 78 210 186 -19 78 74 b 258 461 78 306 107 346 b 86 719 113 589 86 629 b 350 939 86 846 199 939 b 589 742 490 939 589 857 b 403 515 589 647 540 589 m 294 433 b 183 219 213 367 183 310 b 360 19 183 100 254 19 b 513 172 450 19 513 82 b 378 372 513 250 479 300 m 363 540 b 493 743 457 601 493 658 b 339 900 493 839 433 900 b 189 763 251 900 189 843 b 363 540 189 685 239 621 "},"9":{"ha":694,"x_min":0,"x_max":0,"o":"m 78 -3 b 500 408 289 33 443 182 b 292 329 426 351 368 329 b 42 611 142 329 42 442 b 331 939 42 799 165 939 b 638 547 511 939 638 776 b 408 82 638 360 553 188 b 82 -31 314 14 238 -12 m 503 547 b 319 900 503 781 440 900 b 221 857 279 900 244 885 b 169 658 192 821 169 738 b 342 389 169 493 236 389 b 482 440 392 389 443 408 b 503 493 497 453 503 465 "}," ":{"ha":347,"x_min":0,"x_max":0,"o":""},"!":{"ha":463,"x_min":0,"x_max":0,"o":"m 218 244 l 206 394 b 182 586 203 436 194 504 b 154 832 165 690 154 796 b 228 939 154 899 182 939 b 301 828 275 939 301 900 b 299 776 301 808 300 793 l 236 244 m 228 133 b 304 58 269 133 304 100 b 226 -12 304 17 272 -12 b 154 58 185 -12 154 18 b 228 133 154 100 186 133 "},"\"":{"ha":567,"x_min":0,"x_max":0,"o":"m 386 599 b 342 882 361 733 342 858 b 401 939 342 914 368 939 b 460 883 433 939 460 914 b 425 654 460 843 447 760 b 415 599 422 642 419 622 m 151 599 b 107 882 126 733 107 858 b 167 939 107 914 133 939 b 225 883 199 939 225 914 b 190 654 225 843 213 760 b 181 599 188 642 185 622 "},"#":{"ha":694,"x_min":0,"x_max":0,"o":"m 654 300 l 503 300 l 460 0 l 379 0 l 422 300 l 236 300 l 190 0 l 110 0 l 156 300 l 7 300 l 7 376 l 168 376 l 197 563 l 44 563 l 44 639 l 208 639 l 251 919 l 332 919 l 289 639 l 474 639 l 515 919 l 596 919 l 554 639 l 689 639 l 689 563 l 543 563 l 515 376 l 654 376 m 278 563 l 249 376 l 435 376 l 463 563 "},"$":{"ha":694,"x_min":0,"x_max":0,"o":"m 569 694 b 367 885 546 813 483 871 l 367 543 b 607 361 535 447 571 418 b 635 236 625 332 635 286 b 563 74 635 169 608 113 b 367 0 513 33 469 17 l 367 -121 l 319 -121 l 319 0 b 61 71 203 4 144 19 l 61 251 l 82 251 b 319 39 115 106 189 40 l 319 431 b 150 546 221 486 190 507 b 72 711 94 597 72 646 b 147 864 72 771 100 826 b 319 922 193 900 232 913 l 319 1010 l 367 1010 l 367 922 b 590 849 483 908 543 888 l 590 694 m 318 885 b 175 742 222 865 175 818 b 318 565 175 676 201 643 m 367 39 b 525 203 475 60 525 111 b 367 407 525 289 496 326 "},"%":{"ha":1157,"x_min":0,"x_max":0,"o":"m 883 939 l 346 -18 l 279 -18 l 824 939 m 897 461 b 1093 211 1010 461 1093 354 b 900 -33 1093 67 1014 -33 b 703 213 788 -33 703 72 b 897 461 703 356 786 461 m 899 425 b 811 215 842 425 811 353 b 897 4 811 76 840 4 b 986 210 953 4 986 81 b 899 425 986 349 956 425 m 261 938 b 451 682 374 938 451 832 b 257 440 451 539 372 440 b 61 688 143 440 61 544 b 261 938 61 832 144 938 m 258 900 b 169 696 199 900 169 833 b 254 474 169 544 197 474 b 344 685 313 474 344 550 b 258 900 344 822 313 900 "},"&":{"ha":1081,"x_min":0,"x_max":0,"o":"m 988 563 b 857 481 918 554 890 538 l 821 417 b 682 208 778 342 743 290 b 896 81 747 124 818 81 b 1021 154 946 81 976 99 l 1042 139 b 832 -18 1000 40 921 -18 b 596 108 751 -18 683 18 b 296 -18 492 17 408 -18 b 58 193 147 -18 58 61 b 276 493 58 310 129 408 l 329 524 b 281 725 292 628 281 672 b 494 939 281 844 375 939 b 682 771 604 939 682 869 b 467 533 682 671 625 608 b 650 247 528 414 572 343 b 776 500 740 367 776 439 b 688 563 776 542 757 556 l 688 592 l 988 592 m 446 578 b 608 776 557 636 608 700 b 497 894 608 844 561 894 b 390 781 433 894 390 849 b 446 578 390 718 404 665 m 350 476 b 186 250 229 399 186 339 b 365 54 186 142 267 54 b 561 144 425 54 478 79 b 350 476 482 242 433 318 "},"'":{"ha":250,"x_min":0,"x_max":0,"o":"m 111 599 b 67 882 86 733 67 858 b 126 939 67 914 93 939 b 185 883 158 939 185 914 b 150 654 185 843 172 760 b 140 599 147 642 144 622 "},"(":{"ha":463,"x_min":0,"x_max":0,"o":"m 422 917 b 242 700 322 836 281 786 b 186 354 204 614 186 500 b 235 17 186 214 201 110 b 422 -224 272 -86 311 -136 l 406 -246 b 240 -104 333 -201 297 -171 b 67 350 118 38 67 172 b 214 772 67 513 115 651 b 410 939 265 836 307 871 "},")":{"ha":463,"x_min":0,"x_max":0,"o":"m 40 -224 b 221 -6 140 -143 183 -93 b 276 339 258 78 276 193 b 228 676 276 479 261 583 b 40 917 189 781 151 829 l 57 939 b 222 797 129 894 165 864 b 396 343 344 656 396 521 b 249 -79 396 181 347 42 b 53 -246 197 -143 156 -178 "},"*":{"ha":694,"x_min":0,"x_max":0,"o":"m 333 633 b 263 583 283 600 276 594 b 204 521 251 572 244 565 b 146 488 181 494 168 488 b 96 535 114 488 96 506 b 182 599 96 571 119 588 b 325 654 246 611 268 619 l 310 664 b 190 706 283 682 242 696 b 96 771 122 718 96 736 b 143 821 96 800 115 821 b 210 776 165 821 182 810 b 335 675 254 726 282 704 l 335 693 b 314 819 335 728 328 771 b 300 890 306 849 300 875 b 349 939 300 918 321 939 b 399 889 376 939 399 917 l 361 708 l 361 672 l 371 678 b 471 767 403 696 438 726 b 549 824 504 806 528 824 b 599 769 579 824 599 801 b 528 711 599 733 582 719 b 372 653 468 701 440 692 l 383 646 b 518 599 419 624 465 607 b 600 538 579 589 600 574 b 551 486 600 507 581 486 b 468 546 526 486 503 503 b 371 629 432 592 401 617 l 361 633 l 361 624 b 389 468 361 569 371 517 b 400 424 396 449 400 432 b 346 368 400 394 375 368 b 297 418 319 368 297 392 b 313 483 297 433 303 457 b 338 600 329 528 338 564 b 335 624 338 603 336 611 "},"+":{"ha":783,"x_min":0,"x_max":0,"o":"m 356 768 l 429 768 l 429 463 l 733 463 l 733 389 l 429 389 l 429 83 l 356 83 l 356 389 l 51 389 l 51 463 l 356 463 "},",":{"ha":347,"x_min":0,"x_max":0,"o":"m 103 -169 b 217 -22 178 -118 217 -67 b 197 -3 217 -11 208 -3 b 188 -6 196 -3 194 -3 b 160 -8 179 -7 169 -8 b 78 63 108 -8 78 18 b 160 142 78 110 111 142 b 271 18 222 142 271 88 b 115 -196 271 -65 208 -150 "},"-":{"ha":463,"x_min":0,"x_max":0,"o":"m 396 357 l 396 269 l 54 269 l 54 357 "},".":{"ha":347,"x_min":0,"x_max":0,"o":"m 174 139 b 251 60 215 139 251 103 b 172 -15 251 18 215 -15 b 97 60 132 -15 97 19 b 174 139 97 104 132 139 "},"/":{"ha":386,"x_min":0,"x_max":0,"o":"m 69 -19 l 6 -19 l 324 939 l 386 939 "},":":{"ha":386,"x_min":0,"x_max":0,"o":"m 189 638 b 267 558 231 638 267 601 b 188 483 267 517 231 483 b 113 558 147 483 113 518 b 189 638 113 603 147 638 m 189 139 b 267 60 231 139 267 103 b 188 -15 267 18 231 -15 b 113 60 147 -15 113 19 b 189 139 113 104 147 139 "},";":{"ha":386,"x_min":0,"x_max":0,"o":"m 136 -169 b 250 -22 211 -118 250 -67 b 231 -3 250 -11 242 -3 b 221 -6 229 -3 228 -3 b 193 -8 213 -7 203 -8 b 111 64 142 -8 111 18 b 193 142 111 111 143 142 b 304 18 256 142 304 89 b 149 -196 304 -65 244 -149 m 189 638 b 267 558 231 638 267 601 b 188 483 267 518 231 483 b 113 558 147 483 113 518 b 189 638 113 603 147 638 "},"<":{"ha":783,"x_min":0,"x_max":0,"o":"m 49 385 l 49 465 l 736 776 l 736 696 l 139 425 l 736 154 l 736 75 "},"=":{"ha":783,"x_min":0,"x_max":0,"o":"m 733 528 l 51 528 l 51 601 l 733 601 m 733 250 l 51 250 l 51 324 l 733 324 "},">":{"ha":783,"x_min":0,"x_max":0,"o":"m 49 154 l 646 425 l 49 696 l 49 776 l 736 465 l 736 385 l 49 75 "},"?":{"ha":617,"x_min":0,"x_max":0,"o":"m 289 228 b 331 425 290 289 304 357 l 369 514 b 421 731 403 590 421 667 b 269 897 421 824 354 897 b 139 811 203 897 139 856 b 163 768 139 799 144 788 b 192 708 183 744 192 728 b 135 651 192 674 169 651 b 68 738 90 651 68 681 b 293 939 68 853 165 939 b 499 858 369 939 451 907 b 549 724 531 826 549 776 b 486 549 549 667 531 617 b 403 442 467 519 467 519 b 313 228 351 378 328 322 m 303 135 b 379 60 344 135 379 101 b 303 -11 379 18 347 -11 b 229 58 260 -11 229 18 b 303 135 229 101 261 135 "},"@":{"ha":1279,"x_min":0,"x_max":0,"o":"m 1017 -174 b 682 -275 864 -253 789 -275 b 110 322 358 -275 110 -15 b 676 939 110 665 361 939 b 1186 424 964 939 1186 714 b 899 1 1186 196 1054 1 b 758 131 825 1 768 53 b 565 3 707 51 633 3 b 428 199 488 3 428 89 b 557 554 428 328 476 463 b 733 643 610 615 664 643 b 844 553 788 643 810 625 l 860 619 l 967 619 l 865 172 b 863 140 864 163 863 151 b 922 60 863 86 882 60 b 1042 136 967 60 1003 83 b 1124 407 1093 207 1124 310 b 672 885 1124 671 921 885 b 199 314 401 885 199 640 b 693 -207 199 8 403 -207 b 997 -121 797 -207 878 -185 m 756 567 b 618 478 717 569 663 535 b 539 228 568 413 539 321 b 632 79 539 136 575 79 b 749 181 674 79 719 119 b 818 454 789 265 818 382 b 756 567 818 528 799 563 "},"A":{"ha":1003,"x_min":0,"x_max":0,"o":"m 981 0 l 626 0 l 626 26 b 724 74 700 28 724 39 b 697 167 724 93 714 129 l 640 300 l 276 300 l 213 138 b 201 83 206 119 201 100 b 296 26 201 43 229 26 l 296 0 l 21 0 l 21 26 b 193 254 88 29 104 51 l 482 936 l 510 936 l 856 147 b 981 26 904 44 918 31 m 621 357 l 460 739 l 300 357 "},"B":{"ha":926,"x_min":0,"x_max":0,"o":"m 24 919 l 413 919 b 776 683 651 919 776 839 b 721 544 776 625 756 575 b 586 483 688 515 658 501 b 756 407 676 461 714 444 b 824 250 800 367 824 311 b 746 76 824 183 796 121 b 488 0 694 29 594 0 l 24 0 l 24 26 b 157 151 138 31 156 47 l 157 768 b 24 893 156 872 140 886 m 299 108 b 386 51 299 64 318 51 b 579 88 478 51 535 63 b 664 249 635 119 664 174 b 547 424 664 335 626 392 b 299 453 497 444 433 453 m 431 508 b 635 678 564 510 635 568 b 390 868 635 801 544 872 l 329 867 b 299 826 306 865 300 857 l 299 507 "},"C":{"ha":926,"x_min":0,"x_max":0,"o":"m 829 626 b 738 800 803 717 782 756 b 531 883 682 854 610 883 b 200 469 329 883 200 722 b 319 122 200 315 243 190 b 544 42 379 69 457 42 b 854 182 660 42 751 83 l 879 157 b 500 -19 796 44 657 -19 b 39 453 224 -19 39 169 b 189 819 39 606 92 733 b 504 939 276 896 390 939 b 707 904 569 939 639 928 b 761 893 728 897 749 893 b 819 939 789 893 811 910 l 849 939 l 861 626 "},"D":{"ha":1003,"x_min":0,"x_max":0,"o":"m 22 26 b 144 151 126 33 143 50 l 144 768 b 22 893 143 872 132 883 l 22 919 l 397 919 b 833 774 588 919 739 869 b 951 464 911 697 951 589 b 810 124 951 329 900 206 b 417 0 724 46 578 0 l 22 0 m 286 108 b 358 51 286 64 303 51 b 631 108 479 51 560 68 b 800 454 743 174 800 290 b 635 799 800 604 743 724 b 358 868 568 846 479 868 b 286 814 300 868 286 857 "},"E":{"ha":849,"x_min":0,"x_max":0,"o":"m 767 0 l 17 0 l 17 26 b 138 151 117 32 135 51 l 138 768 b 17 893 135 868 118 886 l 17 919 l 754 919 l 758 721 l 724 721 b 513 867 701 844 674 864 l 325 867 b 279 819 286 867 281 861 l 279 511 l 493 511 b 646 643 610 514 629 531 l 678 643 l 678 321 l 646 321 b 493 454 628 435 610 451 l 279 454 l 279 111 b 425 51 279 57 281 56 l 463 51 b 790 235 661 53 724 88 l 829 235 "},"F":{"ha":772,"x_min":0,"x_max":0,"o":"m 633 321 b 481 454 617 433 594 453 l 279 454 l 279 151 b 406 26 281 50 300 31 l 406 0 l 17 0 l 17 26 b 138 167 122 33 136 49 l 138 768 b 17 893 135 868 118 886 l 17 919 l 754 919 l 758 721 l 724 721 b 513 867 701 844 674 864 l 324 867 b 279 819 285 865 281 861 l 279 511 l 481 511 b 633 643 594 514 618 533 l 665 643 l 665 321 "},"G":{"ha":1003,"x_min":0,"x_max":0,"o":"m 985 467 b 888 360 906 461 890 444 l 888 78 b 539 -19 832 29 660 -19 b 160 129 386 -19 251 33 b 44 451 82 211 44 315 b 521 939 44 735 243 939 b 710 907 583 939 647 928 b 771 893 735 899 757 893 b 833 939 800 893 825 911 l 864 939 l 875 646 l 843 646 b 744 807 808 731 786 767 b 544 883 692 857 622 883 b 303 778 450 883 364 846 b 203 453 242 710 203 583 b 568 36 203 194 342 36 b 753 118 669 36 753 74 l 753 343 b 631 467 750 449 739 460 l 631 492 l 985 492 "},"H":{"ha":1003,"x_min":0,"x_max":0,"o":"m 26 26 b 149 167 135 33 147 49 l 149 768 b 26 893 147 871 133 885 l 26 919 l 413 919 l 413 893 b 290 768 306 883 292 869 l 290 499 l 711 499 l 711 768 b 589 893 710 871 696 885 l 589 919 l 975 919 l 975 893 b 853 768 868 883 854 869 l 853 151 b 975 26 854 51 871 35 l 975 0 l 589 0 l 589 26 b 711 167 697 33 710 49 l 711 438 l 290 438 l 290 151 b 413 26 292 51 308 35 l 413 0 l 26 0 "},"I":{"ha":463,"x_min":0,"x_max":0,"o":"m 25 26 b 160 151 142 31 158 46 l 160 768 b 25 893 158 872 143 886 l 25 919 l 438 919 l 438 893 b 301 768 322 889 304 872 l 301 151 b 438 26 304 49 324 29 l 438 0 l 25 0 "},"J":{"ha":540,"x_min":0,"x_max":0,"o":"m 522 893 b 394 768 410 885 397 872 l 394 254 b 160 -19 394 81 310 -19 b 22 81 79 -19 22 22 b 90 150 22 118 53 150 b 163 79 126 150 149 128 b 200 33 172 44 181 33 b 253 125 236 33 253 63 l 253 768 b 124 893 251 871 236 885 l 124 919 l 522 919 "},"K":{"ha":1003,"x_min":0,"x_max":0,"o":"m 564 919 l 928 919 l 928 893 b 717 785 833 886 811 875 l 453 524 l 776 176 b 994 26 903 42 922 28 l 994 0 l 571 0 l 571 26 b 610 28 588 28 603 28 b 668 58 650 29 668 39 b 488 294 668 92 593 189 l 340 440 l 304 411 l 304 151 b 429 26 306 49 322 33 l 429 0 l 38 0 l 38 26 b 163 167 146 33 161 49 l 163 768 b 38 893 160 869 144 886 l 38 919 l 432 919 l 432 893 b 304 768 319 885 306 872 l 304 483 l 550 707 b 658 850 626 778 658 819 b 564 893 658 883 647 889 "},"L":{"ha":849,"x_min":0,"x_max":0,"o":"m 408 893 b 279 768 300 888 282 869 l 279 111 b 399 54 281 61 292 57 l 492 54 b 796 242 671 60 731 96 l 831 242 l 764 0 l 17 0 l 17 26 b 138 151 117 32 135 51 l 138 768 b 17 893 135 868 118 886 l 17 919 l 408 919 "},"M":{"ha":1235,"x_min":0,"x_max":0,"o":"m 1199 893 b 1078 768 1097 886 1081 868 l 1078 151 b 1199 26 1081 51 1099 32 l 1199 0 l 810 0 l 810 26 b 936 167 919 33 935 49 l 936 796 l 581 0 l 561 0 l 213 764 l 213 204 b 343 26 215 61 236 32 l 343 0 l 17 0 l 17 26 b 151 204 131 33 149 57 l 151 768 b 19 893 149 872 133 888 l 19 919 l 294 919 l 615 218 l 922 919 l 1199 919 "},"N":{"ha":1003,"x_min":0,"x_max":0,"o":"m 982 893 b 850 715 872 883 854 860 l 850 -15 l 826 -15 l 213 749 l 213 204 b 343 26 215 61 236 32 l 343 0 l 17 0 l 17 26 b 151 204 131 33 149 57 l 151 817 b 17 893 96 882 76 893 l 17 919 l 254 919 l 789 247 l 789 715 b 656 893 785 863 767 886 l 656 919 l 982 919 "},"O":{"ha":1003,"x_min":0,"x_max":0,"o":"m 501 939 b 839 793 635 939 751 889 b 956 454 915 711 956 592 b 493 -19 956 174 767 -19 b 167 122 371 -19 247 35 b 47 460 92 201 47 329 b 501 939 47 740 236 939 m 501 889 b 303 799 425 889 357 858 b 206 457 244 733 206 599 b 322 99 206 303 251 163 b 499 31 372 56 435 31 b 683 104 572 31 635 56 b 751 206 715 136 739 171 b 797 456 779 278 797 374 b 679 819 797 621 754 751 b 501 889 629 864 565 889 "},"P":{"ha":772,"x_min":0,"x_max":0,"o":"m 22 919 l 389 919 b 696 819 519 919 640 881 b 753 668 733 779 753 726 b 619 447 753 576 703 492 b 376 400 560 414 486 400 b 281 404 340 400 317 401 l 281 151 b 411 26 282 49 301 29 l 411 0 l 22 0 l 22 26 b 139 167 128 36 138 49 l 139 768 b 22 893 138 869 125 882 m 281 460 b 360 456 313 457 332 456 b 601 660 519 456 601 525 b 328 868 601 803 515 868 b 281 821 290 868 281 858 "},"Q":{"ha":1003,"x_min":0,"x_max":0,"o":"m 974 -246 l 965 -246 b 918 -247 951 -247 936 -247 b 433 -78 696 -247 528 -189 l 368 -1 b 171 118 269 32 225 60 b 47 457 89 207 47 321 b 501 939 47 739 236 939 b 956 460 767 939 956 740 b 800 88 956 306 903 179 b 592 -10 736 32 686 8 b 974 -221 704 -156 815 -217 m 506 889 b 303 799 425 889 358 860 b 206 465 246 735 206 599 b 322 99 206 301 250 164 b 501 31 374 54 435 31 b 701 119 578 31 650 63 b 797 463 757 183 797 325 b 678 819 797 619 753 753 b 506 889 629 863 565 889 "},"R":{"ha":926,"x_min":0,"x_max":0,"o":"m 915 0 l 692 0 l 361 428 l 283 425 l 283 151 b 408 26 285 50 301 33 l 408 0 l 24 0 l 24 26 b 142 167 128 35 140 49 l 142 768 b 24 893 140 869 126 882 l 24 919 l 407 919 b 706 826 538 919 653 883 b 760 675 742 786 760 735 b 508 443 760 547 685 478 l 794 92 b 915 26 835 44 863 31 m 283 476 b 529 524 417 479 465 488 b 608 678 579 550 608 608 b 354 868 608 808 528 868 b 283 818 299 868 283 857 "},"S":{"ha":772,"x_min":0,"x_max":0,"o":"m 651 643 l 617 643 b 532 806 594 725 575 761 b 363 882 483 856 425 882 b 218 754 276 882 218 831 b 422 538 218 678 276 617 b 682 233 606 438 682 347 b 399 -19 682 90 560 -19 b 235 13 344 -19 288 -8 b 169 28 208 22 185 28 b 131 -18 149 28 132 8 l 100 -18 l 58 276 l 90 276 b 371 31 160 107 246 31 b 542 186 472 31 542 94 b 522 268 542 221 535 250 b 315 431 488 321 415 376 b 99 701 160 513 99 590 b 172 875 99 774 124 832 b 338 939 218 915 279 939 b 486 908 383 939 435 928 b 547 892 510 897 533 892 b 592 939 571 892 586 907 l 621 939 "},"T":{"ha":849,"x_min":0,"x_max":0,"o":"m 628 0 l 222 0 l 222 26 b 353 167 339 33 351 47 l 353 861 l 278 861 b 57 683 118 858 89 835 l 24 683 l 32 919 l 815 919 l 824 683 l 790 683 b 569 861 760 835 731 858 l 494 861 l 494 151 b 628 26 496 50 514 32 "},"U":{"ha":1003,"x_min":0,"x_max":0,"o":"m 979 893 b 849 715 867 881 851 861 l 849 353 b 803 124 849 246 836 182 b 493 -19 749 29 644 -19 b 144 335 257 -19 144 94 l 144 768 b 19 893 143 871 129 885 l 19 919 l 413 919 l 413 893 b 286 768 301 883 288 869 l 286 324 b 321 140 286 236 296 185 b 525 42 358 75 426 42 b 756 151 629 42 718 85 b 788 340 778 193 788 246 l 788 715 b 657 893 785 858 764 886 l 657 919 l 979 919 "},"V":{"ha":1003,"x_min":0,"x_max":0,"o":"m 968 893 b 840 764 901 889 886 874 l 532 -15 l 511 -15 l 169 747 b 22 893 110 871 90 890 l 22 919 l 392 919 l 392 893 b 351 890 374 892 358 890 b 288 847 307 888 288 875 b 344 693 288 826 299 796 l 554 224 l 758 733 b 785 835 775 775 785 813 b 683 893 785 874 760 889 l 683 919 l 968 919 "},"W":{"ha":1311,"x_min":0,"x_max":0,"o":"m 1294 893 b 1179 794 1221 879 1206 867 b 896 -15 1028 386 1014 347 l 875 -15 l 653 572 l 439 -15 l 418 -15 l 150 731 b 7 893 99 861 78 886 l 7 919 l 347 919 l 347 893 b 257 849 276 889 257 879 b 272 785 257 833 263 810 l 472 263 l 621 654 l 575 768 b 435 893 528 879 514 892 l 435 919 l 806 919 l 806 893 b 699 844 731 892 699 878 b 719 774 699 829 707 803 b 736 732 721 769 733 739 l 919 258 l 1093 729 b 1115 833 1107 768 1115 806 b 1019 893 1115 871 1090 886 l 1019 919 l 1294 919 "},"X":{"ha":1003,"x_min":0,"x_max":0,"o":"m 967 893 b 760 763 878 888 850 871 l 557 510 l 824 129 b 978 26 883 49 904 35 l 978 0 l 565 0 l 565 26 b 603 29 582 28 597 29 b 672 69 650 31 672 44 b 601 206 672 90 649 136 l 469 400 l 304 194 b 232 75 253 131 232 96 b 338 26 232 43 257 32 l 338 0 l 14 0 l 14 26 b 215 185 85 32 92 38 l 433 453 l 282 675 b 31 893 146 868 121 889 l 31 919 l 450 919 l 450 893 l 411 892 b 344 851 365 890 344 879 b 463 643 344 821 378 763 l 521 561 l 678 753 b 733 849 719 803 733 828 b 636 893 733 881 711 890 l 636 919 l 967 919 "},"Y":{"ha":1003,"x_min":0,"x_max":0,"o":"m 976 893 b 785 735 906 888 869 857 l 579 421 l 579 151 b 722 26 581 44 599 29 l 722 0 l 297 0 l 297 26 b 438 167 424 32 436 44 l 438 408 l 256 675 b 31 893 117 871 97 890 l 31 919 l 419 919 l 419 893 b 385 892 404 892 390 892 b 321 851 340 889 321 878 b 344 790 321 836 329 813 l 550 482 l 749 796 b 768 847 763 817 768 833 b 672 893 768 881 744 892 l 672 919 l 976 919 "},"Z":{"ha":849,"x_min":0,"x_max":0,"o":"m 829 244 l 796 0 l 13 0 l 13 21 l 619 867 l 313 867 b 79 682 153 863 103 822 l 43 682 l 71 919 l 801 919 l 801 899 l 201 53 l 558 53 b 797 244 708 58 756 96 "},"[":{"ha":463,"x_min":0,"x_max":0,"o":"m 290 885 b 228 824 244 883 229 868 l 228 -110 b 296 -182 229 -160 249 -181 l 415 -182 l 415 -217 l 122 -217 l 122 919 l 415 919 l 415 885 "},"\\":{"ha":386,"x_min":0,"x_max":0,"o":"m 81 939 l 399 -19 l 336 -19 l 11 939 "},"]":{"ha":463,"x_min":0,"x_max":0,"o":"m 172 -182 b 235 -121 218 -181 233 -165 l 235 813 b 167 885 233 863 214 883 l 47 885 l 47 919 l 340 919 l 340 -217 l 47 -217 l 47 -182 "},"^":{"ha":651,"x_min":0,"x_max":0,"o":"m 33 413 l 285 919 l 368 919 l 619 413 l 525 413 l 326 814 l 128 413 "},"_":{"ha":694,"x_min":0,"x_max":0,"o":"m 0 -174 l 0 -104 l 694 -104 l 694 -174 "},"`":{"ha":463,"x_min":0,"x_max":0,"o":"m 301 704 l 88 839 b 47 899 61 856 47 876 b 94 942 47 925 65 942 b 153 910 115 942 128 935 l 357 704 "},"a":{"ha":617,"x_min":0,"x_max":0,"o":"m 614 56 b 489 -14 565 3 536 -14 b 400 88 432 -14 407 14 b 197 -14 315 15 258 -14 b 51 135 113 -14 51 47 b 101 256 51 181 71 228 b 399 406 161 308 185 319 l 399 490 b 293 606 399 565 361 606 b 193 538 238 606 193 575 b 197 504 193 528 194 517 b 200 482 199 494 200 488 b 138 424 200 451 171 424 b 78 483 104 424 78 451 b 311 639 78 571 181 639 b 483 563 393 639 453 613 b 511 417 504 529 511 489 l 511 146 b 553 65 511 85 521 65 b 614 92 574 65 590 72 m 399 372 b 174 179 236 315 175 263 l 174 174 b 261 67 174 114 213 67 b 363 97 290 67 328 78 b 399 171 392 114 399 129 "},"b":{"ha":694,"x_min":0,"x_max":0,"o":"m 213 521 b 406 639 240 590 321 639 b 650 338 544 639 650 510 b 325 -14 650 139 508 -14 b 96 75 213 -14 96 32 l 96 796 b 28 867 96 854 85 867 b 4 865 18 867 13 867 l 4 888 l 44 899 b 206 949 110 917 147 928 l 213 946 m 213 97 b 347 31 213 61 275 31 b 528 274 461 31 528 119 b 453 511 528 374 497 468 b 350 551 424 538 389 551 b 213 447 278 551 213 501 "},"c":{"ha":617,"x_min":0,"x_max":0,"o":"m 572 204 b 467 51 531 122 504 83 b 299 -14 417 8 361 -14 b 35 294 144 -14 35 115 b 143 561 35 406 74 500 b 339 639 200 611 271 639 b 553 496 456 639 553 574 b 488 438 553 464 524 438 b 421 501 457 438 432 461 l 413 532 b 331 599 399 583 381 599 b 142 357 218 599 142 501 b 357 86 142 197 229 86 b 553 217 436 86 486 119 "},"d":{"ha":694,"x_min":0,"x_max":0,"o":"m 682 58 l 478 -14 l 472 -10 l 472 79 b 294 -14 425 14 372 -14 b 38 285 140 -14 38 107 b 326 639 38 482 167 639 b 472 579 382 639 419 624 l 472 796 b 408 867 472 853 460 867 b 378 865 397 867 389 867 l 378 888 b 582 949 467 911 515 925 l 589 946 l 589 158 b 650 79 589 94 600 79 b 682 81 656 79 664 79 m 472 461 b 331 600 472 535 406 600 b 157 340 225 600 157 497 b 349 58 157 169 233 58 b 449 100 389 58 425 72 b 472 142 463 115 472 132 "},"e":{"ha":617,"x_min":0,"x_max":0,"o":"m 597 218 b 303 -14 539 68 436 -14 b 43 297 143 -14 43 106 b 146 567 43 411 81 510 b 333 639 199 614 264 639 b 511 560 406 639 469 610 b 571 385 546 515 560 475 l 143 385 b 181 201 146 299 156 254 b 360 82 221 122 281 82 b 575 228 449 82 508 122 m 429 429 b 293 589 411 550 378 589 b 146 429 208 589 161 539 "},"f":{"ha":463,"x_min":0,"x_max":0,"o":"m 447 581 l 278 581 l 278 144 b 407 21 278 40 293 25 l 407 0 l 46 0 l 46 21 b 161 144 144 25 158 40 l 161 581 l 47 581 l 47 625 l 161 625 b 210 849 163 736 174 786 b 406 949 246 911 318 949 b 550 863 489 949 550 913 b 492 806 550 831 525 806 b 429 856 468 806 451 819 b 356 910 404 896 386 910 b 276 786 303 910 276 868 l 276 625 l 447 625 "},"g":{"ha":694,"x_min":0,"x_max":0,"o":"m 538 539 b 564 422 557 494 564 463 b 497 265 564 353 543 304 b 347 207 454 228 399 207 b 268 214 344 207 318 210 b 185 126 231 203 185 154 b 293 89 185 104 218 92 l 472 81 b 640 -68 575 76 640 18 b 564 -208 640 -121 617 -165 b 279 -303 492 -267 383 -303 b 39 -168 146 -303 39 -242 b 175 1 39 -117 75 -71 b 101 75 117 29 101 44 b 139 144 101 99 110 114 b 189 193 143 150 160 165 l 225 226 b 96 413 132 272 96 325 b 328 639 96 540 199 639 b 439 618 364 639 401 632 l 469 607 b 546 593 497 597 517 593 l 653 593 l 653 539 m 204 -3 b 136 -122 149 -69 136 -90 b 339 -224 136 -183 215 -224 b 601 -89 496 -224 601 -169 b 429 -21 601 -39 556 -21 b 204 -3 361 -21 251 -12 m 211 465 b 354 242 211 332 268 242 b 457 368 418 242 457 290 b 415 535 457 424 442 486 b 314 600 393 576 357 600 b 211 469 250 600 211 551 "},"h":{"ha":694,"x_min":0,"x_max":0,"o":"m 676 0 l 382 0 l 382 21 b 476 142 461 28 474 43 l 476 417 b 372 564 476 514 442 564 b 218 476 318 564 276 540 l 218 142 b 313 21 221 43 232 28 l 313 0 l 13 0 l 13 21 b 101 142 92 31 99 42 l 101 796 b 31 867 101 856 90 867 b 14 865 24 867 19 867 l 14 888 l 51 899 b 211 949 129 921 164 932 l 218 944 l 218 522 b 422 639 282 606 340 639 b 593 418 536 639 593 564 l 593 142 b 676 21 594 43 601 33 "},"i":{"ha":386,"x_min":0,"x_max":0,"o":"m 32 21 b 142 142 126 25 139 39 l 142 464 b 96 547 142 525 129 547 b 49 543 83 547 65 546 l 38 542 l 38 563 l 253 639 l 258 635 l 258 142 b 361 21 260 40 269 28 l 361 0 l 32 0 m 188 949 b 260 878 228 949 260 918 b 188 807 260 838 229 807 b 118 878 149 807 118 838 b 188 949 118 917 150 949 "},"j":{"ha":386,"x_min":0,"x_max":0,"o":"m 268 0 b 188 -249 268 -110 238 -204 b 33 -303 150 -283 94 -303 b -97 -226 -43 -303 -97 -271 b -40 -172 -97 -196 -72 -172 b 26 -217 -18 -172 1 -185 b 85 -256 50 -246 64 -256 b 132 -231 104 -256 124 -244 b 151 -62 147 -203 151 -168 l 151 464 b 107 547 151 524 139 547 b 51 543 93 547 72 546 l 44 542 l 44 564 b 261 639 126 589 179 607 l 268 635 m 197 949 b 269 878 238 949 269 918 b 197 807 269 838 239 807 b 128 878 158 807 128 838 b 197 949 128 917 160 949 "},"k":{"ha":694,"x_min":0,"x_max":0,"o":"m 10 21 b 114 114 108 36 113 40 l 114 783 b 54 868 114 850 101 868 b 10 865 40 868 28 867 l 10 888 l 51 899 b 225 949 132 921 172 932 l 231 946 l 231 363 l 421 532 b 453 581 440 550 453 568 b 383 606 453 599 438 604 l 383 625 l 667 625 l 667 604 b 367 429 578 607 540 585 l 326 392 l 539 122 b 701 21 597 51 640 25 l 701 0 l 399 0 l 399 21 l 425 21 b 454 42 442 21 454 29 b 439 71 454 49 450 57 b 425 89 435 75 431 82 l 231 349 l 231 93 b 307 22 232 42 249 26 l 335 21 l 335 0 l 10 0 "},"l":{"ha":386,"x_min":0,"x_max":0,"o":"m 29 21 b 136 121 115 26 135 46 l 136 783 b 78 868 136 849 122 868 b 35 865 67 868 50 867 l 26 865 l 26 888 b 247 949 122 911 175 925 l 253 946 l 253 117 b 357 21 254 39 269 25 l 357 0 l 29 0 "},"m":{"ha":1081,"x_min":0,"x_max":0,"o":"m 22 21 b 119 118 99 21 117 40 l 119 469 b 71 558 119 536 107 558 b 26 553 56 558 44 557 l 26 576 b 221 639 103 597 150 613 l 231 636 l 231 532 b 446 639 347 621 383 639 b 593 522 521 639 568 601 b 819 639 668 603 738 639 b 981 392 926 639 981 556 l 981 106 b 1040 24 981 51 996 31 l 1076 21 l 1076 0 l 772 0 l 772 21 b 864 121 853 29 861 39 l 864 414 b 760 567 864 529 839 567 b 608 482 694 567 650 542 l 608 132 b 708 21 611 43 631 21 l 708 0 l 397 0 l 397 21 b 492 119 475 25 489 40 l 492 421 b 400 567 492 518 461 567 b 257 511 351 567 292 543 b 236 485 247 501 236 488 l 236 93 b 331 21 238 38 260 22 l 331 0 l 22 0 "},"n":{"ha":694,"x_min":0,"x_max":0,"o":"m 25 21 b 111 125 94 25 110 43 l 111 469 b 60 558 111 538 99 558 b 22 553 44 558 31 557 l 22 576 b 214 639 99 599 146 614 l 224 636 l 224 526 b 425 639 318 615 361 639 b 589 431 528 639 589 561 l 589 113 b 674 21 590 44 606 28 l 674 0 l 385 0 l 385 21 b 472 138 453 25 469 47 l 472 428 b 371 563 472 519 439 563 b 228 483 325 563 293 546 l 228 93 b 319 21 228 43 250 25 l 319 0 l 25 0 "},"o":{"ha":694,"x_min":0,"x_max":0,"o":"m 347 639 b 653 325 525 639 653 508 b 344 -14 653 132 519 -14 b 40 314 169 -14 40 125 b 347 639 40 506 165 639 m 329 600 b 165 382 229 600 165 514 b 226 114 165 283 188 186 b 361 25 256 58 307 25 b 528 276 465 25 528 118 b 329 600 528 467 446 600 "},"p":{"ha":694,"x_min":0,"x_max":0,"o":"m 7 -278 b 104 -182 89 -269 104 -256 l 104 468 b 47 547 104 533 94 547 b 13 546 35 547 25 547 l 13 568 b 213 639 89 592 138 610 l 221 636 l 221 529 b 421 639 282 606 343 639 b 653 343 556 639 653 515 b 361 -14 653 142 526 -14 b 221 46 303 -14 271 0 l 221 -172 b 343 -276 222 -261 239 -275 l 343 -301 l 7 -301 m 221 122 b 365 31 221 81 300 31 b 533 288 465 31 533 135 b 363 556 533 450 465 556 b 221 464 299 556 221 506 "},"q":{"ha":694,"x_min":0,"x_max":0,"o":"m 575 635 l 590 633 l 590 -196 b 678 -282 593 -256 603 -265 l 678 -301 l 350 -301 l 350 -278 b 474 -172 447 -272 472 -250 l 474 89 b 256 -14 413 22 336 -14 b 33 283 125 -14 33 110 b 340 639 33 485 165 639 b 500 590 396 639 438 626 m 474 463 b 344 600 474 554 431 600 b 153 335 226 600 153 499 b 226 111 153 242 182 153 b 335 71 254 85 292 71 b 454 113 378 71 424 88 b 474 176 468 125 474 143 "},"r":{"ha":463,"x_min":0,"x_max":0,"o":"m 7 21 b 106 117 94 36 103 44 l 106 464 b 58 547 106 525 93 547 b 10 542 42 547 29 546 l 10 564 b 215 639 92 590 142 608 l 222 636 l 222 508 b 389 639 290 608 331 639 b 465 565 436 639 465 611 b 411 503 465 526 444 503 b 356 531 393 503 378 510 b 319 551 340 544 328 551 b 222 438 281 551 222 482 l 222 125 b 340 21 225 43 247 24 l 340 0 l 7 0 "},"s":{"ha":540,"x_min":0,"x_max":0,"o":"m 417 436 b 264 607 385 561 343 607 b 157 513 200 607 157 569 b 217 418 157 475 178 440 l 367 329 b 483 164 451 279 483 233 b 288 -14 483 67 396 -14 b 186 0 260 -14 224 -8 b 122 11 154 8 138 11 b 90 -6 106 11 100 8 l 72 -6 l 72 211 l 94 211 b 271 17 126 69 175 17 b 386 117 342 17 386 56 b 314 221 386 160 363 193 l 233 267 b 71 467 115 333 71 389 b 260 639 71 567 150 639 b 357 621 293 639 325 632 b 394 611 372 614 386 611 b 417 626 401 611 408 615 l 432 626 l 438 436 "},"t":{"ha":386,"x_min":0,"x_max":0,"o":"m 360 581 l 219 581 l 219 183 b 292 58 219 96 240 58 b 375 107 322 58 344 71 l 393 92 b 226 -14 347 19 294 -14 b 103 163 144 -14 103 46 l 103 581 l 29 581 b 24 590 25 583 24 586 b 47 617 24 599 32 607 b 210 804 88 640 129 688 b 219 786 217 804 219 800 l 219 625 l 360 625 "},"u":{"ha":694,"x_min":0,"x_max":0,"o":"m 678 50 b 488 -12 607 31 557 15 l 482 -10 l 482 106 l 422 46 b 279 -14 385 8 331 -14 b 111 167 178 -14 111 57 l 111 517 b 25 606 110 583 90 603 l 25 625 l 228 625 l 228 172 b 326 67 228 114 272 67 b 449 114 368 67 411 83 b 475 188 468 129 475 149 l 475 514 b 372 601 475 583 458 597 l 372 625 l 592 625 l 592 149 b 671 69 593 83 603 72 l 678 69 "},"v":{"ha":694,"x_min":0,"x_max":0,"o":"m 663 604 b 572 496 621 600 613 590 l 394 50 b 356 -19 374 -1 364 -19 b 343 -11 351 -19 346 -17 b 331 17 339 -4 335 6 b 319 46 326 28 322 38 l 153 444 b 26 604 89 588 79 601 l 26 625 l 299 625 l 299 604 b 235 565 250 600 235 590 b 247 514 235 553 239 533 l 389 158 l 526 518 b 535 560 532 532 535 546 b 469 604 535 586 514 600 l 469 625 l 663 625 "},"w":{"ha":1003,"x_min":0,"x_max":0,"o":"m 964 625 l 964 604 b 907 529 936 594 932 588 l 715 49 b 676 -19 693 -7 686 -19 b 643 40 667 -19 664 -12 l 517 368 l 361 35 b 326 -19 344 -3 333 -19 b 290 42 318 -19 307 -1 l 103 517 b 29 604 72 588 61 601 l 29 625 l 279 625 l 279 604 b 215 558 231 599 215 588 b 224 517 215 544 218 531 l 361 154 l 488 431 b 460 508 479 456 469 482 b 364 604 432 583 415 599 l 364 625 l 646 625 l 646 604 b 565 554 581 594 565 585 b 589 472 565 536 565 536 l 706 161 l 831 469 b 854 561 846 506 854 540 b 793 604 854 585 840 594 l 793 625 "},"x":{"ha":694,"x_min":0,"x_max":0,"o":"m 386 21 b 442 54 432 24 442 29 b 433 79 442 64 439 71 l 307 274 l 197 103 b 169 46 178 74 169 56 b 225 21 169 28 185 21 l 225 0 l 24 0 l 24 21 b 125 92 69 25 83 35 l 283 321 l 153 521 b 46 604 110 586 88 604 l 33 604 l 33 625 l 321 625 l 321 604 b 261 574 279 603 261 594 b 297 494 261 560 271 538 b 333 439 300 489 313 471 l 344 422 b 386 483 363 450 379 475 b 438 574 421 526 438 557 b 382 604 438 593 424 601 l 382 625 l 601 625 l 601 604 b 489 543 557 603 515 581 l 374 376 l 551 104 b 665 21 594 43 622 21 l 665 0 l 386 0 "},"y":{"ha":694,"x_min":0,"x_max":0,"o":"m 660 604 b 593 542 626 600 611 586 l 379 -25 b 144 -303 303 -226 239 -303 b 42 -222 85 -303 42 -268 b 101 -161 42 -187 68 -161 b 174 -176 124 -161 149 -167 b 210 -186 189 -183 201 -186 b 279 -125 229 -186 258 -160 b 335 25 303 -82 335 3 b 274 167 335 46 313 97 b 249 219 267 181 265 182 l 90 561 b 19 606 79 585 56 600 l 19 625 l 306 625 l 306 604 b 225 567 246 601 225 592 b 239 514 225 553 231 533 l 399 163 l 533 546 b 539 569 538 556 539 564 b 472 604 539 592 517 604 l 472 625 l 660 625 "},"z":{"ha":617,"x_min":0,"x_max":0,"o":"m 561 0 l 38 0 l 38 21 l 407 583 l 215 583 b 99 461 129 581 110 560 l 74 461 l 78 625 l 560 625 l 560 604 l 186 42 l 378 42 b 556 193 511 46 531 63 l 581 188 "},"{":{"ha":667,"x_min":0,"x_max":0,"o":"m 486 -251 b 257 -57 314 -251 261 -207 l 257 189 b 139 347 256 286 231 321 b 257 504 231 372 256 407 l 257 751 b 486 944 260 899 314 944 l 486 929 b 360 758 392 907 361 864 l 360 525 b 229 346 358 408 332 372 b 360 168 332 321 358 285 l 360 -65 b 486 -236 361 -171 392 -214 "},"|":{"ha":278,"x_min":0,"x_max":0,"o":"m 93 939 l 185 939 l 185 -215 l 93 -215 "},"}":{"ha":667,"x_min":0,"x_max":0,"o":"m 181 944 b 410 750 353 944 406 900 l 410 504 b 528 347 411 407 436 372 b 410 189 436 321 411 286 l 410 -58 b 181 -251 407 -206 353 -251 l 181 -236 b 307 -65 274 -214 306 -171 l 307 168 b 438 347 308 285 335 321 b 307 525 335 372 308 407 l 307 758 b 181 929 306 864 274 907 "},"~":{"ha":751,"x_min":0,"x_max":0,"o":"m 697 376 b 526 258 633 288 590 258 b 315 333 464 258 439 268 b 233 353 292 346 263 353 b 131 282 190 353 167 336 l 56 326 b 226 444 119 415 163 444 b 438 369 289 444 314 435 b 519 350 461 357 490 350 b 622 421 563 350 586 367 "}," ":{"ha":347,"x_min":0,"x_max":0,"o":""},"¡":{"ha":463,"x_min":0,"x_max":0,"o":"m 236 392 l 249 242 b 272 50 254 176 263 113 b 300 -194 289 -49 300 -147 b 226 -303 300 -262 272 -303 b 153 -192 179 -303 153 -264 b 156 -140 153 -175 154 -157 l 218 392 m 228 649 b 303 578 269 649 303 618 b 226 503 303 536 269 503 b 153 579 185 503 153 536 b 228 649 153 619 185 649 "},"¢":{"ha":694,"x_min":0,"x_max":0,"o":"m 494 617 b 599 500 561 590 599 549 b 539 438 599 463 574 438 b 458 510 504 438 483 456 l 318 106 b 400 89 350 93 372 89 b 604 228 482 89 532 124 l 622 217 b 500 40 575 119 549 82 b 357 -12 461 7 410 -12 b 279 0 333 -12 313 -10 l 211 -192 l 164 -192 l 235 17 b 138 99 183 46 163 64 b 74 304 97 153 74 228 b 379 639 74 492 207 639 b 450 632 399 639 417 638 l 511 804 l 560 804 m 435 585 b 369 597 410 594 393 597 b 181 361 256 597 181 503 b 275 136 181 261 207 199 "},"£":{"ha":694,"x_min":0,"x_max":0,"o":"m 478 456 l 308 456 l 310 418 b 311 379 311 397 311 379 b 276 154 311 333 307 306 b 483 106 367 117 415 106 b 640 174 547 106 597 126 b 672 196 654 189 664 196 b 681 190 678 196 681 194 b 621 71 681 165 650 104 b 447 -10 576 19 514 -10 b 247 75 388 -10 342 10 b 111 -11 192 8 160 -11 b 17 75 53 -11 17 22 b 143 181 17 139 67 181 b 207 174 164 181 181 179 b 211 203 210 185 211 193 b 188 410 211 228 203 304 l 185 432 l 182 456 l 32 456 l 32 518 l 181 518 b 171 614 174 554 171 579 b 442 939 171 814 275 939 b 622 810 546 939 622 883 b 553 736 622 767 593 736 b 499 829 511 736 500 756 b 421 901 499 878 472 901 b 289 708 338 901 289 831 b 304 518 289 657 293 611 l 478 518 m 124 131 b 53 79 76 131 53 113 b 110 28 53 49 76 28 b 174 60 138 28 156 36 b 197 106 189 76 197 94 b 124 131 197 117 158 131 "},"¤":{"ha":694,"x_min":0,"x_max":0,"o":"m 106 283 b 49 458 65 342 49 392 b 106 633 49 525 65 578 l -31 769 l 39 836 l 172 703 b 349 757 233 742 282 757 b 522 703 417 757 468 740 l 658 836 l 725 769 l 592 633 b 646 460 632 574 646 528 b 592 283 646 393 632 346 l 725 150 l 658 81 l 522 217 b 349 160 467 178 414 160 b 172 217 283 160 231 176 l 39 81 l -31 150 m 351 668 b 143 458 235 668 143 576 b 349 249 143 343 235 249 b 551 460 461 249 551 342 b 351 668 551 574 461 668 "},"¥":{"ha":694,"x_min":0,"x_max":0,"o":"m 510 0 l 171 0 l 171 26 b 281 167 264 31 279 50 l 281 253 l 39 253 l 39 308 l 281 308 l 281 414 l 271 433 l 39 433 l 39 489 l 239 489 l 107 729 b -57 893 31 867 7 889 l -57 919 l 281 919 l 281 893 b 190 853 215 892 190 882 b 208 790 190 835 197 811 l 372 483 l 528 789 b 547 851 540 813 547 836 b 476 893 547 876 518 893 l 457 893 l 457 919 l 728 919 l 728 893 b 564 744 657 878 615 840 l 436 489 l 639 489 l 639 433 l 408 433 l 399 414 l 399 308 l 639 308 l 639 253 l 399 253 l 399 151 b 510 26 400 53 422 28 "},"¦":{"ha":278,"x_min":0,"x_max":0,"o":"m 93 246 l 185 246 l 185 -212 l 93 -212 m 93 894 l 185 894 l 185 438 l 93 438 "},"§":{"ha":694,"x_min":0,"x_max":0,"o":"m 406 174 b 536 -29 510 83 536 43 b 336 -206 536 -135 457 -206 b 144 -67 228 -206 144 -144 b 219 8 144 -24 176 8 b 286 -50 257 8 286 -17 b 254 -107 286 -69 275 -89 b 239 -128 244 -115 239 -122 b 338 -176 239 -153 286 -176 b 458 -69 411 -176 458 -135 b 335 90 458 -15 425 29 b 97 397 165 207 97 294 b 257 563 97 492 165 563 b 292 561 265 563 278 563 b 153 769 181 653 153 694 b 346 939 153 871 231 939 b 524 803 447 939 524 881 b 453 729 524 757 497 729 b 388 789 414 729 388 754 b 424 850 388 811 401 835 b 435 865 432 857 435 861 b 349 910 435 890 397 910 b 231 811 278 910 231 869 b 278 713 231 775 250 736 l 468 556 b 592 340 549 489 592 414 b 431 174 592 243 525 174 m 265 532 b 171 439 210 532 171 493 b 235 318 171 397 188 365 b 424 203 319 235 371 203 b 519 294 475 203 519 246 b 446 424 519 331 493 376 b 265 532 381 488 308 532 "},"¨":{"ha":463,"x_min":0,"x_max":0,"o":"m 92 865 b 161 796 129 865 161 833 b 92 726 161 757 129 726 b 25 797 54 726 25 757 b 92 865 25 833 56 865 m 368 865 b 438 796 406 865 438 833 b 368 726 438 757 406 726 b 301 797 331 726 301 757 b 368 865 301 833 332 865 "},"©":{"ha":1056,"x_min":0,"x_max":0,"o":"m 536 939 b 1003 458 793 939 1003 724 b 529 -19 1003 190 794 -19 b 53 458 263 -19 53 192 b 536 939 53 729 264 939 m 535 881 b 129 458 311 881 129 692 b 529 39 129 229 311 39 b 926 460 746 39 926 231 b 535 881 926 688 746 881 m 760 553 l 733 553 b 535 701 701 651 635 701 b 325 450 406 701 325 606 b 542 192 325 285 404 192 b 746 296 628 192 689 222 l 771 283 b 518 154 701 192 628 154 b 217 436 347 154 217 276 b 542 731 217 604 356 731 b 668 706 582 731 613 725 b 689 701 674 703 683 701 b 719 731 703 701 711 708 l 746 731 "},"ª":{"ha":383,"x_min":0,"x_max":0,"o":"m 375 589 b 293 547 342 557 325 547 b 231 608 256 547 239 564 b 104 547 185 565 146 547 b 6 642 47 547 6 586 b 36 713 6 669 17 697 b 218 800 74 744 92 753 l 218 842 b 168 900 218 879 200 900 b 106 868 136 900 106 885 b 108 849 106 863 107 856 b 110 838 110 844 110 840 b 67 803 110 819 90 803 b 22 846 42 803 22 821 b 172 939 22 900 85 939 b 318 806 269 939 318 894 l 318 646 b 336 597 318 606 321 597 b 375 614 350 597 361 601 m 219 765 b 93 674 122 731 93 710 b 146 613 93 640 117 613 b 204 628 164 613 181 617 b 219 658 214 638 219 647 "},"«":{"ha":694,"x_min":0,"x_max":0,"o":"m 149 390 b 171 410 157 396 164 403 l 175 413 b 208 442 185 421 196 431 b 293 524 249 478 290 519 b 353 578 317 553 344 578 b 367 564 360 578 367 571 b 292 440 367 546 332 490 b 188 311 246 386 222 357 b 201 293 196 299 197 299 b 365 58 308 157 365 76 b 353 46 365 50 361 46 b 338 54 346 46 343 47 b 101 271 253 138 201 185 l 58 308 m 415 390 b 438 410 424 396 431 403 l 442 413 b 475 442 451 421 463 431 b 560 524 515 478 557 519 b 619 578 583 553 611 578 b 633 564 626 578 633 571 b 558 440 633 546 599 490 b 454 311 513 386 489 357 b 468 293 463 299 464 299 b 632 58 575 157 632 76 b 619 46 632 50 628 46 b 604 54 613 46 610 47 b 368 271 519 138 468 185 l 325 308 "},"¬":{"ha":783,"x_min":0,"x_max":0,"o":"m 743 532 l 743 157 l 651 157 l 651 443 l 43 443 l 43 532 "},"­":{"ha":463,"x_min":0,"x_max":0,"o":"m 396 357 l 396 269 l 54 269 l 54 357 "},"®":{"ha":1056,"x_min":0,"x_max":0,"o":"m 304 722 l 550 722 b 710 594 647 722 710 672 b 600 450 710 528 672 479 l 679 340 b 785 222 718 286 751 250 l 785 211 l 696 211 b 600 321 676 207 640 249 b 528 436 585 349 579 358 l 461 436 l 461 299 b 471 243 461 257 464 247 b 529 232 482 238 486 236 l 529 211 l 304 211 l 304 232 b 363 243 347 236 351 238 b 372 299 369 247 372 257 l 372 633 b 363 690 372 675 369 686 b 304 701 351 696 350 696 m 461 463 l 521 463 b 617 586 582 463 617 507 b 518 696 617 658 583 696 l 461 696 m 529 939 b 1003 451 797 939 1003 726 b 529 -19 1003 192 792 -19 b 53 458 263 -19 53 192 b 529 939 53 726 264 939 m 529 881 b 129 458 311 881 129 689 b 529 39 129 229 311 39 b 926 453 743 39 926 231 b 529 881 926 690 750 881 "},"¯":{"ha":463,"x_min":0,"x_max":0,"o":"m 439 825 l 439 757 l 22 757 l 22 825 "},"°":{"ha":556,"x_min":0,"x_max":0,"o":"m 278 939 b 476 739 390 939 476 851 b 275 542 476 628 388 542 b 79 740 167 542 79 631 b 278 939 79 851 167 939 m 278 892 b 133 740 199 892 133 824 b 276 589 133 658 199 589 b 422 740 357 589 422 657 b 278 892 422 822 357 892 "},"±":{"ha":783,"x_min":0,"x_max":0,"o":"m 51 157 l 733 157 l 733 83 l 51 83 m 356 854 l 429 854 l 429 549 l 733 549 l 733 475 l 429 475 l 429 253 l 356 253 l 356 475 l 51 475 l 51 549 l 356 549 "},"²":{"ha":417,"x_min":0,"x_max":0,"o":"m 360 375 l 8 375 l 8 407 l 144 556 b 257 746 214 632 257 704 b 156 851 257 804 211 851 b 36 754 104 851 67 821 l 1 774 b 67 890 24 838 38 864 b 203 939 99 922 146 939 b 385 792 311 939 385 879 b 268 583 385 724 353 668 l 149 465 l 317 465 b 388 503 356 467 368 472 l 411 493 "},"³":{"ha":417,"x_min":0,"x_max":0,"o":"m 129 679 b 263 793 226 711 263 742 b 185 861 263 835 233 861 b 64 782 135 861 107 843 l 29 807 b 218 939 78 901 132 939 b 368 824 303 939 368 889 b 285 710 368 785 344 753 b 404 553 364 678 404 625 b 136 364 404 444 290 364 b 21 433 63 364 21 389 b 69 485 21 463 42 485 b 126 458 85 485 100 478 b 197 431 157 436 172 431 b 292 525 254 431 292 468 b 235 624 292 568 272 603 b 163 643 214 636 179 646 l 131 639 "},"´":{"ha":463,"x_min":0,"x_max":0,"o":"m 106 704 l 310 910 b 368 942 335 935 347 942 b 417 897 399 942 417 925 b 375 839 417 875 404 857 l 161 704 "},"µ":{"ha":694,"x_min":0,"x_max":0,"o":"m 596 128 b 640 38 596 64 608 38 b 710 76 661 38 676 46 l 710 65 b 579 -14 664 6 632 -14 b 478 111 513 -14 481 24 b 288 -14 422 24 364 -14 b 125 89 217 -14 168 18 b 151 -46 131 38 133 24 b 176 -196 169 -117 176 -156 b 113 -303 176 -267 156 -303 b 49 -206 72 -303 49 -267 b 65 -60 49 -175 56 -115 b 82 75 79 21 82 46 l 82 625 l 204 625 l 204 200 b 321 72 204 121 249 72 b 474 160 386 72 440 103 l 474 625 l 596 625 "},"¶":{"ha":629,"x_min":0,"x_max":0,"o":"m 349 -250 l 257 -250 l 257 379 b 85 425 169 382 131 393 b -12 663 19 471 -12 549 b 278 919 -12 843 74 919 l 643 919 l 643 893 b 521 768 536 883 522 869 l 521 -250 l 429 -250 l 429 889 l 349 889 m 257 889 b 153 858 201 885 178 876 b 93 667 113 829 93 767 b 257 410 93 492 138 422 "},"·":{"ha":347,"x_min":0,"x_max":0,"o":"m 174 431 b 251 351 215 431 251 394 b 172 276 251 310 215 276 b 97 351 132 276 97 311 b 174 431 97 396 132 431 "},"¸":{"ha":463,"x_min":0,"x_max":0,"o":"m 193 0 l 242 0 l 207 -90 b 243 -86 221 -87 229 -86 b 363 -182 318 -86 363 -121 b 189 -299 363 -254 296 -299 b 72 -276 146 -299 113 -292 l 92 -233 b 182 -250 129 -246 153 -250 b 258 -189 229 -250 258 -226 b 185 -139 258 -153 238 -139 b 146 -144 168 -139 157 -140 l 136 -137 "},"¹":{"ha":417,"x_min":0,"x_max":0,"o":"m 344 375 l 79 375 l 79 408 b 153 453 138 411 151 421 l 153 810 b 142 849 153 840 150 849 b 82 831 132 849 132 849 l 82 863 l 246 939 l 265 935 l 265 458 b 344 408 267 422 283 411 "},"º":{"ha":431,"x_min":0,"x_max":0,"o":"m 221 939 b 422 753 339 939 422 863 b 210 547 422 636 332 547 b 8 740 93 547 8 628 b 221 939 8 860 93 939 m 208 893 b 110 790 149 893 110 853 b 144 640 110 736 122 679 b 222 593 161 610 188 593 b 321 714 286 593 321 636 b 208 893 321 819 275 893 "},"»":{"ha":694,"x_min":0,"x_max":0,"o":"m 593 271 b 357 54 494 186 439 135 b 342 46 351 47 349 46 b 329 58 333 46 329 50 b 493 293 329 76 386 157 l 501 303 l 507 311 b 403 440 472 357 449 386 b 328 564 363 490 328 546 b 342 578 328 571 335 578 b 401 524 350 578 378 553 b 486 442 404 519 446 478 b 519 413 501 429 513 419 b 546 390 522 411 531 403 l 636 308 m 326 271 b 90 54 228 186 172 135 b 75 46 85 47 82 46 b 63 58 67 46 63 50 b 226 293 63 76 119 157 l 235 303 l 240 311 b 136 440 206 357 182 386 b 61 564 96 490 61 546 b 75 578 61 571 68 578 b 135 524 83 578 111 553 b 219 442 138 519 179 478 b 253 413 235 429 246 419 b 279 390 256 411 264 403 l 369 308 "},"¼":{"ha":1042,"x_min":0,"x_max":0,"o":"m 300 385 l 53 385 l 53 400 b 126 453 107 403 125 417 l 126 810 b 106 858 126 847 122 858 b 56 844 96 858 93 857 l 56 857 l 211 929 l 221 928 l 221 458 b 300 400 222 418 242 404 m 989 132 l 918 132 l 918 0 l 826 0 l 826 132 l 589 132 l 589 196 l 858 554 l 918 554 l 918 201 l 989 201 m 824 438 l 649 201 l 824 201 m 251 -19 l 183 -19 l 813 939 l 876 939 "},"½":{"ha":1042,"x_min":0,"x_max":0,"o":"m 300 385 l 53 385 l 53 400 b 126 453 107 403 125 417 l 126 810 b 106 858 126 847 122 858 b 56 844 96 858 93 857 l 56 857 l 211 929 l 221 928 l 221 458 b 300 400 222 418 242 404 m 208 -19 l 140 -19 l 769 939 l 833 939 m 974 8 l 638 8 l 638 28 l 772 174 b 888 382 851 261 888 325 b 778 485 888 443 843 485 b 653 392 724 485 682 454 l 633 403 b 693 508 653 460 668 485 b 815 554 724 538 769 554 b 985 408 911 554 985 490 b 882 214 985 346 951 283 l 747 81 l 938 81 b 1011 115 978 82 993 89 l 1019 113 "},"¾":{"ha":1042,"x_min":0,"x_max":0,"o":"m 135 679 b 268 797 233 714 268 744 b 183 871 268 842 236 871 b 63 794 132 871 104 853 l 38 813 b 61 853 53 839 54 842 b 217 935 96 906 153 935 b 360 828 297 935 360 888 b 269 713 360 788 340 764 b 338 676 314 694 321 690 b 394 560 374 647 394 604 b 135 378 394 456 285 378 b 28 440 67 378 28 400 b 69 485 28 465 46 485 b 122 460 83 485 97 478 b 196 431 153 438 169 431 b 296 531 256 431 296 471 b 171 656 296 597 238 656 b 161 654 169 656 165 656 l 136 651 m 989 132 l 918 132 l 918 0 l 826 0 l 826 132 l 589 132 l 589 196 l 858 554 l 918 554 l 918 201 l 989 201 m 824 438 l 649 201 l 824 201 m 271 -19 l 203 -19 l 832 939 l 896 939 "},"¿":{"ha":617,"x_min":0,"x_max":0,"o":"m 314 408 b 272 211 313 347 299 278 l 233 122 b 182 -94 200 46 182 -31 b 333 -261 182 -187 249 -261 b 464 -175 400 -261 464 -219 b 440 -132 464 -162 457 -151 b 411 -72 419 -108 411 -92 b 468 -15 411 -37 433 -15 b 535 -101 511 -15 535 -44 b 310 -303 535 -217 438 -303 b 104 -222 233 -303 151 -271 b 54 -87 72 -190 54 -140 b 117 88 54 -31 72 19 b 200 194 136 117 136 117 b 290 408 250 258 275 314 m 301 647 b 376 576 344 647 376 617 b 300 501 376 535 343 501 b 226 578 258 501 226 533 b 301 647 226 618 257 647 "},"À":{"ha":1003,"x_min":0,"x_max":0,"o":"m 981 0 l 626 0 l 626 26 b 724 74 700 28 724 39 b 697 167 724 93 714 129 l 640 300 l 276 300 l 213 138 b 201 83 206 119 201 100 b 296 26 201 43 229 26 l 296 0 l 21 0 l 21 26 b 193 254 88 29 104 51 l 482 936 l 510 936 l 856 147 b 981 26 904 44 918 31 m 621 357 l 460 739 l 300 357 m 551 999 l 338 1133 b 297 1193 311 1150 297 1171 b 344 1236 297 1219 315 1236 b 403 1204 365 1236 378 1229 l 607 999 "},"Á":{"ha":1003,"x_min":0,"x_max":0,"o":"m 981 0 l 626 0 l 626 26 b 724 74 700 28 724 39 b 697 167 724 93 714 129 l 640 300 l 276 300 l 213 138 b 201 83 206 119 201 100 b 296 26 201 43 229 26 l 296 0 l 21 0 l 21 26 b 193 254 88 29 104 51 l 482 936 l 510 936 l 856 147 b 981 26 904 44 918 31 m 621 357 l 460 739 l 300 357 m 393 999 l 597 1204 b 656 1236 622 1229 635 1236 b 704 1192 686 1236 704 1219 b 663 1133 704 1169 692 1151 l 449 999 "},"Â":{"ha":1003,"x_min":0,"x_max":0,"o":"m 981 0 l 626 0 l 626 26 b 724 74 700 28 724 39 b 697 167 724 93 714 129 l 640 300 l 276 300 l 213 138 b 201 83 206 119 201 100 b 296 26 201 43 229 26 l 296 0 l 21 0 l 21 26 b 193 254 88 29 104 51 l 482 936 l 510 936 l 856 147 b 981 26 904 44 918 31 m 621 357 l 460 739 l 300 357 m 664 999 l 494 1142 l 326 999 l 279 999 l 451 1231 l 538 1231 l 711 999 "},"Ã":{"ha":1003,"x_min":0,"x_max":0,"o":"m 981 0 l 626 0 l 626 26 b 724 74 700 28 724 39 b 697 167 724 93 714 129 l 640 300 l 276 300 l 213 138 b 201 83 206 119 201 100 b 296 26 201 43 229 26 l 296 0 l 21 0 l 21 26 b 193 254 88 29 104 51 l 482 936 l 510 936 l 856 147 b 981 26 904 44 918 31 m 621 357 l 460 739 l 300 357 m 731 1181 b 585 1033 701 1075 661 1033 b 472 1067 550 1033 529 1039 l 440 1082 b 383 1097 419 1092 400 1097 b 313 1033 351 1097 328 1076 l 272 1033 b 413 1174 293 1124 343 1174 b 510 1149 443 1174 478 1165 l 543 1132 b 617 1111 569 1119 596 1111 b 690 1181 649 1111 667 1128 "},"Ä":{"ha":1003,"x_min":0,"x_max":0,"o":"m 981 0 l 626 0 l 626 26 b 724 74 700 28 724 39 b 697 167 724 93 714 129 l 640 300 l 276 300 l 213 138 b 201 83 206 119 201 100 b 296 26 201 43 229 26 l 296 0 l 21 0 l 21 26 b 193 254 88 29 104 51 l 482 936 l 510 936 l 856 147 b 981 26 904 44 918 31 m 621 357 l 460 739 l 300 357 m 353 1160 b 422 1090 390 1160 422 1128 b 353 1021 422 1051 390 1021 b 286 1092 315 1021 286 1051 b 353 1160 286 1128 317 1160 m 629 1160 b 699 1090 667 1160 699 1128 b 629 1021 699 1051 667 1021 b 563 1092 592 1021 563 1051 b 629 1160 563 1128 593 1160 "},"Å":{"ha":1003,"x_min":0,"x_max":0,"o":"m 981 0 l 626 0 l 626 26 b 724 74 700 28 724 39 b 697 167 724 93 714 129 l 640 300 l 276 300 l 213 138 b 201 83 206 119 201 100 b 296 26 201 43 229 26 l 296 0 l 21 0 l 21 26 b 193 254 88 29 104 51 l 482 936 l 510 936 l 856 147 b 981 26 904 44 918 31 m 621 357 l 460 739 l 300 357 m 488 1271 b 626 1132 564 1271 626 1208 b 488 994 626 1056 564 994 b 350 1133 410 994 350 1056 b 488 1271 350 1208 413 1271 m 489 1224 b 397 1133 439 1224 397 1183 b 486 1042 397 1082 438 1042 b 579 1132 539 1042 579 1082 b 489 1224 579 1182 538 1224 "},"Æ":{"ha":1235,"x_min":0,"x_max":0,"o":"m 1101 724 b 849 869 1085 850 1050 869 l 728 869 b 690 828 700 869 692 860 l 690 508 l 844 508 b 1028 643 990 511 1018 532 l 1057 643 l 1057 318 l 1028 318 b 892 457 1018 425 990 454 l 690 457 l 690 126 b 701 65 690 93 694 69 b 786 53 707 58 743 53 l 892 53 b 1165 233 1047 56 1085 81 l 1199 233 l 1138 0 l 429 0 l 429 26 l 453 29 b 553 150 540 42 550 54 l 553 361 l 308 361 l 269 288 b 181 68 213 179 181 99 b 275 26 181 47 215 32 l 276 26 l 276 0 l 0 0 l 0 26 b 122 135 60 35 76 50 l 463 807 b 475 846 471 822 475 838 b 350 892 475 876 440 889 l 350 919 l 1133 919 l 1133 724 m 553 415 l 553 858 l 332 415 "},"Ç":{"ha":926,"x_min":0,"x_max":0,"o":"m 439 -90 b 475 -86 453 -87 461 -86 b 594 -182 550 -86 594 -121 b 421 -299 594 -254 528 -299 b 304 -276 378 -299 344 -292 l 324 -233 b 414 -250 361 -246 385 -250 b 490 -189 461 -250 490 -226 b 417 -139 490 -153 469 -139 b 378 -144 400 -139 389 -140 l 368 -137 l 419 -14 b 39 451 188 19 39 200 b 189 819 39 606 92 733 b 504 939 276 896 390 939 b 707 904 569 939 639 928 b 761 893 728 897 749 893 b 819 939 789 893 811 910 l 849 939 l 861 626 l 829 626 b 738 800 803 717 782 756 b 531 883 682 854 610 883 b 200 469 329 883 200 722 b 319 122 200 315 243 190 b 544 42 379 69 457 42 b 854 182 660 42 751 83 l 879 157 b 500 -19 796 46 657 -19 b 467 -18 489 -19 479 -19 "},"È":{"ha":849,"x_min":0,"x_max":0,"o":"m 767 0 l 17 0 l 17 26 b 138 151 117 32 135 51 l 138 768 b 17 893 135 868 118 886 l 17 919 l 754 919 l 758 721 l 724 721 b 513 867 701 844 674 864 l 325 867 b 279 819 286 867 281 861 l 279 511 l 493 511 b 646 643 610 514 629 531 l 678 643 l 678 321 l 646 321 b 493 454 628 435 610 451 l 279 454 l 279 111 b 425 51 279 57 281 56 l 463 51 b 790 235 661 53 724 88 l 829 235 m 475 999 l 261 1133 b 221 1193 235 1149 221 1171 b 268 1236 221 1219 239 1236 b 326 1204 289 1236 300 1229 l 531 999 "},"É":{"ha":849,"x_min":0,"x_max":0,"o":"m 767 0 l 17 0 l 17 26 b 138 151 117 32 135 51 l 138 768 b 17 893 135 868 118 886 l 17 919 l 754 919 l 758 721 l 724 721 b 513 867 701 844 674 864 l 325 867 b 279 819 286 867 281 861 l 279 511 l 493 511 b 646 643 610 514 629 531 l 678 643 l 678 321 l 646 321 b 493 454 628 435 610 451 l 279 454 l 279 111 b 425 51 279 57 281 56 l 463 51 b 790 235 661 53 724 88 l 829 235 m 324 999 l 528 1204 b 586 1236 553 1229 565 1236 b 635 1192 617 1236 635 1219 b 593 1133 635 1169 622 1151 l 379 999 "},"Ê":{"ha":849,"x_min":0,"x_max":0,"o":"m 767 0 l 17 0 l 17 26 b 138 151 117 32 135 51 l 138 768 b 17 893 135 868 118 886 l 17 919 l 754 919 l 758 721 l 724 721 b 513 867 701 844 674 864 l 325 867 b 279 819 286 867 281 861 l 279 511 l 493 511 b 646 643 610 514 629 531 l 678 643 l 678 321 l 646 321 b 493 454 628 435 610 451 l 279 454 l 279 111 b 425 51 279 57 281 56 l 463 51 b 790 235 661 53 724 88 l 829 235 m 594 999 l 425 1142 l 257 999 l 210 999 l 382 1231 l 468 1231 l 642 999 "},"Ë":{"ha":849,"x_min":0,"x_max":0,"o":"m 767 0 l 17 0 l 17 26 b 138 151 117 32 135 51 l 138 768 b 17 893 135 868 118 886 l 17 919 l 754 919 l 758 721 l 724 721 b 513 867 701 844 674 864 l 325 867 b 279 819 286 867 281 861 l 279 511 l 493 511 b 646 643 610 514 629 531 l 678 643 l 678 321 l 646 321 b 493 454 628 435 610 451 l 279 454 l 279 111 b 425 51 279 57 281 56 l 463 51 b 790 235 661 53 724 88 l 829 235 m 286 1160 b 356 1090 324 1160 356 1128 b 286 1021 356 1051 324 1021 b 219 1092 249 1021 219 1051 b 286 1160 219 1128 250 1160 m 563 1160 b 632 1090 600 1160 632 1128 b 563 1021 632 1051 600 1021 b 496 1092 525 1021 496 1051 b 563 1160 496 1128 526 1160 "},"Ì":{"ha":463,"x_min":0,"x_max":0,"o":"m 25 26 b 160 151 142 31 158 46 l 160 768 b 25 893 158 872 143 886 l 25 919 l 438 919 l 438 893 b 301 768 322 889 304 872 l 301 151 b 438 26 304 49 324 29 l 438 0 l 25 0 m 282 999 l 68 1133 b 28 1193 42 1149 28 1171 b 75 1236 28 1219 46 1236 b 133 1204 96 1236 107 1229 l 338 999 "},"Í":{"ha":463,"x_min":0,"x_max":0,"o":"m 25 26 b 160 151 142 31 158 46 l 160 768 b 25 893 158 872 143 886 l 25 919 l 438 919 l 438 893 b 301 768 322 889 304 872 l 301 151 b 438 26 304 49 324 29 l 438 0 l 25 0 m 129 999 l 333 1204 b 392 1236 358 1229 371 1236 b 440 1192 422 1236 440 1219 b 399 1133 440 1169 428 1151 l 185 999 "},"Î":{"ha":463,"x_min":0,"x_max":0,"o":"m 25 26 b 160 151 142 31 158 46 l 160 768 b 25 893 158 872 143 886 l 25 919 l 438 919 l 438 893 b 301 768 322 889 304 872 l 301 151 b 438 26 304 49 324 29 l 438 0 l 25 0 m 400 999 l 231 1142 l 63 999 l 15 999 l 188 1231 l 274 1231 l 447 999 "},"Ï":{"ha":463,"x_min":0,"x_max":0,"o":"m 25 26 b 160 151 142 31 158 46 l 160 768 b 25 893 158 872 143 886 l 25 919 l 438 919 l 438 893 b 301 768 322 889 304 872 l 301 151 b 438 26 304 49 324 29 l 438 0 l 25 0 m 92 1160 b 161 1090 129 1160 161 1128 b 92 1021 161 1051 129 1021 b 25 1092 54 1021 25 1051 b 92 1160 25 1128 56 1160 m 368 1160 b 438 1090 406 1160 438 1128 b 368 1021 438 1051 406 1021 b 301 1092 331 1021 301 1051 b 368 1160 301 1128 332 1160 "},"Ð":{"ha":1003,"x_min":0,"x_max":0,"o":"m 22 919 l 397 919 b 833 774 588 919 739 869 b 951 464 911 697 951 589 b 810 124 951 329 900 206 b 417 0 724 46 578 0 l 22 0 l 22 26 b 144 151 126 33 143 50 l 144 438 l 29 438 l 29 499 l 144 499 l 144 768 b 22 893 143 872 132 883 m 489 438 l 286 438 l 286 108 b 358 51 286 64 303 51 b 631 108 479 51 560 68 b 800 454 743 174 800 290 b 635 799 800 604 743 724 b 356 868 568 846 479 868 b 286 814 300 868 286 857 l 286 499 l 489 499 "},"Ñ":{"ha":1003,"x_min":0,"x_max":0,"o":"m 982 893 b 850 715 872 883 854 860 l 850 -15 l 826 -15 l 213 749 l 213 204 b 343 26 215 61 236 32 l 343 0 l 17 0 l 17 26 b 151 204 131 33 149 57 l 151 817 b 17 893 96 882 76 893 l 17 919 l 254 919 l 789 247 l 789 715 b 656 893 785 863 767 886 l 656 919 l 982 919 m 731 1181 b 585 1033 701 1075 661 1033 b 472 1067 550 1033 529 1039 l 440 1082 b 383 1097 419 1092 400 1097 b 313 1033 351 1097 328 1076 l 272 1033 b 413 1174 293 1124 343 1174 b 510 1149 443 1174 478 1165 l 543 1132 b 617 1111 569 1119 596 1111 b 690 1181 649 1111 667 1128 "},"Ò":{"ha":1003,"x_min":0,"x_max":0,"o":"m 501 939 b 839 793 635 939 751 889 b 956 454 915 711 956 592 b 493 -19 956 174 767 -19 b 167 122 371 -19 247 35 b 47 460 92 201 47 329 b 501 939 47 740 236 939 m 501 889 b 303 799 425 889 357 858 b 206 457 244 733 206 599 b 322 99 206 303 251 163 b 499 31 372 56 435 31 b 683 104 572 31 635 56 b 751 206 715 136 739 171 b 797 456 779 278 797 374 b 679 819 797 621 754 751 b 501 889 629 864 565 889 m 551 999 l 338 1133 b 297 1193 311 1150 297 1171 b 344 1236 297 1219 315 1236 b 403 1204 365 1236 378 1229 l 607 999 "},"Ó":{"ha":1003,"x_min":0,"x_max":0,"o":"m 501 939 b 839 793 635 939 751 889 b 956 454 915 711 956 592 b 493 -19 956 174 767 -19 b 167 122 371 -19 247 35 b 47 460 92 201 47 329 b 501 939 47 740 236 939 m 501 889 b 303 799 425 889 357 858 b 206 457 244 733 206 599 b 322 99 206 303 251 163 b 499 31 372 56 435 31 b 683 104 572 31 635 56 b 751 206 715 136 739 171 b 797 456 779 278 797 374 b 679 819 797 621 754 751 b 501 889 629 864 565 889 m 400 999 l 604 1204 b 663 1236 629 1229 642 1236 b 711 1192 693 1236 711 1219 b 669 1133 711 1169 699 1151 l 456 999 "},"Ô":{"ha":1003,"x_min":0,"x_max":0,"o":"m 501 939 b 839 793 635 939 751 889 b 956 454 915 711 956 592 b 493 -19 956 174 767 -19 b 167 122 371 -19 247 35 b 47 460 92 201 47 329 b 501 939 47 740 236 939 m 501 889 b 303 799 425 889 357 858 b 206 457 244 733 206 599 b 322 99 206 303 251 163 b 499 31 372 56 435 31 b 683 104 572 31 635 56 b 751 206 715 136 739 171 b 797 456 779 278 797 374 b 679 819 797 621 754 751 b 501 889 629 864 565 889 m 671 999 l 501 1142 l 333 999 l 286 999 l 458 1231 l 544 1231 l 718 999 "},"Õ":{"ha":1003,"x_min":0,"x_max":0,"o":"m 501 939 b 839 793 635 939 751 889 b 956 454 915 711 956 592 b 493 -19 956 174 767 -19 b 167 122 371 -19 247 35 b 47 460 92 201 47 329 b 501 939 47 740 236 939 m 501 889 b 303 799 425 889 357 858 b 206 457 244 733 206 599 b 322 99 206 303 251 163 b 499 31 372 56 435 31 b 683 104 572 31 635 56 b 751 206 715 136 739 171 b 797 456 779 278 797 374 b 679 819 797 621 754 751 b 501 889 629 864 565 889 m 731 1181 b 585 1033 701 1075 661 1033 b 472 1067 550 1033 529 1039 l 440 1082 b 383 1097 419 1092 400 1097 b 313 1033 351 1097 328 1076 l 272 1033 b 413 1174 293 1124 343 1174 b 510 1149 443 1174 478 1165 l 543 1132 b 617 1111 569 1119 596 1111 b 690 1181 649 1111 667 1128 "},"Ö":{"ha":1003,"x_min":0,"x_max":0,"o":"m 501 939 b 839 793 635 939 751 889 b 956 454 915 711 956 592 b 493 -19 956 174 767 -19 b 167 122 371 -19 247 35 b 47 460 92 201 47 329 b 501 939 47 740 236 939 m 501 889 b 303 799 425 889 357 858 b 206 457 244 733 206 599 b 322 99 206 303 251 163 b 499 31 372 56 435 31 b 683 104 572 31 635 56 b 751 206 715 136 739 171 b 797 456 779 278 797 374 b 679 819 797 621 754 751 b 501 889 629 864 565 889 m 363 1160 b 432 1090 400 1160 432 1128 b 363 1021 432 1051 400 1021 b 296 1092 325 1021 296 1051 b 363 1160 296 1128 326 1160 m 639 1160 b 708 1090 676 1160 708 1128 b 639 1021 708 1051 676 1021 b 572 1092 601 1021 572 1051 b 639 1160 572 1128 603 1160 "},"×":{"ha":783,"x_min":0,"x_max":0,"o":"m 65 697 l 119 751 l 392 478 l 665 751 l 718 697 l 444 425 l 718 151 l 665 99 l 392 372 l 119 99 l 65 151 l 338 425 "},"Ø":{"ha":1003,"x_min":0,"x_max":0,"o":"m 792 839 b 897 710 849 786 872 758 b 956 461 935 640 956 550 b 499 -19 956 176 769 -19 b 256 50 406 -19 342 -1 l 146 -111 l 78 -111 l 210 82 b 104 211 151 135 129 163 b 47 458 68 281 47 369 b 503 939 47 740 235 939 b 746 871 594 939 657 921 l 846 1019 l 914 1019 m 304 122 b 501 31 364 57 421 31 b 797 458 685 31 797 193 b 732 750 797 582 779 660 m 697 799 b 501 889 636 863 579 889 b 206 458 319 889 206 724 b 269 171 206 336 222 260 "},"Ù":{"ha":1003,"x_min":0,"x_max":0,"o":"m 979 893 b 849 715 867 881 851 861 l 849 353 b 803 124 849 246 836 182 b 493 -19 749 29 644 -19 b 144 335 257 -19 144 94 l 144 768 b 19 893 143 871 129 885 l 19 919 l 413 919 l 413 893 b 286 768 301 883 288 869 l 286 324 b 321 140 286 236 296 185 b 525 42 358 75 426 42 b 756 151 629 42 718 85 b 788 340 778 193 788 246 l 788 715 b 657 893 785 858 764 886 l 657 919 l 979 919 m 576 999 l 363 1133 b 322 1193 336 1149 322 1171 b 369 1236 322 1219 340 1236 b 428 1204 390 1236 401 1229 l 632 999 "},"Ú":{"ha":1003,"x_min":0,"x_max":0,"o":"m 979 893 b 849 715 867 881 851 861 l 849 353 b 803 124 849 246 836 182 b 493 -19 749 29 644 -19 b 144 335 257 -19 144 94 l 144 768 b 19 893 143 871 129 885 l 19 919 l 413 919 l 413 893 b 286 768 301 883 288 869 l 286 324 b 321 140 286 236 296 185 b 525 42 358 75 426 42 b 756 151 629 42 718 85 b 788 340 778 193 788 246 l 788 715 b 657 893 785 858 764 886 l 657 919 l 979 919 m 435 999 l 639 1204 b 697 1236 664 1229 676 1236 b 746 1192 728 1236 746 1219 b 704 1133 746 1169 733 1151 l 490 999 "},"Û":{"ha":1003,"x_min":0,"x_max":0,"o":"m 979 893 b 849 715 867 881 851 861 l 849 353 b 803 124 849 246 836 182 b 493 -19 749 29 644 -19 b 144 335 257 -19 144 94 l 144 768 b 19 893 143 871 129 885 l 19 919 l 413 919 l 413 893 b 286 768 301 883 288 869 l 286 324 b 321 140 286 236 296 185 b 525 42 358 75 426 42 b 756 151 629 42 718 85 b 788 340 778 193 788 246 l 788 715 b 657 893 785 858 764 886 l 657 919 l 979 919 m 697 999 l 528 1142 l 360 999 l 313 999 l 485 1231 l 571 1231 l 744 999 "},"Ü":{"ha":1003,"x_min":0,"x_max":0,"o":"m 979 893 b 849 715 867 881 851 861 l 849 353 b 803 124 849 246 836 182 b 493 -19 749 29 644 -19 b 144 335 257 -19 144 94 l 144 768 b 19 893 143 871 129 885 l 19 919 l 413 919 l 413 893 b 286 768 301 883 288 869 l 286 324 b 321 140 286 236 296 185 b 525 42 358 75 426 42 b 756 151 629 42 718 85 b 788 340 778 193 788 246 l 788 715 b 657 893 785 858 764 886 l 657 919 l 979 919 m 388 1160 b 457 1090 425 1160 457 1128 b 388 1021 457 1051 425 1021 b 321 1092 350 1021 321 1051 b 388 1160 321 1128 351 1160 m 664 1160 b 733 1090 701 1160 733 1128 b 664 1021 733 1051 701 1021 b 597 1092 626 1021 597 1051 b 664 1160 597 1128 628 1160 "},"Ý":{"ha":1003,"x_min":0,"x_max":0,"o":"m 976 893 b 785 735 906 888 869 857 l 579 421 l 579 151 b 722 26 581 44 599 29 l 722 0 l 297 0 l 297 26 b 438 167 424 32 436 44 l 438 408 l 256 675 b 31 893 117 871 97 890 l 31 919 l 419 919 l 419 893 b 385 892 404 892 390 892 b 321 851 340 889 321 878 b 344 790 321 836 329 813 l 550 482 l 749 796 b 768 847 763 817 768 833 b 672 893 768 881 744 892 l 672 919 l 976 919 m 481 999 l 685 1204 b 743 1236 710 1229 722 1236 b 792 1192 774 1236 792 1219 b 750 1133 792 1169 779 1151 l 536 999 "},"Þ":{"ha":772,"x_min":0,"x_max":0,"o":"m 411 0 l 22 0 l 22 26 b 139 167 128 36 138 49 l 139 768 b 22 893 138 869 125 882 l 22 919 l 407 919 l 407 893 b 281 739 293 883 279 865 l 392 739 b 753 488 614 739 753 642 b 619 267 753 396 701 311 b 376 219 560 233 486 219 b 281 224 340 219 317 221 l 281 151 b 411 26 282 49 301 29 m 281 279 b 360 275 311 276 331 275 b 601 479 519 275 601 344 b 325 686 601 622 517 686 b 281 640 289 686 281 676 "},"ß":{"ha":694,"x_min":0,"x_max":0,"o":"m 17 21 b 101 117 86 25 99 40 l 101 631 b 143 842 101 728 114 790 b 349 949 183 913 254 949 b 585 738 493 949 585 867 b 394 524 585 638 543 592 b 564 453 479 507 519 492 b 650 258 619 406 650 338 b 401 -12 650 106 542 -12 b 267 89 322 -12 267 29 b 329 156 267 126 293 156 b 388 100 360 156 385 132 l 390 69 b 431 28 393 39 404 28 b 519 208 489 28 519 90 b 336 496 519 396 458 492 b 292 519 304 497 292 504 b 332 540 292 532 303 538 b 464 718 422 550 464 607 b 338 911 464 839 417 911 b 218 763 264 911 218 853 l 218 0 l 17 0 "},"à":{"ha":617,"x_min":0,"x_max":0,"o":"m 614 56 b 489 -14 565 3 536 -14 b 400 88 432 -14 407 14 b 197 -14 315 15 258 -14 b 51 135 113 -14 51 47 b 101 256 51 181 71 228 b 399 406 161 308 185 319 l 399 490 b 293 606 399 565 361 606 b 193 538 238 606 193 575 b 197 504 193 528 194 517 b 200 482 199 494 200 488 b 138 424 200 451 171 424 b 78 483 104 424 78 451 b 311 639 78 571 181 639 b 483 563 393 639 453 613 b 511 417 504 529 511 489 l 511 146 b 553 65 511 85 521 65 b 614 92 574 65 590 72 m 399 372 b 174 179 236 315 175 263 l 174 174 b 261 67 174 114 213 67 b 363 97 290 67 328 78 b 399 171 392 114 399 129 m 401 704 l 188 839 b 147 899 161 856 147 876 b 194 942 147 925 165 942 b 253 910 215 942 228 935 l 457 704 "},"á":{"ha":617,"x_min":0,"x_max":0,"o":"m 614 56 b 489 -14 565 3 536 -14 b 400 88 432 -14 407 14 b 197 -14 315 15 258 -14 b 51 135 113 -14 51 47 b 101 256 51 181 71 228 b 399 406 161 308 185 319 l 399 490 b 293 606 399 565 361 606 b 193 538 238 606 193 575 b 197 504 193 528 194 517 b 200 482 199 494 200 488 b 138 424 200 451 171 424 b 78 483 104 424 78 451 b 311 639 78 571 181 639 b 483 563 393 639 453 613 b 511 417 504 529 511 489 l 511 146 b 553 65 511 85 521 65 b 614 92 574 65 590 72 m 399 372 b 174 179 236 315 175 263 l 174 174 b 261 67 174 114 213 67 b 363 97 290 67 328 78 b 399 171 392 114 399 129 m 171 704 l 375 910 b 433 942 400 935 413 942 b 482 897 464 942 482 925 b 440 839 482 875 469 857 l 226 704 "},"â":{"ha":617,"x_min":0,"x_max":0,"o":"m 614 56 b 489 -14 565 3 536 -14 b 400 88 432 -14 407 14 b 197 -14 315 15 258 -14 b 51 135 113 -14 51 47 b 101 256 51 181 71 228 b 399 406 161 308 185 319 l 399 490 b 293 606 399 565 361 606 b 193 538 238 606 193 575 b 197 504 193 528 194 517 b 200 482 199 494 200 488 b 138 424 200 451 171 424 b 78 483 104 424 78 451 b 311 639 78 571 181 639 b 483 563 393 639 453 613 b 511 417 504 529 511 489 l 511 146 b 553 65 511 85 521 65 b 614 92 574 65 590 72 m 399 372 b 174 179 236 315 175 263 l 174 174 b 261 67 174 114 213 67 b 363 97 290 67 328 78 b 399 171 392 114 399 129 m 478 704 l 308 847 l 140 704 l 93 704 l 265 936 l 351 936 l 525 704 "},"ã":{"ha":617,"x_min":0,"x_max":0,"o":"m 614 56 b 489 -14 565 3 536 -14 b 400 88 432 -14 407 14 b 197 -14 315 15 258 -14 b 51 135 113 -14 51 47 b 101 256 51 181 71 228 b 399 406 161 308 185 319 l 399 490 b 293 606 399 565 361 606 b 193 538 238 606 193 575 b 197 504 193 528 194 517 b 200 482 199 494 200 488 b 138 424 200 451 171 424 b 78 483 104 424 78 451 b 311 639 78 571 181 639 b 483 563 393 639 453 613 b 511 417 504 529 511 489 l 511 146 b 553 65 511 85 521 65 b 614 92 574 65 590 72 m 399 372 b 174 179 236 315 175 263 l 174 174 b 261 67 174 114 213 67 b 363 97 290 67 328 78 b 399 171 392 114 399 129 m 538 886 b 390 739 508 781 468 739 b 279 772 356 739 336 744 l 247 788 b 190 803 226 797 206 803 b 119 739 157 803 135 782 l 79 739 b 219 879 100 829 150 879 b 317 854 250 879 283 871 l 350 838 b 422 817 375 825 403 817 b 497 886 454 817 472 833 "},"ä":{"ha":617,"x_min":0,"x_max":0,"o":"m 614 56 b 489 -14 565 3 536 -14 b 400 88 432 -14 407 14 b 197 -14 315 15 258 -14 b 51 135 113 -14 51 47 b 101 256 51 181 71 228 b 399 406 161 308 185 319 l 399 490 b 293 606 399 565 361 606 b 193 538 238 606 193 575 b 197 504 193 528 194 517 b 200 482 199 494 200 488 b 138 424 200 451 171 424 b 78 483 104 424 78 451 b 311 639 78 571 181 639 b 483 563 393 639 453 613 b 511 417 504 529 511 489 l 511 146 b 553 65 511 85 521 65 b 614 92 574 65 590 72 m 399 372 b 174 179 236 315 175 263 l 174 174 b 261 67 174 114 213 67 b 363 97 290 67 328 78 b 399 171 392 114 399 129 m 169 865 b 239 796 207 865 239 833 b 169 726 239 757 207 726 b 103 797 132 726 103 757 b 169 865 103 833 133 865 m 446 865 b 515 796 483 865 515 833 b 446 726 515 757 483 726 b 379 797 408 726 379 757 b 446 865 379 833 410 865 "},"å":{"ha":617,"x_min":0,"x_max":0,"o":"m 614 56 b 489 -14 565 3 536 -14 b 400 88 432 -14 407 14 b 197 -14 315 15 258 -14 b 51 135 113 -14 51 47 b 101 256 51 181 71 228 b 399 406 161 308 185 319 l 399 490 b 293 606 399 565 361 606 b 193 538 238 606 193 575 b 197 504 193 528 194 517 b 200 482 199 494 200 488 b 138 424 200 451 171 424 b 78 483 104 424 78 451 b 311 639 78 571 181 639 b 483 563 393 639 453 613 b 511 417 504 529 511 489 l 511 146 b 553 65 511 85 521 65 b 614 92 574 65 590 72 m 399 372 b 174 179 236 315 175 263 l 174 174 b 261 67 174 114 213 67 b 363 97 290 67 328 78 b 399 171 392 114 399 129 m 308 1003 b 447 864 385 1003 447 940 b 308 726 447 788 385 726 b 171 865 231 726 171 788 b 308 1003 171 940 233 1003 m 310 956 b 218 865 260 956 218 915 b 307 774 218 814 258 774 b 400 864 360 774 400 814 b 310 956 400 914 358 956 "},"æ":{"ha":926,"x_min":0,"x_max":0,"o":"m 878 207 b 775 53 839 125 814 86 b 604 -14 726 8 668 -14 b 425 88 524 -14 472 15 b 214 -14 331 8 283 -14 b 53 139 119 -14 53 49 b 260 340 53 222 111 279 l 379 390 l 382 478 b 365 575 382 510 375 553 b 296 606 356 594 329 606 b 201 536 236 606 204 582 l 201 528 l 203 513 b 204 489 204 504 204 494 b 144 422 204 446 183 422 b 83 489 107 422 83 447 b 304 639 83 574 179 639 b 468 576 374 639 414 624 b 633 639 531 625 568 639 b 856 385 774 639 839 564 l 492 385 b 529 149 492 246 499 203 b 661 79 551 107 604 79 b 861 214 740 79 794 115 m 379 351 b 174 174 211 290 174 257 b 267 53 174 107 215 53 b 407 122 317 53 407 97 b 406 126 407 124 407 125 b 381 279 390 176 382 228 m 724 426 b 614 599 721 549 689 599 b 493 426 535 599 500 549 "},"ç":{"ha":617,"x_min":0,"x_max":0,"o":"m 285 -76 b 322 -74 299 -75 308 -74 b 440 -153 396 -74 440 -103 b 267 -250 440 -212 374 -250 b 150 -231 224 -250 190 -244 l 169 -196 b 260 -210 207 -206 231 -210 b 336 -158 307 -210 336 -190 b 263 -117 336 -128 315 -117 b 224 -122 246 -117 235 -118 l 214 -115 l 267 -11 b 35 294 126 7 35 129 b 143 561 35 406 74 500 b 339 639 200 611 271 639 b 553 496 456 639 553 574 b 488 438 553 464 524 438 b 421 501 457 438 432 461 l 413 532 b 331 599 399 583 381 599 b 142 357 218 599 142 501 b 357 86 142 197 229 86 b 553 217 436 86 486 119 l 572 204 b 314 -12 503 61 421 -8 "},"è":{"ha":617,"x_min":0,"x_max":0,"o":"m 599 218 b 304 -14 540 68 438 -14 b 44 297 144 -14 44 106 b 147 567 44 411 82 510 b 335 639 200 614 265 639 b 513 560 407 639 471 610 b 572 385 547 515 561 475 l 144 385 b 182 201 147 299 157 254 b 361 82 222 122 282 82 b 576 228 450 82 510 122 m 431 429 b 294 589 413 550 379 589 b 147 429 210 589 163 539 m 426 704 l 213 839 b 172 899 186 856 172 876 b 219 942 172 925 190 942 b 278 910 240 942 253 935 l 482 704 "},"é":{"ha":617,"x_min":0,"x_max":0,"o":"m 597 218 b 303 -14 539 68 436 -14 b 43 297 143 -14 43 106 b 146 567 43 411 81 510 b 333 639 199 614 264 639 b 511 560 406 639 469 610 b 571 385 546 515 560 475 l 143 385 b 181 201 146 299 156 254 b 360 82 221 122 281 82 b 575 228 449 82 508 122 m 429 429 b 293 589 411 550 378 589 b 146 429 208 589 161 539 m 204 704 l 408 910 b 467 942 433 935 446 942 b 515 897 497 942 515 925 b 474 839 515 875 503 857 l 260 704 "},"ê":{"ha":617,"x_min":0,"x_max":0,"o":"m 601 218 b 307 -14 543 68 440 -14 b 47 297 147 -14 47 106 b 150 567 47 411 85 510 b 338 639 203 614 268 639 b 515 560 410 639 474 610 b 575 385 550 515 564 475 l 147 385 b 185 201 150 299 160 254 b 364 82 225 122 285 82 b 579 228 453 82 513 122 m 433 429 b 297 589 415 550 382 589 b 150 429 213 589 165 539 m 500 704 l 331 847 l 163 704 l 115 704 l 288 936 l 374 936 l 547 704 "},"ë":{"ha":617,"x_min":0,"x_max":0,"o":"m 601 218 b 307 -14 543 68 440 -14 b 47 297 147 -14 47 106 b 150 567 47 411 85 510 b 338 639 203 614 268 639 b 515 560 410 639 474 610 b 575 385 550 515 564 475 l 147 385 b 185 201 150 299 160 254 b 364 82 225 122 285 82 b 579 228 453 82 513 122 m 433 429 b 297 589 415 550 382 589 b 150 429 213 589 165 539 m 197 865 b 267 796 235 865 267 833 b 197 726 267 757 235 726 b 131 797 160 726 131 757 b 197 865 131 833 161 865 m 474 865 b 543 796 511 865 543 833 b 474 726 543 757 511 726 b 407 797 436 726 407 757 b 474 865 407 833 438 865 "},"ì":{"ha":386,"x_min":0,"x_max":0,"o":"m 22 21 b 132 142 117 25 129 39 l 132 464 b 86 547 132 525 119 547 b 39 543 74 547 56 546 l 28 542 l 28 563 l 243 639 l 249 635 l 249 142 b 351 21 250 40 260 28 l 351 0 l 22 0 m 243 704 l 29 839 b -11 899 3 856 -11 876 b 36 942 -11 925 7 942 b 94 910 57 942 69 935 l 299 704 "},"í":{"ha":386,"x_min":0,"x_max":0,"o":"m 22 21 b 132 142 117 25 129 39 l 132 464 b 86 547 132 525 119 547 b 39 543 74 547 56 546 l 28 542 l 28 563 l 243 639 l 249 635 l 249 142 b 351 21 250 40 260 28 l 351 0 l 22 0 m 64 704 l 268 910 b 326 942 293 935 306 942 b 375 897 357 942 375 925 b 333 839 375 875 363 857 l 119 704 "},"î":{"ha":386,"x_min":0,"x_max":0,"o":"m 22 21 b 132 142 117 25 129 39 l 132 464 b 86 547 132 525 119 547 b 39 543 74 547 56 546 l 28 542 l 28 563 l 243 639 l 249 635 l 249 142 b 351 21 250 40 260 28 l 351 0 l 22 0 m 346 704 l 176 847 l 8 704 l -39 704 l 133 936 l 219 936 l 393 704 "},"ï":{"ha":386,"x_min":0,"x_max":0,"o":"m 82 865 b 151 796 119 865 151 833 b 82 726 151 757 119 726 b 15 797 44 726 15 757 b 82 865 15 833 46 865 m 303 865 b 372 796 340 865 372 833 b 303 726 372 757 340 726 b 236 797 265 726 236 757 b 303 865 236 833 267 865 m 22 21 b 132 142 117 25 129 39 l 132 464 b 86 547 132 525 119 547 b 39 543 74 547 56 546 l 28 542 l 28 563 l 243 639 l 249 635 l 249 142 b 351 21 250 40 260 28 l 351 0 l 22 0 "},"ð":{"ha":694,"x_min":0,"x_max":0,"o":"m 204 708 l 158 750 l 326 839 b 142 917 261 885 214 904 l 200 949 b 411 883 292 940 340 925 l 543 953 l 589 911 l 463 844 b 589 681 533 776 558 743 b 654 396 632 593 654 493 b 531 60 654 263 607 132 b 343 -14 481 11 417 -14 b 40 310 169 -14 40 125 b 335 639 40 496 168 639 b 510 556 401 639 439 621 b 375 799 489 658 457 715 m 329 600 b 165 385 231 600 165 514 b 226 115 165 286 188 188 b 363 25 257 58 307 25 b 529 279 468 25 529 118 b 329 600 529 468 447 600 "},"ñ":{"ha":694,"x_min":0,"x_max":0,"o":"m 25 21 b 111 125 94 25 110 43 l 111 469 b 60 558 111 538 99 558 b 22 553 44 558 31 557 l 22 576 b 214 639 99 599 146 614 l 224 636 l 224 526 b 425 639 318 615 361 639 b 589 431 528 639 589 561 l 589 113 b 674 21 590 44 606 28 l 674 0 l 385 0 l 385 21 b 472 138 453 25 469 47 l 472 428 b 371 563 472 519 439 563 b 228 483 325 563 293 546 l 228 93 b 319 21 228 43 250 25 l 319 0 l 25 0 m 576 886 b 429 739 547 781 507 739 b 318 772 394 739 375 744 l 286 788 b 229 803 265 797 244 803 b 158 739 196 803 174 782 l 118 739 b 258 879 139 829 189 879 b 356 854 289 879 322 871 l 389 838 b 461 817 414 825 442 817 b 536 886 493 817 511 833 "},"ò":{"ha":694,"x_min":0,"x_max":0,"o":"m 347 639 b 653 325 525 639 653 508 b 344 -14 653 132 519 -14 b 40 314 169 -14 40 125 b 347 639 40 506 165 639 m 329 600 b 165 382 229 600 165 514 b 226 114 165 283 188 186 b 361 25 256 58 307 25 b 528 276 465 25 528 118 b 329 600 528 467 446 600 m 432 704 l 218 839 b 178 899 192 856 178 876 b 225 942 178 925 196 942 b 283 910 247 942 258 935 l 488 704 "},"ó":{"ha":694,"x_min":0,"x_max":0,"o":"m 347 639 b 653 325 525 639 653 508 b 344 -14 653 132 519 -14 b 40 314 169 -14 40 125 b 347 639 40 506 165 639 m 329 600 b 165 382 229 600 165 514 b 226 114 165 283 188 186 b 361 25 256 58 307 25 b 528 276 465 25 528 118 b 329 600 528 467 446 600 m 214 704 l 418 910 b 478 942 443 935 456 942 b 525 897 507 942 525 925 b 483 839 525 875 513 857 l 269 704 "},"ô":{"ha":694,"x_min":0,"x_max":0,"o":"m 347 639 b 653 325 525 639 653 508 b 344 -14 653 132 519 -14 b 40 314 169 -14 40 125 b 347 639 40 506 165 639 m 329 600 b 165 382 229 600 165 514 b 226 114 165 283 188 186 b 361 25 256 58 307 25 b 528 276 465 25 528 118 b 329 600 528 467 446 600 m 517 704 l 347 847 l 179 704 l 132 704 l 304 936 l 390 936 l 564 704 "},"õ":{"ha":694,"x_min":0,"x_max":0,"o":"m 347 639 b 653 325 525 639 653 508 b 344 -14 653 132 519 -14 b 40 314 169 -14 40 125 b 347 639 40 506 165 639 m 329 600 b 165 382 229 600 165 514 b 226 114 165 283 188 186 b 361 25 256 58 307 25 b 528 276 465 25 528 118 b 329 600 528 467 446 600 m 576 886 b 429 739 547 781 507 739 b 318 772 394 739 375 744 l 286 788 b 229 803 265 797 244 803 b 158 739 196 803 174 782 l 118 739 b 258 879 139 829 189 879 b 356 854 289 879 322 871 l 389 838 b 461 817 414 825 442 817 b 536 886 493 817 511 833 "},"ö":{"ha":694,"x_min":0,"x_max":0,"o":"m 347 639 b 653 325 525 639 653 508 b 344 -14 653 132 519 -14 b 40 314 169 -14 40 125 b 347 639 40 506 165 639 m 329 600 b 165 382 229 600 165 514 b 226 114 165 283 188 186 b 361 25 256 58 307 25 b 528 276 465 25 528 118 b 329 600 528 467 446 600 m 208 865 b 278 796 246 865 278 833 b 208 726 278 757 246 726 b 142 797 171 726 142 757 b 208 865 142 833 172 865 m 485 865 b 554 796 522 865 554 833 b 485 726 554 757 522 726 b 418 797 447 726 418 757 b 485 865 418 833 449 865 "},"÷":{"ha":783,"x_min":0,"x_max":0,"o":"m 51 389 l 51 463 l 733 463 l 733 389 m 392 782 b 461 711 429 782 461 750 b 392 646 461 676 429 646 b 325 713 356 646 325 676 b 392 782 325 750 356 782 m 392 206 b 461 135 429 206 461 174 b 392 69 461 99 429 69 b 325 136 356 69 325 100 b 392 206 325 174 356 206 "},"ø":{"ha":694,"x_min":0,"x_max":0,"o":"m 517 592 b 600 511 560 561 578 544 b 653 325 633 460 653 392 b 343 -14 653 132 519 -14 b 214 15 294 -14 263 -7 l 124 -156 l 72 -156 l 174 39 b 86 135 126 76 108 97 b 40 315 57 188 40 251 b 346 639 40 504 167 639 b 474 614 392 639 425 632 l 553 765 l 607 765 m 249 83 b 363 25 283 42 315 25 b 528 282 467 25 528 119 b 472 508 528 371 513 433 m 440 550 b 329 600 403 586 372 600 b 165 383 231 600 165 514 b 219 128 165 288 182 208 "},"ù":{"ha":694,"x_min":0,"x_max":0,"o":"m 665 50 b 475 -12 594 31 544 15 l 469 -10 l 469 106 l 410 46 b 267 -14 372 8 318 -14 b 99 167 165 -14 99 57 l 99 517 b 13 606 97 583 78 603 l 13 625 l 215 625 l 215 172 b 314 67 215 114 260 67 b 436 114 356 67 399 83 b 463 188 456 129 463 149 l 463 514 b 360 601 463 583 446 597 l 360 625 l 579 625 l 579 149 b 658 69 581 83 590 72 l 665 69 m 399 704 l 185 839 b 144 899 158 856 144 876 b 192 942 144 925 163 942 b 250 910 213 942 225 935 l 454 704 "},"ú":{"ha":694,"x_min":0,"x_max":0,"o":"m 665 50 b 475 -12 594 31 544 15 l 469 -10 l 469 106 l 410 46 b 267 -14 372 8 318 -14 b 99 167 165 -14 99 57 l 99 517 b 13 606 97 583 78 603 l 13 625 l 215 625 l 215 172 b 314 67 215 114 260 67 b 436 114 356 67 399 83 b 463 188 456 129 463 149 l 463 514 b 360 601 463 583 446 597 l 360 625 l 579 625 l 579 149 b 658 69 581 83 590 72 l 665 69 m 258 704 l 463 910 b 521 942 488 935 500 942 b 569 897 551 942 569 925 b 528 839 569 875 557 857 l 314 704 "},"û":{"ha":694,"x_min":0,"x_max":0,"o":"m 665 50 b 475 -12 594 31 544 15 l 469 -10 l 469 106 l 410 46 b 267 -14 372 8 318 -14 b 99 167 165 -14 99 57 l 99 517 b 13 606 97 583 78 603 l 13 625 l 215 625 l 215 172 b 314 67 215 114 260 67 b 436 114 356 67 399 83 b 463 188 456 129 463 149 l 463 514 b 360 601 463 583 446 597 l 360 625 l 579 625 l 579 149 b 658 69 581 83 590 72 l 665 69 m 486 704 l 317 847 l 149 704 l 101 704 l 274 936 l 360 936 l 533 704 "},"ü":{"ha":694,"x_min":0,"x_max":0,"o":"m 665 50 b 475 -12 594 31 544 15 l 469 -10 l 469 106 l 410 46 b 267 -14 372 8 318 -14 b 99 167 165 -14 99 57 l 99 517 b 13 606 97 583 78 603 l 13 625 l 215 625 l 215 172 b 314 67 215 114 260 67 b 436 114 356 67 399 83 b 463 188 456 129 463 149 l 463 514 b 360 601 463 583 446 597 l 360 625 l 579 625 l 579 149 b 658 69 581 83 590 72 l 665 69 m 181 865 b 250 796 218 865 250 833 b 181 726 250 757 218 726 b 114 797 143 726 114 757 b 181 865 114 833 144 865 m 457 865 b 526 796 494 865 526 833 b 457 726 526 757 494 726 b 390 797 419 726 390 757 b 457 865 390 833 421 865 "},"ý":{"ha":694,"x_min":0,"x_max":0,"o":"m 660 604 b 593 542 626 600 611 586 l 379 -25 b 144 -303 303 -226 239 -303 b 42 -222 85 -303 42 -268 b 101 -161 42 -187 68 -161 b 174 -176 124 -161 149 -167 b 210 -186 189 -183 201 -186 b 279 -125 229 -186 258 -160 b 335 25 303 -82 335 3 b 274 167 335 46 313 97 b 249 219 267 181 265 182 l 90 561 b 19 606 79 585 56 600 l 19 625 l 306 625 l 306 604 b 225 567 246 601 225 592 b 239 514 225 553 231 533 l 399 163 l 533 546 b 539 569 538 556 539 564 b 472 604 539 592 517 604 l 472 625 l 660 625 m 282 704 l 486 910 b 544 942 511 935 524 942 b 593 897 575 942 593 925 b 551 839 593 875 581 857 l 338 704 "},"þ":{"ha":694,"x_min":0,"x_max":0,"o":"m 7 -276 b 104 -182 89 -269 104 -256 l 104 796 b 36 867 104 854 93 867 b 13 865 26 867 21 867 l 13 888 b 214 949 108 914 147 925 l 221 944 l 221 531 b 421 639 283 606 344 639 b 653 343 556 639 653 515 b 361 -14 653 142 526 -14 b 221 46 303 -14 271 0 l 221 -172 b 343 -276 222 -261 239 -275 l 343 -301 l 7 -301 m 221 122 b 365 31 221 81 300 31 b 533 288 465 31 533 135 b 363 556 533 450 465 556 b 221 464 299 556 221 506 "},"ÿ":{"ha":694,"x_min":0,"x_max":0,"o":"m 660 604 b 593 542 626 600 611 586 l 379 -25 b 144 -303 303 -226 239 -303 b 42 -222 85 -303 42 -268 b 101 -161 42 -187 68 -161 b 174 -176 124 -161 149 -167 b 210 -186 189 -183 201 -186 b 279 -125 229 -186 258 -160 b 335 25 303 -82 335 3 b 274 167 335 46 313 97 b 249 219 267 181 265 182 l 90 561 b 19 606 79 585 56 600 l 19 625 l 306 625 l 306 604 b 225 567 246 601 225 592 b 239 514 225 553 231 533 l 399 163 l 533 546 b 539 569 538 556 539 564 b 472 604 539 592 517 604 l 472 625 l 660 625 m 229 865 b 299 796 267 865 299 833 b 229 726 299 757 267 726 b 163 797 192 726 163 757 b 229 865 163 833 193 865 m 506 865 b 575 796 543 865 575 833 b 506 726 575 757 543 726 b 439 797 468 726 439 757 b 506 865 439 833 469 865 "},"Ā":{"ha":1003,"x_min":0,"x_max":0,"o":"m 981 0 l 626 0 l 626 26 b 724 74 700 28 724 39 b 697 167 724 93 714 129 l 640 300 l 276 300 l 213 138 b 201 83 206 119 201 100 b 296 26 201 43 229 26 l 296 0 l 21 0 l 21 26 b 193 254 88 29 104 51 l 482 936 l 510 936 l 856 147 b 981 26 904 44 918 31 m 621 357 l 460 739 l 300 357 m 718 1129 l 718 1054 l 286 1054 l 286 1129 "},"ā":{"ha":617,"x_min":0,"x_max":0,"o":"m 614 56 b 489 -14 565 3 536 -14 b 400 88 432 -14 407 14 b 197 -14 315 15 258 -14 b 51 135 113 -14 51 47 b 101 256 51 181 71 228 b 399 406 161 308 185 319 l 399 490 b 293 606 399 565 361 606 b 193 538 238 606 193 575 b 197 504 193 528 194 517 b 200 482 199 494 200 488 b 138 424 200 451 171 424 b 78 483 104 424 78 451 b 311 639 78 571 181 639 b 483 563 393 639 453 613 b 511 417 504 529 511 489 l 511 146 b 553 65 511 85 521 65 b 614 92 574 65 590 72 m 399 372 b 174 179 236 315 175 263 l 174 174 b 261 67 174 114 213 67 b 363 97 290 67 328 78 b 399 171 392 114 399 129 m 525 835 l 525 760 l 93 760 l 93 835 "},"Ă":{"ha":1003,"x_min":0,"x_max":0,"o":"m 981 0 l 626 0 l 626 26 b 724 74 700 28 724 39 b 697 167 724 93 714 129 l 640 300 l 276 300 l 213 138 b 201 83 206 119 201 100 b 296 26 201 43 229 26 l 296 0 l 21 0 l 21 26 b 193 254 88 29 104 51 l 482 936 l 510 936 l 856 147 b 981 26 904 44 918 31 m 621 357 l 460 739 l 300 357 m 697 1217 b 500 999 679 1069 615 999 b 344 1074 433 999 379 1025 b 307 1217 317 1113 308 1146 l 347 1217 b 503 1082 365 1124 413 1082 b 657 1217 583 1082 617 1111 "},"ă":{"ha":617,"x_min":0,"x_max":0,"o":"m 614 56 b 489 -14 565 3 536 -14 b 400 88 432 -14 407 14 b 197 -14 315 15 258 -14 b 51 135 113 -14 51 47 b 101 256 51 181 71 228 b 399 406 161 308 185 319 l 399 490 b 293 606 399 565 361 606 b 193 538 238 606 193 575 b 197 504 193 528 194 517 b 200 482 199 494 200 488 b 138 424 200 451 171 424 b 78 483 104 424 78 451 b 311 639 78 571 181 639 b 483 563 393 639 453 613 b 511 417 504 529 511 489 l 511 146 b 553 65 511 85 521 65 b 614 92 574 65 590 72 m 399 372 b 174 179 236 315 175 263 l 174 174 b 261 67 174 114 213 67 b 363 97 290 67 328 78 b 399 171 392 114 399 129 m 504 922 b 307 704 486 775 422 704 b 151 779 240 704 186 731 b 114 922 124 818 115 851 l 154 922 b 310 788 172 829 219 788 b 464 922 390 788 424 817 "},"Ą":{"ha":1003,"x_min":0,"x_max":0,"o":"m 981 0 b 913 -96 950 -7 913 -60 b 965 -151 913 -129 935 -151 b 1064 -101 994 -151 1021 -139 l 1092 -124 b 936 -229 1040 -197 993 -229 b 835 -125 878 -229 835 -183 b 910 0 835 -78 854 -44 l 626 0 l 626 26 b 724 74 700 28 724 39 b 697 167 724 93 714 129 l 640 300 l 276 300 l 213 138 b 201 83 206 119 201 100 b 296 26 201 43 229 26 l 296 0 l 21 0 l 21 26 b 193 254 88 29 104 51 l 482 936 l 510 936 l 856 147 b 981 26 904 44 918 31 m 621 357 l 460 739 l 300 357 "},"ą":{"ha":617,"x_min":0,"x_max":0,"o":"m 614 56 b 493 -15 565 3 550 -6 b 438 -92 460 -22 438 -53 b 490 -151 438 -128 458 -151 b 589 -101 519 -151 546 -139 l 617 -124 b 461 -229 565 -197 518 -229 b 360 -125 403 -229 360 -183 b 435 0 360 -79 382 -42 b 400 88 413 21 404 42 b 197 -14 315 15 258 -14 b 51 135 113 -14 51 47 b 101 256 51 181 71 228 b 399 406 161 308 185 319 l 399 490 b 293 606 399 565 361 606 b 193 538 238 606 193 575 b 197 504 193 528 194 517 b 200 482 199 494 200 488 b 138 424 200 451 171 424 b 78 483 104 424 78 451 b 311 639 78 571 181 639 b 483 563 393 639 453 613 b 511 417 504 529 511 489 l 511 146 b 553 65 511 85 521 65 b 614 92 574 65 590 72 m 399 372 b 174 179 236 315 175 263 l 174 174 b 261 67 174 114 213 67 b 363 97 290 67 328 78 b 399 171 392 114 399 129 "},"Ć":{"ha":926,"x_min":0,"x_max":0,"o":"m 829 626 b 738 800 803 717 782 756 b 531 883 682 854 610 883 b 200 469 329 883 200 722 b 319 122 200 315 243 190 b 544 42 379 69 457 42 b 854 182 660 42 751 83 l 879 157 b 500 -19 796 44 657 -19 b 39 453 224 -19 39 169 b 189 819 39 606 92 733 b 504 939 276 896 390 939 b 707 904 569 939 639 928 b 761 893 728 897 749 893 b 819 939 789 893 811 910 l 849 939 l 861 626 m 444 999 l 649 1204 b 707 1236 674 1229 686 1236 b 756 1192 738 1236 756 1219 b 714 1133 756 1169 743 1151 l 500 999 "},"ć":{"ha":617,"x_min":0,"x_max":0,"o":"m 572 204 b 467 51 531 122 504 83 b 299 -14 417 8 361 -14 b 35 294 144 -14 35 115 b 143 561 35 406 74 500 b 339 639 200 611 271 639 b 553 496 456 639 553 574 b 488 438 553 464 524 438 b 421 501 457 438 432 461 l 413 532 b 331 599 399 583 381 599 b 142 357 218 599 142 501 b 357 86 142 197 229 86 b 553 217 436 86 486 119 m 193 704 l 397 910 b 456 942 422 935 435 942 b 504 897 486 942 504 925 b 463 839 504 875 492 857 l 249 704 "},"Ĉ":{"ha":926,"x_min":0,"x_max":0,"o":"m 881 200 b 510 -10 792 68 656 -10 b 47 460 254 -10 47 201 b 526 929 47 722 258 929 b 721 890 597 929 667 915 b 792 864 776 864 778 864 b 833 919 815 864 828 881 l 863 919 l 871 610 l 846 607 b 763 786 836 686 811 738 b 542 878 703 846 625 878 b 215 456 344 878 215 711 b 546 51 215 208 344 51 b 857 215 672 51 774 106 m 706 999 l 536 1142 l 368 999 l 321 999 l 493 1231 l 579 1231 l 753 999 "},"ĉ":{"ha":617,"x_min":0,"x_max":0,"o":"m 572 204 b 467 51 531 122 504 83 b 299 -14 417 8 361 -14 b 35 294 144 -14 35 115 b 143 561 35 406 74 500 b 339 639 200 611 271 639 b 553 496 456 639 553 574 b 488 438 553 464 524 438 b 421 501 457 438 432 461 l 413 532 b 331 599 399 583 381 599 b 142 357 218 599 142 501 b 357 86 142 197 229 86 b 553 217 436 86 486 119 m 493 704 l 324 847 l 156 704 l 108 704 l 281 936 l 367 936 l 540 704 "},"Ċ":{"ha":926,"x_min":0,"x_max":0,"o":"m 881 200 b 510 -10 792 68 656 -10 b 47 460 254 -10 47 201 b 526 929 47 722 258 929 b 721 890 597 929 667 915 b 792 864 776 864 778 864 b 833 919 815 864 828 881 l 863 919 l 871 610 l 846 607 b 763 786 836 686 811 738 b 542 878 703 846 625 878 b 215 456 344 878 215 711 b 546 51 215 208 344 51 b 857 215 672 51 774 106 m 533 1143 b 607 1069 574 1143 607 1110 b 533 994 607 1028 574 994 b 458 1069 492 994 458 1028 b 533 1143 458 1110 492 1143 "},"ċ":{"ha":617,"x_min":0,"x_max":0,"o":"m 572 204 b 467 51 531 122 504 83 b 299 -14 417 8 361 -14 b 35 294 144 -14 35 115 b 143 561 35 406 74 500 b 339 639 200 611 271 639 b 553 496 456 639 553 574 b 488 438 553 464 524 438 b 421 501 457 438 432 461 l 413 532 b 331 599 399 583 381 599 b 142 357 218 599 142 501 b 357 86 142 197 229 86 b 553 217 436 86 486 119 m 319 865 b 389 796 357 865 389 833 b 319 726 389 757 357 726 b 253 797 282 726 253 757 b 319 865 253 833 283 865 "},"Č":{"ha":926,"x_min":0,"x_max":0,"o":"m 829 626 b 738 800 803 717 782 756 b 531 883 682 854 610 883 b 200 469 329 883 200 722 b 319 122 200 315 243 190 b 544 42 379 69 457 42 b 854 182 660 42 751 83 l 879 157 b 500 -19 796 44 657 -19 b 39 453 224 -19 39 169 b 189 819 39 606 92 733 b 504 939 276 896 390 939 b 707 904 569 939 639 928 b 761 893 728 897 749 893 b 819 939 789 893 811 910 l 849 939 l 861 626 m 560 999 l 474 999 l 301 1231 l 349 1231 l 517 1088 l 686 1231 l 733 1231 "},"č":{"ha":617,"x_min":0,"x_max":0,"o":"m 572 204 b 467 51 531 122 504 83 b 299 -14 417 8 361 -14 b 35 294 144 -14 35 115 b 143 561 35 406 74 500 b 339 639 200 611 271 639 b 553 496 456 639 553 574 b 488 438 553 464 524 438 b 421 501 457 438 432 461 l 413 532 b 331 599 399 583 381 599 b 142 357 218 599 142 501 b 357 86 142 197 229 86 b 553 217 436 86 486 119 m 379 704 l 293 704 l 121 936 l 168 936 l 336 793 l 506 936 l 553 936 "},"Ď":{"ha":1003,"x_min":0,"x_max":0,"o":"m 22 26 b 144 151 126 33 143 50 l 144 768 b 22 893 143 872 132 883 l 22 919 l 397 919 b 833 774 588 919 739 869 b 951 464 911 697 951 589 b 810 124 951 329 900 206 b 417 0 724 46 578 0 l 22 0 m 286 108 b 358 51 286 64 303 51 b 631 108 479 51 560 68 b 800 454 743 174 800 290 b 635 799 800 604 743 724 b 358 868 568 846 479 868 b 286 814 300 868 286 857 m 490 999 l 404 999 l 232 1231 l 279 1231 l 447 1088 l 617 1231 l 664 1231 "},"ď":{"ha":817,"x_min":0,"x_max":0,"o":"m 696 628 b 810 775 771 679 810 729 b 790 794 810 786 801 794 b 781 792 789 794 788 794 b 753 789 772 790 763 789 b 671 860 701 789 671 815 b 753 939 671 907 704 939 b 864 815 815 939 864 885 b 708 601 864 732 801 647 m 681 58 l 476 -14 l 471 -10 l 471 79 b 293 -14 424 14 371 -14 b 36 285 139 -14 36 107 b 325 639 36 482 165 639 b 471 579 381 639 418 624 l 471 796 b 407 867 471 853 458 867 b 376 865 396 867 388 867 l 376 888 b 581 949 465 911 514 925 l 588 946 l 588 158 b 649 79 588 94 599 79 b 681 81 654 79 663 79 m 471 461 b 329 600 471 535 404 600 b 156 340 224 600 156 497 b 347 58 156 169 232 58 b 447 100 388 58 424 72 b 471 142 461 115 471 132 "},"Đ":{"ha":1003,"x_min":0,"x_max":0,"o":"m 22 919 l 397 919 b 833 774 588 919 739 869 b 951 464 911 697 951 589 b 810 124 951 329 900 206 b 417 0 724 46 578 0 l 22 0 l 22 26 b 144 151 126 33 143 50 l 144 438 l 29 438 l 29 499 l 144 499 l 144 768 b 22 893 143 872 132 883 m 489 438 l 286 438 l 286 108 b 358 51 286 64 303 51 b 631 108 479 51 560 68 b 800 454 743 174 800 290 b 635 799 800 604 743 724 b 356 868 568 846 479 868 b 286 814 300 868 286 857 l 286 499 l 489 499 "},"đ":{"ha":694,"x_min":0,"x_max":0,"o":"m 304 732 l 304 779 l 472 779 l 472 796 b 408 867 472 853 460 867 b 378 865 397 867 389 867 l 378 888 b 582 949 467 911 515 925 l 589 946 l 589 779 l 694 779 l 694 732 l 589 732 l 589 158 b 650 79 589 94 600 79 b 682 81 656 79 664 79 l 682 58 l 478 -14 l 472 -10 l 472 79 b 294 -14 425 14 372 -14 b 38 285 140 -14 38 107 b 326 639 38 482 167 639 b 472 579 382 639 419 624 l 472 732 m 472 461 b 331 600 472 535 406 600 b 157 340 225 600 157 497 b 349 58 157 169 233 58 b 449 100 389 58 425 72 b 472 142 463 115 472 132 "},"Ē":{"ha":849,"x_min":0,"x_max":0,"o":"m 767 0 l 17 0 l 17 26 b 138 151 117 32 135 51 l 138 768 b 17 893 135 868 118 886 l 17 919 l 754 919 l 758 721 l 724 721 b 513 867 701 844 674 864 l 325 867 b 279 819 286 867 281 861 l 279 511 l 493 511 b 646 643 610 514 629 531 l 678 643 l 678 321 l 646 321 b 493 454 628 435 610 451 l 279 454 l 279 111 b 425 51 279 57 281 56 l 463 51 b 790 235 661 53 724 88 l 829 235 m 640 1129 l 640 1054 l 208 1054 l 208 1129 "},"ē":{"ha":617,"x_min":0,"x_max":0,"o":"m 589 218 b 294 -14 531 68 428 -14 b 35 297 135 -14 35 106 b 138 567 35 411 72 510 b 325 639 190 614 256 639 b 503 560 397 639 461 610 b 563 385 538 515 551 475 l 135 385 b 172 201 138 299 147 254 b 351 82 213 122 272 82 b 567 228 440 82 500 122 m 421 429 b 285 589 403 550 369 589 b 138 429 200 589 153 539 m 525 835 l 525 760 l 93 760 l 93 835 "},"Ĕ":{"ha":849,"x_min":0,"x_max":0,"o":"m 767 0 l 17 0 l 17 26 b 138 151 117 32 135 51 l 138 768 b 17 893 135 868 118 886 l 17 919 l 754 919 l 758 721 l 724 721 b 513 867 701 844 674 864 l 325 867 b 279 819 286 867 281 861 l 279 511 l 493 511 b 646 643 610 514 629 531 l 678 643 l 678 321 l 646 321 b 493 454 628 435 610 451 l 279 454 l 279 111 b 425 51 279 57 281 56 l 463 51 b 790 235 661 53 724 88 l 829 235 m 619 1217 b 422 999 603 1069 539 999 b 267 1074 356 999 301 1025 b 229 1217 240 1113 231 1146 l 269 1217 b 425 1082 289 1124 336 1082 b 579 1217 506 1082 539 1111 "},"ĕ":{"ha":617,"x_min":0,"x_max":0,"o":"m 597 218 b 303 -14 539 68 436 -14 b 43 297 143 -14 43 106 b 146 567 43 411 81 510 b 333 639 199 614 264 639 b 511 560 406 639 469 610 b 571 385 546 515 560 475 l 143 385 b 181 201 146 299 156 254 b 360 82 221 122 281 82 b 575 228 449 82 508 122 m 429 429 b 293 589 411 550 378 589 b 146 429 208 589 161 539 m 528 922 b 332 704 511 775 447 704 b 176 779 265 704 211 731 b 138 922 149 818 140 851 l 178 922 b 333 788 197 829 244 788 b 488 922 414 788 449 817 "},"Ė":{"ha":849,"x_min":0,"x_max":0,"o":"m 767 0 l 17 0 l 17 26 b 138 151 117 32 135 51 l 138 768 b 17 893 135 868 118 886 l 17 919 l 754 919 l 758 721 l 724 721 b 513 867 701 844 674 864 l 325 867 b 279 819 286 867 281 861 l 279 511 l 493 511 b 646 643 610 514 629 531 l 678 643 l 678 321 l 646 321 b 493 454 628 435 610 451 l 279 454 l 279 111 b 425 51 279 57 281 56 l 463 51 b 790 235 661 53 724 88 l 829 235 m 424 1160 b 493 1090 461 1160 493 1128 b 424 1021 493 1051 461 1021 b 357 1092 386 1021 357 1051 b 424 1160 357 1128 388 1160 "},"ė":{"ha":617,"x_min":0,"x_max":0,"o":"m 597 218 b 303 -14 539 68 436 -14 b 43 297 143 -14 43 106 b 146 567 43 411 81 510 b 333 639 199 614 264 639 b 511 560 406 639 469 610 b 571 385 546 515 560 475 l 143 385 b 181 201 146 299 156 254 b 360 82 221 122 281 82 b 575 228 449 82 508 122 m 429 429 b 293 589 411 550 378 589 b 146 429 208 589 161 539 m 317 865 b 386 796 354 865 386 833 b 317 726 386 757 354 726 b 250 797 279 726 250 757 b 317 865 250 833 281 865 "},"Ę":{"ha":849,"x_min":0,"x_max":0,"o":"m 758 0 b 669 -96 717 0 669 -50 b 722 -151 669 -129 692 -151 b 821 -101 751 -151 778 -139 l 849 -124 b 693 -229 797 -197 750 -229 b 592 -125 635 -229 592 -183 b 667 0 592 -78 613 -43 l 17 0 l 17 26 b 138 151 117 32 135 51 l 138 768 b 17 893 135 868 118 886 l 17 919 l 754 919 l 758 721 l 724 721 b 513 867 701 844 674 864 l 325 867 b 279 819 286 867 281 861 l 279 511 l 493 511 b 646 643 610 514 629 531 l 678 643 l 678 321 l 646 321 b 493 454 628 435 610 451 l 279 454 l 279 111 b 425 51 279 57 281 56 l 463 51 b 790 235 661 53 724 88 l 829 235 l 767 0 "},"ę":{"ha":617,"x_min":0,"x_max":0,"o":"m 599 218 b 469 31 576 157 546 113 b 393 -99 411 -31 393 -61 b 446 -151 393 -129 415 -151 b 544 -101 475 -151 500 -139 l 572 -124 b 417 -229 521 -197 474 -229 b 315 -125 358 -229 315 -183 b 388 -1 315 -79 336 -44 b 306 -14 357 -11 335 -14 b 44 297 144 -14 44 106 b 147 567 44 411 82 510 b 335 639 200 614 265 639 b 513 560 407 639 471 610 b 572 385 547 515 561 475 l 144 385 b 182 201 147 299 157 254 b 361 82 222 122 282 82 b 576 228 450 82 510 122 m 431 429 b 294 589 413 550 379 589 b 147 429 210 589 163 539 "},"Ě":{"ha":849,"x_min":0,"x_max":0,"o":"m 767 0 l 17 0 l 17 26 b 138 151 117 32 135 51 l 138 768 b 17 893 135 868 118 886 l 17 919 l 754 919 l 758 721 l 724 721 b 513 867 701 844 674 864 l 325 867 b 279 819 286 867 281 861 l 279 511 l 493 511 b 646 643 610 514 629 531 l 678 643 l 678 321 l 646 321 b 493 454 628 435 610 451 l 279 454 l 279 111 b 425 51 279 57 281 56 l 463 51 b 790 235 661 53 724 88 l 829 235 m 467 999 l 381 999 l 208 1231 l 256 1231 l 424 1088 l 593 1231 l 640 1231 "},"ě":{"ha":617,"x_min":0,"x_max":0,"o":"m 601 218 b 307 -14 543 68 440 -14 b 47 297 147 -14 47 106 b 150 567 47 411 85 510 b 338 639 203 614 268 639 b 515 560 410 639 474 610 b 575 385 550 515 564 475 l 147 385 b 185 201 150 299 160 254 b 364 82 225 122 285 82 b 579 228 453 82 513 122 m 433 429 b 297 589 415 550 382 589 b 150 429 213 589 165 539 m 374 704 l 288 704 l 115 936 l 163 936 l 331 793 l 500 936 l 547 936 "},"Ĝ":{"ha":1003,"x_min":0,"x_max":0,"o":"m 889 83 b 539 -10 774 19 665 -10 b 167 125 378 -10 263 32 b 39 436 81 210 39 310 b 167 775 39 567 85 689 b 533 929 257 871 397 929 b 742 881 604 929 668 914 b 794 865 763 871 782 865 b 840 919 819 865 835 885 l 868 919 l 886 635 l 858 632 b 771 783 835 710 815 744 b 549 871 708 840 629 871 b 263 711 429 871 325 813 b 201 469 221 644 201 569 b 296 167 201 336 231 243 b 560 47 363 89 453 47 b 743 108 638 47 689 64 l 743 353 b 647 471 743 439 721 467 l 626 471 l 626 496 l 1008 496 l 1008 471 l 985 471 b 889 353 911 467 889 439 m 704 999 l 535 1142 l 367 999 l 319 999 l 492 1231 l 578 1231 l 751 999 "},"ĝ":{"ha":694,"x_min":0,"x_max":0,"o":"m 538 539 b 564 422 557 494 564 463 b 497 265 564 353 543 304 b 347 207 454 228 399 207 b 268 214 344 207 318 210 b 185 126 231 203 185 154 b 293 89 185 104 218 92 l 472 81 b 640 -68 575 76 640 18 b 564 -208 640 -121 617 -165 b 279 -303 492 -267 383 -303 b 39 -168 146 -303 39 -242 b 175 1 39 -117 75 -71 b 101 75 117 29 101 44 b 139 144 101 99 110 114 b 189 193 143 150 160 165 l 225 226 b 96 413 132 272 96 325 b 328 639 96 540 199 639 b 439 618 364 639 401 632 l 469 607 b 546 593 497 597 517 593 l 653 593 l 653 539 m 211 465 b 354 242 211 332 268 242 b 457 368 418 242 457 290 b 415 535 457 424 442 486 b 314 600 393 576 357 600 b 211 469 250 600 211 551 m 204 -3 b 136 -122 149 -69 136 -90 b 339 -224 136 -183 215 -224 b 601 -89 496 -224 601 -169 b 429 -21 601 -39 556 -21 b 204 -3 361 -21 251 -12 m 515 704 l 346 847 l 178 704 l 131 704 l 303 936 l 389 936 l 563 704 "},"Ğ":{"ha":1003,"x_min":0,"x_max":0,"o":"m 985 467 b 888 360 906 461 890 444 l 888 78 b 539 -19 832 29 660 -19 b 160 129 386 -19 251 33 b 44 451 82 211 44 315 b 521 939 44 735 243 939 b 710 907 583 939 647 928 b 771 893 735 899 757 893 b 833 939 800 893 825 911 l 864 939 l 875 646 l 843 646 b 744 807 808 731 786 767 b 544 883 692 857 622 883 b 303 778 450 883 364 846 b 203 453 242 710 203 583 b 568 36 203 194 342 36 b 753 118 669 36 753 74 l 753 343 b 631 467 750 449 739 460 l 631 492 l 985 492 m 725 1217 b 528 999 708 1069 644 999 b 372 1074 461 999 407 1025 b 335 1217 346 1113 336 1146 l 375 1217 b 531 1082 394 1124 442 1082 b 685 1217 611 1082 644 1111 "},"ğ":{"ha":694,"x_min":0,"x_max":0,"o":"m 538 539 b 564 422 557 494 564 463 b 497 265 564 353 543 304 b 347 207 454 228 399 207 b 268 214 344 207 318 210 b 185 126 231 203 185 154 b 293 89 185 104 218 92 l 472 81 b 640 -68 575 76 640 18 b 564 -208 640 -121 617 -165 b 279 -303 492 -267 383 -303 b 39 -168 146 -303 39 -242 b 175 1 39 -117 75 -71 b 101 75 117 29 101 44 b 139 144 101 99 110 114 b 189 193 143 150 160 165 l 225 226 b 96 413 132 272 96 325 b 328 639 96 540 199 639 b 439 618 364 639 401 632 l 469 607 b 546 593 497 597 517 593 l 653 593 l 653 539 m 204 -3 b 136 -122 149 -69 136 -90 b 339 -224 136 -183 215 -224 b 601 -89 496 -224 601 -169 b 429 -21 601 -39 556 -21 b 204 -3 361 -21 251 -12 m 211 465 b 354 242 211 332 268 242 b 457 368 418 242 457 290 b 415 535 457 424 442 486 b 314 600 393 576 357 600 b 211 469 250 600 211 551 m 543 922 b 346 704 525 775 461 704 b 190 779 279 704 225 731 b 153 922 163 818 154 851 l 193 922 b 349 788 211 829 258 788 b 503 922 429 788 463 817 "},"Ġ":{"ha":1003,"x_min":0,"x_max":0,"o":"m 889 83 b 539 -10 774 19 665 -10 b 167 125 378 -10 263 32 b 39 436 81 210 39 310 b 167 775 39 567 85 689 b 533 929 257 871 397 929 b 742 881 604 929 668 914 b 794 865 763 871 782 865 b 840 919 819 865 835 885 l 868 919 l 886 635 l 858 632 b 771 783 835 710 815 744 b 549 871 708 840 629 871 b 263 711 429 871 325 813 b 201 469 221 644 201 569 b 296 167 201 336 231 243 b 560 47 363 89 453 47 b 743 108 638 47 689 64 l 743 353 b 647 471 743 439 721 467 l 626 471 l 626 496 l 1008 496 l 1008 471 l 985 471 b 889 353 911 467 889 439 m 542 1143 b 615 1069 582 1143 615 1110 b 542 994 615 1028 582 994 b 467 1069 500 994 467 1028 b 542 1143 467 1110 500 1143 "},"ġ":{"ha":694,"x_min":0,"x_max":0,"o":"m 343 883 b 414 813 382 883 414 851 b 342 740 414 772 382 740 b 271 813 303 740 271 772 b 343 883 271 851 303 883 m 538 539 b 564 422 557 494 564 463 b 497 265 564 353 543 304 b 347 207 454 228 399 207 b 268 214 344 207 318 210 b 185 126 231 203 185 154 b 293 89 185 104 218 92 l 472 81 b 640 -68 575 76 640 18 b 564 -208 640 -121 617 -165 b 279 -303 492 -267 383 -303 b 39 -168 146 -303 39 -242 b 175 1 39 -117 75 -71 b 101 75 117 29 101 44 b 139 144 101 99 110 114 b 189 193 143 150 160 165 l 225 226 b 96 413 132 272 96 325 b 328 639 96 540 199 639 b 439 618 364 639 401 632 l 469 607 b 546 593 497 597 517 593 l 653 593 l 653 539 m 211 465 b 354 242 211 332 268 242 b 457 368 418 242 457 290 b 415 535 457 424 442 486 b 314 600 393 576 357 600 b 211 469 250 600 211 551 m 204 -3 b 136 -122 149 -69 136 -90 b 339 -224 136 -183 215 -224 b 601 -89 496 -224 601 -169 b 429 -21 601 -39 556 -21 b 204 -3 361 -21 251 -12 "},"Ģ":{"ha":1003,"x_min":0,"x_max":0,"o":"m 985 467 b 888 360 906 461 890 444 l 888 78 b 539 -19 832 29 660 -19 b 160 129 386 -19 251 33 b 44 451 82 211 44 315 b 521 939 44 735 243 939 b 710 907 583 939 647 928 b 771 893 735 899 757 893 b 833 939 800 893 825 911 l 864 939 l 875 646 l 843 646 b 744 807 808 731 786 767 b 544 883 692 857 622 883 b 303 778 450 883 364 846 b 203 453 242 710 203 583 b 568 36 203 194 342 36 b 753 118 669 36 753 74 l 753 343 b 631 467 750 449 739 460 l 631 492 l 985 492 m 431 -364 b 544 -217 506 -312 544 -261 b 525 -197 544 -206 536 -197 b 515 -200 524 -197 522 -197 b 488 -203 507 -201 497 -203 b 406 -132 436 -203 406 -176 b 488 -53 406 -85 439 -53 b 599 -176 550 -53 599 -107 b 443 -390 599 -260 536 -344 "},"ģ":{"ha":694,"x_min":0,"x_max":0,"o":"m 538 539 b 564 422 557 494 564 463 b 497 265 564 353 543 304 b 347 207 454 228 399 207 b 268 214 344 207 318 210 b 185 126 231 203 185 154 b 293 89 185 104 218 92 l 472 81 b 640 -68 575 76 640 18 b 564 -208 640 -121 617 -165 b 279 -303 492 -267 383 -303 b 39 -168 146 -303 39 -242 b 175 1 39 -117 75 -71 b 101 75 117 29 101 44 b 139 144 101 99 110 114 b 189 193 143 150 160 165 l 225 226 b 96 413 132 272 96 325 b 328 639 96 540 199 639 b 439 618 364 639 401 632 l 469 607 b 546 593 497 597 517 593 l 653 593 l 653 539 m 204 -3 b 136 -122 149 -69 136 -90 b 339 -224 136 -183 215 -224 b 601 -89 496 -224 601 -169 b 429 -21 601 -39 556 -21 b 204 -3 361 -21 251 -12 m 211 465 b 354 242 211 332 268 242 b 457 368 418 242 457 290 b 415 535 457 424 442 486 b 314 600 393 576 357 600 b 211 469 250 600 211 551 m 419 996 b 306 849 344 944 306 894 b 325 829 306 838 314 829 b 335 832 326 829 328 829 b 363 835 343 833 353 835 b 444 764 414 835 444 808 b 363 685 444 717 411 685 b 251 808 300 685 251 739 b 407 1022 251 892 314 976 "},"Ĥ":{"ha":1003,"x_min":0,"x_max":0,"o":"m 297 144 b 392 26 297 56 318 29 l 422 25 l 422 0 l 25 0 l 25 25 l 57 26 b 151 144 129 29 151 56 l 151 776 b 57 893 151 864 129 890 l 25 894 l 25 919 l 422 919 l 422 894 l 392 893 b 297 776 318 890 297 864 l 297 500 l 707 500 l 707 776 b 613 893 707 864 685 890 l 581 894 l 581 919 l 978 919 l 978 894 l 947 893 b 853 776 874 890 853 864 l 853 144 b 947 26 853 56 874 29 l 978 25 l 978 0 l 581 0 l 581 25 l 613 26 b 707 144 685 29 707 56 l 707 438 l 297 438 m 671 999 l 501 1142 l 333 999 l 286 999 l 458 1231 l 544 1231 l 718 999 "},"ĥ":{"ha":694,"x_min":0,"x_max":0,"o":"m 676 0 l 382 0 l 382 21 b 476 142 461 28 474 43 l 476 417 b 372 564 476 514 442 564 b 218 476 318 564 276 540 l 218 142 b 313 21 221 43 232 28 l 313 0 l 13 0 l 13 21 b 101 142 92 31 99 42 l 101 796 b 31 867 101 856 90 867 b 14 865 24 867 19 867 l 14 888 l 51 899 b 211 949 129 921 164 932 l 218 944 l 218 522 b 422 639 282 606 340 639 b 593 418 536 639 593 564 l 593 142 b 676 21 594 43 601 33 m 383 1008 l 214 1151 l 46 1008 l -1 1008 l 171 1240 l 257 1240 l 431 1008 "},"Ħ":{"ha":1003,"x_min":0,"x_max":0,"o":"m 25 646 l 25 701 l 151 701 l 151 775 b 56 893 151 864 129 890 l 25 894 l 25 919 l 422 919 l 422 894 l 393 893 b 297 775 319 890 297 864 l 297 701 l 707 701 l 707 775 b 613 893 707 864 685 890 l 582 894 l 582 919 l 979 919 l 979 894 l 949 893 b 853 775 875 890 853 864 l 853 701 l 979 701 l 979 646 l 853 646 l 853 144 b 949 26 853 56 875 29 l 979 25 l 979 0 l 582 0 l 582 25 l 613 26 b 707 144 685 29 707 56 l 707 438 l 297 438 l 297 144 b 393 26 297 56 319 29 l 422 25 l 422 0 l 25 0 l 25 25 l 56 26 b 151 144 129 29 151 56 l 151 646 m 297 500 l 707 500 l 707 646 l 297 646 "},"ħ":{"ha":694,"x_min":0,"x_max":0,"o":"m 224 758 l 386 758 l 386 708 l 224 708 l 224 525 b 435 644 313 617 363 644 b 563 565 489 644 540 613 b 590 397 583 522 590 479 l 590 169 b 668 24 590 46 600 26 l 682 24 l 682 0 l 388 0 l 388 24 l 403 24 b 481 169 471 26 481 46 l 481 397 b 468 500 481 439 476 478 b 382 564 457 538 419 564 b 224 475 333 564 294 542 l 224 169 b 303 24 224 46 235 25 l 321 24 l 321 0 l 11 0 l 11 24 l 35 24 b 114 169 103 26 114 46 l 114 708 l 25 708 l 25 758 l 114 758 b 63 835 114 814 100 835 b 35 831 53 835 43 833 l 21 825 l 11 844 b 224 942 114 888 128 894 "},"Ĩ":{"ha":463,"x_min":0,"x_max":0,"o":"m 25 26 b 160 151 142 31 158 46 l 160 768 b 25 893 158 872 143 886 l 25 919 l 438 919 l 438 893 b 301 768 322 889 304 872 l 301 151 b 438 26 304 49 324 29 l 438 0 l 25 0 m 460 1172 b 314 1025 431 1067 390 1025 b 201 1058 279 1025 258 1031 l 169 1074 b 113 1089 149 1083 128 1089 b 42 1025 81 1089 57 1068 l 1 1025 b 142 1165 22 1115 72 1165 b 239 1140 172 1165 207 1157 l 272 1124 b 346 1103 299 1110 325 1103 b 419 1172 378 1103 396 1119 "},"ĩ":{"ha":386,"x_min":0,"x_max":0,"o":"m 32 21 b 142 142 126 25 139 39 l 142 464 b 96 547 142 525 129 547 b 49 543 83 547 65 546 l 38 542 l 38 563 l 253 639 l 258 635 l 258 142 b 361 21 260 40 269 28 l 361 0 l 32 0 m 425 886 b 279 739 396 781 356 739 b 167 772 244 739 224 744 l 135 788 b 78 803 114 797 94 803 b 7 739 46 803 22 782 l -33 739 b 107 879 -12 829 38 879 b 204 854 138 879 172 871 l 238 838 b 311 817 264 825 290 817 b 385 886 343 817 361 833 "},"Ī":{"ha":463,"x_min":0,"x_max":0,"o":"m 25 26 b 160 151 142 31 158 46 l 160 768 b 25 893 158 872 143 886 l 25 919 l 438 919 l 438 893 b 301 768 322 889 304 872 l 301 151 b 438 26 304 49 324 29 l 438 0 l 25 0 m 447 1129 l 447 1054 l 15 1054 l 15 1129 "},"ī":{"ha":386,"x_min":0,"x_max":0,"o":"m 22 21 b 132 142 117 25 129 39 l 132 464 b 86 547 132 525 119 547 b 39 543 74 547 56 546 l 28 542 l 28 563 l 243 639 l 249 635 l 249 142 b 351 21 250 40 260 28 l 351 0 l 22 0 m 393 835 l 393 760 l -35 760 l -35 835 "},"Ĭ":{"ha":463,"x_min":0,"x_max":0,"o":"m 25 26 b 160 151 142 31 158 46 l 160 768 b 25 893 158 872 143 886 l 25 919 l 438 919 l 438 893 b 301 768 322 889 304 872 l 301 151 b 438 26 304 49 324 29 l 438 0 l 25 0 m 426 1208 b 229 990 410 1061 346 990 b 74 1065 164 990 108 1017 b 36 1208 47 1104 38 1138 l 76 1208 b 232 1074 96 1115 143 1074 b 386 1208 313 1074 346 1103 "},"ĭ":{"ha":386,"x_min":0,"x_max":0,"o":"m 253 169 b 332 24 253 46 264 26 l 354 24 l 354 0 l 40 0 l 40 24 l 64 24 b 143 169 135 28 142 40 l 143 450 b 93 546 143 528 133 546 b 65 542 82 546 75 544 l 50 536 l 40 557 b 253 653 143 599 158 606 m 346 889 b 189 726 317 775 269 726 b 32 889 110 726 63 775 l 65 889 b 189 810 89 840 135 810 b 314 889 243 810 290 840 "},"Į":{"ha":463,"x_min":0,"x_max":0,"o":"m 438 919 l 438 893 b 301 768 322 889 304 872 l 301 151 b 438 26 304 49 324 29 l 438 0 b 411 -18 432 -1 426 -6 b 372 -97 385 -44 372 -69 b 425 -151 372 -129 394 -151 b 524 -101 454 -151 481 -139 l 551 -124 b 396 -229 500 -197 453 -229 b 294 -125 338 -229 294 -183 b 369 0 294 -78 315 -43 l 25 0 l 25 26 b 160 151 142 31 158 46 l 160 768 b 25 893 158 872 143 886 l 25 919 "},"į":{"ha":386,"x_min":0,"x_max":0,"o":"m 257 142 b 360 21 258 40 268 28 l 360 0 l 314 0 b 215 -97 261 0 215 -46 b 268 -151 215 -129 238 -151 b 367 -101 297 -151 324 -139 l 394 -124 b 239 -229 343 -197 296 -229 b 138 -125 181 -229 138 -183 b 213 0 138 -78 158 -43 l 31 0 l 31 21 b 140 142 125 25 138 39 l 140 464 b 94 547 140 525 128 547 b 47 543 82 547 64 546 l 36 542 l 36 563 l 251 639 l 257 635 m 186 949 b 258 878 226 949 258 918 b 186 807 258 838 228 807 b 117 878 147 807 117 838 b 186 949 117 917 149 949 "},"İ":{"ha":463,"x_min":0,"x_max":0,"o":"m 25 26 b 160 151 142 31 158 46 l 160 768 b 25 893 158 872 143 886 l 25 919 l 438 919 l 438 893 b 301 768 322 889 304 872 l 301 151 b 438 26 304 49 324 29 l 438 0 l 25 0 m 231 1160 b 300 1090 268 1160 300 1128 b 231 1021 300 1051 268 1021 b 164 1092 193 1021 164 1051 b 231 1160 164 1128 194 1160 "},"ı":{"ha":386,"x_min":0,"x_max":0,"o":"m 22 21 b 132 142 117 25 129 39 l 132 464 b 86 547 132 525 119 547 b 39 543 74 547 56 546 l 28 542 l 28 563 l 243 639 l 249 635 l 249 142 b 351 21 250 40 260 28 l 351 0 l 22 0 "},"Ĳ":{"ha":983,"x_min":0,"x_max":0,"o":"m 422 0 l 25 0 l 25 25 l 56 26 b 151 143 129 29 151 56 l 151 776 b 56 893 151 864 129 890 l 25 894 l 25 919 l 422 919 l 422 894 l 392 893 b 297 776 318 890 297 864 l 297 143 b 392 26 297 56 318 29 l 422 25 m 576 919 l 975 919 l 975 894 l 947 893 b 853 776 874 890 851 864 l 853 268 b 617 -10 853 99 761 -10 b 472 93 531 -10 472 32 b 542 157 472 131 500 157 b 631 81 582 157 600 142 b 669 47 640 60 654 47 b 710 200 700 47 710 83 l 710 776 b 607 893 707 857 676 893 l 576 894 "},"ĳ":{"ha":767,"x_min":0,"x_max":0,"o":"m 272 169 b 351 24 272 46 283 26 l 374 24 l 374 0 l 60 0 l 60 24 l 83 24 b 163 169 154 28 161 40 l 163 450 b 113 546 163 528 153 546 b 85 542 101 546 94 544 l 69 536 l 60 557 b 272 653 163 599 178 606 m 210 919 b 281 849 249 919 281 888 b 210 776 281 808 249 776 b 138 849 169 776 138 808 b 210 919 138 888 169 919 m 629 93 b 600 -110 629 -28 624 -62 b 404 -221 563 -179 489 -221 b 293 -150 340 -221 293 -190 b 350 -96 293 -121 318 -96 b 424 -135 372 -96 393 -107 b 471 -161 443 -154 457 -161 b 519 0 507 -161 519 -122 l 519 450 b 469 546 519 528 510 546 b 442 542 457 546 450 544 l 426 536 l 417 557 b 629 653 519 599 533 606 m 565 919 b 636 849 604 919 636 888 b 565 776 636 808 604 776 b 493 849 525 776 493 808 b 565 919 493 888 525 919 "},"Ĵ":{"ha":540,"x_min":0,"x_max":0,"o":"m 522 893 b 394 768 410 885 397 872 l 394 254 b 160 -19 394 81 310 -19 b 22 81 79 -19 22 22 b 90 150 22 118 53 150 b 163 79 126 150 149 128 b 200 33 172 44 181 33 b 253 125 236 33 253 63 l 253 768 b 124 893 251 871 236 885 l 124 919 l 522 919 m 500 1011 l 331 1154 l 163 1011 l 115 1011 l 288 1243 l 374 1243 l 547 1011 "},"ĵ":{"ha":386,"x_min":0,"x_max":0,"o":"m 268 0 b 188 -249 268 -110 238 -204 b 33 -303 150 -283 94 -303 b -97 -226 -43 -303 -97 -271 b -40 -172 -97 -196 -72 -172 b 26 -217 -18 -172 1 -185 b 85 -256 50 -246 64 -256 b 132 -231 104 -256 124 -244 b 151 -62 147 -203 151 -168 l 151 464 b 107 547 151 524 139 547 b 51 543 93 547 72 546 l 44 542 l 44 564 b 261 639 126 589 179 607 l 268 635 m 358 704 l 189 847 l 21 704 l -26 704 l 146 936 l 232 936 l 406 704 "},"Ķ":{"ha":1003,"x_min":0,"x_max":0,"o":"m 574 919 l 938 919 l 938 893 b 726 785 843 886 821 875 l 463 524 l 786 176 b 1004 26 913 42 932 28 l 1004 0 l 581 0 l 581 26 b 619 28 597 28 613 28 b 678 58 660 29 678 39 b 497 294 678 92 603 189 l 350 440 l 314 411 l 314 151 b 439 26 315 49 332 33 l 439 0 l 47 0 l 47 26 b 172 167 156 33 171 49 l 172 768 b 47 893 169 869 154 886 l 47 919 l 442 919 l 442 893 b 314 768 329 885 315 872 l 314 483 l 560 707 b 668 850 636 778 668 819 b 574 893 668 883 657 889 m 431 -364 b 544 -217 506 -312 544 -261 b 525 -197 544 -206 536 -197 b 515 -200 524 -197 522 -197 b 488 -203 507 -201 497 -203 b 406 -132 436 -203 406 -176 b 488 -53 406 -85 439 -53 b 599 -176 550 -53 599 -107 b 443 -390 599 -260 536 -344 "},"ķ":{"ha":694,"x_min":0,"x_max":0,"o":"m 10 21 b 114 114 108 36 113 40 l 114 783 b 54 868 114 850 101 868 b 10 865 40 868 28 867 l 10 888 l 51 899 b 225 949 132 921 172 932 l 231 946 l 231 363 l 421 532 b 453 581 440 550 453 568 b 383 606 453 599 438 604 l 383 625 l 667 625 l 667 604 b 367 429 578 607 540 585 l 326 392 l 539 122 b 701 21 597 51 640 25 l 701 0 l 399 0 l 399 21 l 425 21 b 454 42 442 21 454 29 b 439 71 454 49 450 57 b 425 89 435 75 431 82 l 231 349 l 231 93 b 307 22 232 42 249 26 l 335 21 l 335 0 l 10 0 m 276 -364 b 390 -217 351 -312 390 -261 b 371 -197 390 -206 382 -197 b 361 -200 369 -197 368 -197 b 333 -203 353 -201 343 -203 b 251 -132 282 -203 251 -176 b 333 -53 251 -85 285 -53 b 444 -176 396 -53 444 -107 b 289 -390 444 -260 382 -344 "},"ĸ":{"ha":694,"x_min":0,"x_max":0,"o":"m 251 169 b 331 24 250 46 261 25 l 349 24 l 349 0 l 43 0 l 43 24 l 63 24 b 142 169 131 26 142 46 l 142 450 b 129 531 142 506 140 517 b 90 547 122 542 107 547 b 63 542 83 547 72 544 l 47 538 l 39 557 b 251 653 140 599 156 606 l 251 364 l 414 544 b 436 586 428 560 436 575 b 401 611 436 601 424 610 l 394 611 l 394 635 l 640 635 l 640 611 l 622 610 b 465 519 556 604 528 588 l 340 385 l 503 161 b 685 24 582 47 614 24 l 685 0 l 394 0 l 394 24 l 408 24 b 436 44 426 24 436 31 b 413 90 436 53 426 72 l 251 319 "},"Ĺ":{"ha":849,"x_min":0,"x_max":0,"o":"m 408 893 b 279 768 300 888 282 869 l 279 111 b 399 54 281 61 292 57 l 492 54 b 796 242 671 60 731 96 l 831 242 l 764 0 l 17 0 l 17 26 b 138 151 117 32 135 51 l 138 768 b 17 893 135 868 118 886 l 17 919 l 408 919 m 154 999 l 358 1204 b 418 1236 385 1229 396 1236 b 465 1192 447 1236 465 1219 b 424 1133 465 1169 453 1151 l 210 999 "},"ĺ":{"ha":386,"x_min":0,"x_max":0,"o":"m 29 21 b 136 121 115 26 135 46 l 136 783 b 78 868 136 849 122 868 b 35 865 67 868 50 867 l 26 865 l 26 888 b 247 949 122 911 175 925 l 253 946 l 253 117 b 357 21 254 39 269 25 l 357 0 l 29 0 m 82 999 l 286 1204 b 344 1236 311 1229 324 1236 b 393 1192 375 1236 393 1219 b 351 1133 393 1169 381 1151 l 138 999 "},"Ļ":{"ha":849,"x_min":0,"x_max":0,"o":"m 408 893 b 279 768 300 888 282 869 l 279 111 b 399 54 281 61 292 57 l 492 54 b 796 242 671 60 731 96 l 831 242 l 764 0 l 17 0 l 17 26 b 138 151 117 32 135 51 l 138 768 b 17 893 135 868 118 886 l 17 919 l 408 919 m 353 -364 b 467 -217 428 -312 467 -261 b 447 -197 467 -206 458 -197 b 438 -200 446 -197 444 -197 b 410 -203 429 -201 419 -203 b 328 -132 358 -203 328 -176 b 410 -53 328 -85 361 -53 b 521 -176 472 -53 521 -107 b 365 -390 521 -260 458 -344 "},"ļ":{"ha":386,"x_min":0,"x_max":0,"o":"m 29 21 b 136 121 115 26 135 46 l 136 783 b 78 868 136 849 122 868 b 35 865 67 868 50 867 l 26 865 l 26 888 b 247 949 122 911 175 925 l 253 946 l 253 117 b 357 21 254 39 269 25 l 357 0 l 29 0 m 122 -364 b 236 -217 197 -312 236 -261 b 217 -197 236 -206 228 -197 b 207 -200 215 -197 214 -197 b 179 -203 199 -201 189 -203 b 97 -132 128 -203 97 -176 b 179 -53 97 -85 131 -53 b 290 -176 242 -53 290 -107 b 135 -390 290 -260 228 -344 "},"Ľ":{"ha":849,"x_min":0,"x_max":0,"o":"m 408 893 b 279 768 300 888 282 869 l 279 111 b 399 54 281 61 292 57 l 492 54 b 796 242 671 60 731 96 l 831 242 l 764 0 l 17 0 l 17 26 b 138 151 117 32 135 51 l 138 768 b 17 893 135 868 118 886 l 17 919 l 408 919 m 518 628 b 632 775 593 679 632 729 b 613 794 632 786 624 794 b 603 792 611 794 610 794 b 575 789 594 790 585 789 b 493 860 524 789 493 815 b 575 939 493 907 526 939 b 686 815 638 939 686 885 b 531 601 686 732 624 647 "},"ľ":{"ha":478,"x_min":0,"x_max":0,"o":"m 364 628 b 478 775 439 679 478 729 b 458 794 478 786 469 794 b 449 792 457 794 456 794 b 421 789 440 790 431 789 b 339 860 369 789 339 815 b 421 939 339 907 372 939 b 532 815 483 939 532 885 b 376 601 532 732 469 647 m 26 21 b 133 121 113 26 132 46 l 133 783 b 75 868 133 849 119 868 b 32 865 64 868 47 867 l 24 865 l 24 888 b 244 949 119 911 172 925 l 250 946 l 250 117 b 354 21 251 39 267 25 l 354 0 l 26 0 "},"Ŀ":{"ha":849,"x_min":0,"x_max":0,"o":"m 408 893 b 279 768 300 888 282 869 l 279 111 b 399 54 281 61 292 57 l 492 54 b 796 242 671 60 731 96 l 831 242 l 764 0 l 17 0 l 17 26 b 138 151 117 32 135 51 l 138 768 b 17 893 135 868 118 886 l 17 919 l 408 919 m 563 542 b 640 463 604 542 640 506 b 561 388 640 421 604 388 b 486 463 521 388 486 422 b 563 542 486 507 521 542 "},"ŀ":{"ha":478,"x_min":0,"x_max":0,"o":"m 429 542 b 507 463 471 542 507 506 b 428 388 507 421 471 388 b 353 463 388 388 353 422 b 429 542 353 507 388 542 m 29 21 b 136 121 115 26 135 46 l 136 783 b 78 868 136 849 122 868 b 35 865 67 868 50 867 l 26 865 l 26 888 b 247 949 122 911 175 925 l 253 946 l 253 117 b 357 21 254 39 269 25 l 357 0 l 29 0 "},"Ł":{"ha":849,"x_min":0,"x_max":0,"o":"m 138 768 b 17 893 135 868 118 886 l 17 919 l 408 919 l 408 893 b 279 768 300 888 282 869 l 279 533 l 494 657 l 494 589 l 279 465 l 279 111 b 399 54 281 61 292 57 l 492 54 b 796 242 671 60 731 96 l 831 242 l 764 0 l 17 0 l 17 26 b 138 151 117 32 135 51 l 138 383 l 17 314 l 17 382 l 138 451 "},"ł":{"ha":386,"x_min":0,"x_max":0,"o":"m 136 783 b 78 868 136 849 122 868 b 35 865 67 868 50 867 l 26 865 l 26 888 b 247 949 122 911 175 925 l 253 946 l 253 582 l 360 656 l 360 594 l 253 521 l 253 117 b 357 21 254 39 269 25 l 357 0 l 29 0 l 29 21 b 136 121 115 26 135 46 l 136 442 l 28 367 l 28 428 l 136 503 "},"Ń":{"ha":1003,"x_min":0,"x_max":0,"o":"m 982 893 b 850 715 872 883 854 860 l 850 -15 l 826 -15 l 213 749 l 213 204 b 343 26 215 61 236 32 l 343 0 l 17 0 l 17 26 b 151 204 131 33 149 57 l 151 817 b 17 893 96 882 76 893 l 17 919 l 254 919 l 789 247 l 789 715 b 656 893 785 863 767 886 l 656 919 l 982 919 m 400 999 l 604 1204 b 663 1236 629 1229 642 1236 b 711 1192 693 1236 711 1219 b 669 1133 711 1169 699 1151 l 456 999 "},"ń":{"ha":694,"x_min":0,"x_max":0,"o":"m 25 21 b 111 125 94 25 110 43 l 111 469 b 60 558 111 538 99 558 b 22 553 44 558 31 557 l 22 576 b 214 639 99 599 146 614 l 224 636 l 224 526 b 425 639 318 615 361 639 b 589 431 528 639 589 561 l 589 113 b 674 21 590 44 606 28 l 674 0 l 385 0 l 385 21 b 472 138 453 25 469 47 l 472 428 b 371 563 472 519 439 563 b 228 483 325 563 293 546 l 228 93 b 319 21 228 43 250 25 l 319 0 l 25 0 m 225 704 l 429 910 b 489 942 456 935 467 942 b 536 897 518 942 536 925 b 494 839 536 875 524 857 l 281 704 "},"Ņ":{"ha":1003,"x_min":0,"x_max":0,"o":"m 982 893 b 850 715 872 883 854 860 l 850 -15 l 826 -15 l 213 749 l 213 204 b 343 26 215 61 236 32 l 343 0 l 17 0 l 17 26 b 151 204 131 33 149 57 l 151 817 b 17 893 96 882 76 893 l 17 919 l 254 919 l 789 247 l 789 715 b 656 893 785 863 767 886 l 656 919 l 982 919 m 458 -364 b 572 -217 533 -312 572 -261 b 553 -197 572 -206 564 -197 b 543 -200 551 -197 550 -197 b 515 -203 535 -201 525 -203 b 433 -132 464 -203 433 -176 b 515 -53 433 -85 467 -53 b 626 -176 578 -53 626 -107 b 471 -390 626 -260 565 -344 "},"ņ":{"ha":694,"x_min":0,"x_max":0,"o":"m 25 21 b 111 125 94 25 110 43 l 111 469 b 60 558 111 538 99 558 b 22 553 44 558 31 557 l 22 576 b 214 639 99 599 146 614 l 224 636 l 224 526 b 425 639 318 615 361 639 b 589 431 528 639 589 561 l 589 113 b 674 21 590 44 606 28 l 674 0 l 385 0 l 385 21 b 472 138 453 25 469 47 l 472 428 b 371 563 472 519 439 563 b 228 483 325 563 293 546 l 228 93 b 319 21 228 43 250 25 l 319 0 l 25 0 m 276 -364 b 390 -217 351 -312 390 -261 b 371 -197 390 -206 382 -197 b 361 -200 369 -197 368 -197 b 333 -203 353 -201 343 -203 b 251 -132 282 -203 251 -176 b 333 -53 251 -85 285 -53 b 444 -176 396 -53 444 -107 b 289 -390 444 -260 382 -344 "},"Ň":{"ha":1003,"x_min":0,"x_max":0,"o":"m 982 893 b 850 715 872 883 854 860 l 850 -15 l 826 -15 l 213 749 l 213 204 b 343 26 215 61 236 32 l 343 0 l 17 0 l 17 26 b 151 204 131 33 149 57 l 151 817 b 17 893 96 882 76 893 l 17 919 l 254 919 l 789 247 l 789 715 b 656 893 785 863 767 886 l 656 919 l 982 919 m 544 999 l 458 999 l 286 1231 l 333 1231 l 501 1088 l 671 1231 l 718 1231 "},"ň":{"ha":694,"x_min":0,"x_max":0,"o":"m 25 21 b 111 125 94 25 110 43 l 111 469 b 60 558 111 538 99 558 b 22 553 44 558 31 557 l 22 576 b 214 639 99 599 146 614 l 224 636 l 224 526 b 425 639 318 615 361 639 b 589 431 528 639 589 561 l 589 113 b 674 21 590 44 606 28 l 674 0 l 385 0 l 385 21 b 472 138 453 25 469 47 l 472 428 b 371 563 472 519 439 563 b 228 483 325 563 293 546 l 228 93 b 319 21 228 43 250 25 l 319 0 l 25 0 m 390 704 l 304 704 l 132 936 l 179 936 l 347 793 l 517 936 l 564 936 "},"ŉ":{"ha":839,"x_min":0,"x_max":0,"o":"m 8 651 b 126 792 82 675 124 724 b 85 785 106 786 96 785 b 13 860 46 785 13 819 b 89 933 13 901 46 933 b 185 813 144 933 185 882 b 8 629 185 718 117 646 m 169 21 b 256 125 239 25 254 43 l 256 469 b 204 558 256 538 243 558 b 167 553 189 558 175 557 l 167 576 b 358 639 243 599 290 614 l 368 636 l 368 526 b 569 639 463 615 506 639 b 733 431 672 639 733 561 l 733 113 b 818 21 735 44 750 28 l 818 0 l 529 0 l 529 21 b 617 138 597 25 614 47 l 617 428 b 515 563 617 519 583 563 b 372 483 469 563 438 546 l 372 93 b 464 21 372 43 394 25 l 464 0 l 169 0 "},"Ŋ":{"ha":975,"x_min":0,"x_max":0,"o":"m 286 93 b 378 21 286 43 308 25 l 378 0 l 58 0 l 58 21 b 144 125 128 25 143 43 l 144 769 b 93 858 144 838 132 858 b 56 853 78 858 64 857 l 56 876 b 272 939 143 899 196 914 l 282 936 l 282 826 b 596 939 389 911 465 939 b 776 893 674 939 740 922 b 849 685 821 858 849 778 l 849 0 b 768 -250 849 -108 818 -204 b 599 -303 732 -283 669 -303 b 458 -226 514 -303 458 -272 b 515 -172 458 -196 483 -172 b 582 -217 538 -172 557 -185 b 640 -256 606 -246 619 -256 b 688 -231 660 -256 679 -244 b 707 -62 703 -203 707 -168 l 707 682 b 508 864 707 806 643 864 b 286 783 421 864 357 840 "},"ŋ":{"ha":688,"x_min":0,"x_max":0,"o":"m 225 93 b 317 21 225 43 247 25 l 317 0 l 22 0 l 22 21 b 108 125 92 25 107 43 l 108 469 b 57 558 108 538 96 558 b 19 553 42 558 28 557 l 19 576 b 211 639 96 599 143 614 l 221 636 l 221 526 b 422 639 315 615 358 639 b 586 431 525 639 586 561 l 586 0 b 506 -249 586 -110 556 -204 b 351 -303 468 -283 413 -303 b 221 -226 275 -303 221 -271 b 278 -172 221 -196 246 -172 b 344 -217 300 -172 319 -185 b 403 -256 368 -246 382 -256 b 450 -231 422 -256 442 -244 b 469 -62 465 -203 469 -168 l 469 428 b 368 563 469 519 436 563 b 225 483 322 563 290 546 "},"Ō":{"ha":1003,"x_min":0,"x_max":0,"o":"m 501 939 b 839 793 635 939 751 889 b 956 454 915 711 956 592 b 493 -19 956 174 767 -19 b 167 122 371 -19 247 35 b 47 460 92 201 47 329 b 501 939 47 740 236 939 m 501 889 b 303 799 425 889 357 858 b 206 457 244 733 206 599 b 322 99 206 303 251 163 b 499 31 372 56 435 31 b 683 104 572 31 635 56 b 751 206 715 136 739 171 b 797 456 779 278 797 374 b 679 819 797 621 754 751 b 501 889 629 864 565 889 m 718 1129 l 718 1054 l 286 1054 l 286 1129 "},"ō":{"ha":694,"x_min":0,"x_max":0,"o":"m 347 639 b 653 325 525 639 653 508 b 344 -14 653 132 519 -14 b 40 314 169 -14 40 125 b 347 639 40 506 165 639 m 329 600 b 165 382 229 600 165 514 b 226 114 165 283 188 186 b 361 25 256 58 307 25 b 528 276 465 25 528 118 b 329 600 528 467 446 600 m 564 835 l 564 760 l 132 760 l 132 835 "},"Ŏ":{"ha":1003,"x_min":0,"x_max":0,"o":"m 501 939 b 839 793 635 939 751 889 b 956 454 915 711 956 592 b 493 -19 956 174 767 -19 b 167 122 371 -19 247 35 b 47 460 92 201 47 329 b 501 939 47 740 236 939 m 501 889 b 303 799 425 889 357 858 b 206 457 244 733 206 599 b 322 99 206 303 251 163 b 499 31 372 56 435 31 b 683 104 572 31 635 56 b 751 206 715 136 739 171 b 797 456 779 278 797 374 b 679 819 797 621 754 751 b 501 889 629 864 565 889 m 696 1208 b 500 990 679 1061 615 990 b 344 1065 433 990 379 1017 b 306 1208 317 1104 308 1138 l 346 1208 b 501 1074 365 1115 413 1074 b 656 1208 583 1074 617 1103 "},"ŏ":{"ha":694,"x_min":0,"x_max":0,"o":"m 347 639 b 653 325 525 639 653 508 b 344 -14 653 132 519 -14 b 40 314 169 -14 40 125 b 347 639 40 506 165 639 m 329 600 b 165 382 229 600 165 514 b 226 114 165 283 188 186 b 361 25 256 58 307 25 b 528 276 465 25 528 118 b 329 600 528 467 446 600 m 554 922 b 358 704 538 775 474 704 b 203 779 292 704 238 731 b 164 922 175 818 167 851 l 204 922 b 360 788 224 829 271 788 b 514 922 440 788 475 817 "},"Ő":{"ha":1003,"x_min":0,"x_max":0,"o":"m 501 939 b 839 793 635 939 751 889 b 956 454 915 711 956 592 b 493 -19 956 174 767 -19 b 167 122 371 -19 247 35 b 47 460 92 201 47 329 b 501 939 47 740 236 939 m 501 889 b 303 799 425 889 357 858 b 206 457 244 733 206 599 b 322 99 206 303 251 163 b 499 31 372 56 435 31 b 683 104 572 31 635 56 b 751 206 715 136 739 171 b 797 456 779 278 797 374 b 679 819 797 621 754 751 b 501 889 629 864 565 889 m 539 999 l 743 1204 b 801 1236 768 1229 781 1236 b 850 1192 832 1236 850 1219 b 808 1133 850 1169 838 1151 l 594 999 m 322 999 l 526 1204 b 585 1236 551 1229 564 1236 b 633 1192 615 1236 633 1219 b 592 1133 633 1169 621 1151 l 378 999 "},"ő":{"ha":694,"x_min":0,"x_max":0,"o":"m 347 639 b 653 325 525 639 653 508 b 344 -14 653 132 519 -14 b 40 314 169 -14 40 125 b 347 639 40 506 165 639 m 329 600 b 165 382 229 600 165 514 b 226 114 165 283 188 186 b 361 25 256 58 307 25 b 528 276 465 25 528 118 b 329 600 528 467 446 600 m 361 704 l 565 910 b 625 942 590 935 603 942 b 672 897 654 942 672 925 b 631 839 672 875 660 857 l 417 704 m 144 704 l 349 910 b 408 942 374 935 386 942 b 456 897 438 942 456 925 b 414 839 456 875 443 857 l 200 704 "},"Œ":{"ha":1235,"x_min":0,"x_max":0,"o":"m 1117 724 b 883 869 1101 847 1064 869 l 813 869 b 722 836 728 867 722 865 l 722 508 l 867 510 b 1050 644 1014 514 1040 533 l 1079 644 l 1079 319 l 1050 319 b 914 458 1040 426 1011 456 l 722 457 l 722 117 b 800 53 725 63 735 54 l 972 56 b 1181 233 1060 58 1110 101 l 1214 233 l 1153 0 l 667 0 b 540 -4 611 0 599 0 l 519 -6 l 499 -6 b 417 -8 465 -7 438 -8 b 151 99 315 -8 221 29 b 26 447 68 181 26 297 b 165 824 26 607 78 746 b 460 928 242 892 344 928 b 550 924 481 928 483 928 b 696 919 614 921 668 919 l 1149 919 l 1149 724 m 583 732 b 446 878 583 833 542 878 b 182 453 278 878 182 724 b 444 43 182 186 274 43 b 583 182 543 43 583 83 "},"œ":{"ha":1003,"x_min":0,"x_max":0,"o":"m 958 193 b 710 -14 886 43 818 -14 b 532 118 624 -14 574 24 b 328 -14 479 22 422 -14 b 42 303 160 -14 42 118 b 146 572 42 408 82 513 b 322 639 193 617 253 639 b 533 533 408 639 464 611 b 714 639 590 611 638 639 b 889 553 785 639 850 607 b 936 385 921 510 932 469 l 583 385 b 638 149 589 264 601 213 b 763 79 663 107 711 79 b 943 201 829 79 878 113 m 318 599 b 214 553 278 599 244 583 b 167 376 186 524 167 449 b 333 22 167 142 224 22 b 476 276 428 22 476 110 b 318 599 476 483 419 599 m 804 426 l 804 464 b 694 599 804 542 758 599 b 582 426 621 599 583 542 "},"Ŕ":{"ha":926,"x_min":0,"x_max":0,"o":"m 915 0 l 692 0 l 361 428 l 283 425 l 283 151 b 408 26 285 50 301 33 l 408 0 l 24 0 l 24 26 b 142 167 128 35 140 49 l 142 768 b 24 893 140 869 126 882 l 24 919 l 407 919 b 706 826 538 919 653 883 b 760 675 742 786 760 735 b 508 443 760 547 685 478 l 794 92 b 915 26 835 44 863 31 m 283 476 b 529 524 417 479 465 488 b 608 678 579 550 608 608 b 354 868 608 808 528 868 b 283 818 299 868 283 857 m 317 999 l 521 1204 b 581 1236 547 1229 558 1236 b 628 1192 610 1236 628 1219 b 586 1133 628 1169 615 1151 l 372 999 "},"ŕ":{"ha":463,"x_min":0,"x_max":0,"o":"m 7 21 b 106 117 94 36 103 44 l 106 464 b 58 547 106 525 93 547 b 10 542 42 547 29 546 l 10 564 b 215 639 92 590 142 608 l 222 636 l 222 508 b 389 639 290 608 331 639 b 465 565 436 639 465 611 b 411 503 465 526 444 503 b 356 531 393 503 378 510 b 319 551 340 544 328 551 b 222 438 281 551 222 482 l 222 125 b 340 21 225 43 247 24 l 340 0 l 7 0 m 161 704 l 365 910 b 425 942 392 935 403 942 b 472 897 454 942 472 925 b 431 839 472 875 460 857 l 217 704 "},"Ŗ":{"ha":926,"x_min":0,"x_max":0,"o":"m 915 0 l 692 0 l 361 428 l 283 425 l 283 151 b 408 26 285 50 301 33 l 408 0 l 24 0 l 24 26 b 142 167 128 35 140 49 l 142 768 b 24 893 140 869 126 882 l 24 919 l 407 919 b 706 826 538 919 653 883 b 760 675 742 786 760 735 b 508 443 760 547 685 478 l 794 92 b 915 26 835 44 863 31 m 283 476 b 529 524 417 479 465 488 b 608 678 579 550 608 608 b 354 868 608 808 528 868 b 283 818 299 868 283 857 m 417 -364 b 531 -217 492 -311 531 -261 b 511 -197 531 -206 522 -197 b 501 -200 510 -197 508 -197 b 474 -203 493 -201 483 -203 b 392 -132 422 -203 392 -176 b 474 -53 392 -85 425 -53 b 585 -176 536 -53 585 -107 b 429 -390 585 -260 522 -344 "},"ŗ":{"ha":463,"x_min":0,"x_max":0,"o":"m 7 21 b 106 117 94 36 103 44 l 106 464 b 58 547 106 525 93 547 b 10 542 42 547 29 546 l 10 564 b 215 639 92 590 142 608 l 222 636 l 222 508 b 389 639 290 608 331 639 b 465 565 436 639 465 611 b 411 503 465 526 444 503 b 356 531 393 503 378 510 b 319 551 340 544 328 551 b 222 438 281 551 222 482 l 222 125 b 340 21 225 43 247 24 l 340 0 l 7 0 m 104 -364 b 218 -217 179 -312 218 -261 b 199 -197 218 -206 210 -197 b 189 -200 197 -197 196 -197 b 161 -203 181 -201 171 -203 b 79 -132 110 -203 79 -176 b 161 -53 79 -85 113 -53 b 272 -176 224 -53 272 -107 b 117 -390 272 -260 210 -344 "},"Ř":{"ha":926,"x_min":0,"x_max":0,"o":"m 915 0 l 692 0 l 361 428 l 283 425 l 283 151 b 408 26 285 50 301 33 l 408 0 l 24 0 l 24 26 b 142 167 128 35 140 49 l 142 768 b 24 893 140 869 126 882 l 24 919 l 407 919 b 706 826 538 919 653 883 b 760 675 742 786 760 735 b 508 443 760 547 685 478 l 794 92 b 915 26 835 44 863 31 m 283 476 b 529 524 417 479 465 488 b 608 678 579 550 608 608 b 354 868 608 808 528 868 b 283 818 299 868 283 857 m 438 999 l 351 999 l 179 1231 l 226 1231 l 394 1088 l 564 1231 l 611 1231 "},"ř":{"ha":463,"x_min":0,"x_max":0,"o":"m 7 21 b 106 117 94 36 103 44 l 106 464 b 58 547 106 525 93 547 b 10 542 42 547 29 546 l 10 564 b 215 639 92 590 142 608 l 222 636 l 222 508 b 389 639 290 608 331 639 b 465 565 436 639 465 611 b 411 503 465 526 444 503 b 356 531 393 503 378 510 b 319 551 340 544 328 551 b 222 438 281 551 222 482 l 222 125 b 340 21 225 43 247 24 l 340 0 l 7 0 m 274 704 l 188 704 l 15 936 l 63 936 l 231 793 l 400 936 l 447 936 "},"Ś":{"ha":772,"x_min":0,"x_max":0,"o":"m 651 643 l 617 643 b 532 806 594 725 575 761 b 363 882 483 856 425 882 b 218 754 276 882 218 831 b 422 538 218 678 276 617 b 682 233 606 438 682 347 b 399 -19 682 90 560 -19 b 235 13 344 -19 288 -8 b 169 28 208 22 185 28 b 131 -18 149 28 132 8 l 100 -18 l 58 276 l 90 276 b 371 31 160 107 246 31 b 542 186 472 31 542 94 b 522 268 542 221 535 250 b 315 431 488 321 415 376 b 99 701 160 513 99 590 b 172 875 99 774 124 832 b 338 939 218 915 279 939 b 486 908 383 939 435 928 b 547 892 510 897 533 892 b 592 939 571 892 586 907 l 621 939 m 285 999 l 489 1204 b 547 1236 514 1229 526 1236 b 596 1192 578 1236 596 1219 b 554 1133 596 1169 583 1151 l 340 999 "},"ś":{"ha":540,"x_min":0,"x_max":0,"o":"m 417 436 b 264 607 385 561 343 607 b 157 513 200 607 157 569 b 217 418 157 475 178 440 l 367 329 b 483 164 451 279 483 233 b 288 -14 483 67 396 -14 b 186 0 260 -14 224 -8 b 122 11 154 8 138 11 b 90 -6 106 11 100 8 l 72 -6 l 72 211 l 94 211 b 271 17 126 69 175 17 b 386 117 342 17 386 56 b 314 221 386 160 363 193 l 233 267 b 71 467 115 333 71 389 b 260 639 71 567 150 639 b 357 621 293 639 325 632 b 394 611 372 614 386 611 b 417 626 401 611 408 615 l 432 626 l 438 436 m 158 704 l 363 910 b 421 942 388 935 400 942 b 469 897 451 942 469 925 b 428 839 469 875 457 857 l 214 704 "},"Ŝ":{"ha":772,"x_min":0,"x_max":0,"o":"m 119 0 l 119 311 l 147 311 b 199 157 157 236 169 200 b 386 50 242 90 314 50 b 546 199 476 50 546 115 b 492 315 546 242 531 275 b 403 385 465 342 432 367 l 294 446 b 114 690 167 521 114 592 b 358 929 114 832 213 929 b 485 906 400 929 431 924 b 557 886 540 888 544 886 b 596 919 574 886 585 896 l 624 919 l 624 628 l 599 628 b 508 815 567 732 544 778 b 376 868 475 850 431 868 b 232 743 293 868 232 815 b 367 581 232 688 281 629 l 474 518 b 681 244 615 436 681 351 b 408 -10 681 96 567 -10 b 240 26 354 -10 354 -10 b 189 38 219 33 201 38 b 146 0 167 38 156 28 m 567 999 l 397 1142 l 229 999 l 182 999 l 354 1231 l 440 1231 l 614 999 "},"ŝ":{"ha":540,"x_min":0,"x_max":0,"o":"m 417 436 b 264 607 385 561 343 607 b 157 513 200 607 157 569 b 217 418 157 475 178 440 l 367 329 b 483 164 451 279 483 233 b 288 -14 483 67 396 -14 b 186 0 260 -14 224 -8 b 122 11 154 8 138 11 b 90 -6 106 11 100 8 l 72 -6 l 72 211 l 94 211 b 271 17 126 69 175 17 b 386 117 342 17 386 56 b 314 221 386 160 363 193 l 233 267 b 71 467 115 333 71 389 b 260 639 71 567 150 639 b 357 621 293 639 325 632 b 394 611 372 614 386 611 b 417 626 401 611 408 615 l 432 626 l 438 436 m 443 704 l 274 847 l 106 704 l 58 704 l 231 936 l 317 936 l 490 704 "},"Ş":{"ha":772,"x_min":0,"x_max":0,"o":"m 363 -90 b 399 -86 375 -87 385 -86 b 518 -182 474 -86 518 -121 b 344 -299 518 -254 451 -299 b 228 -276 300 -299 267 -293 l 247 -233 b 338 -250 285 -246 308 -250 b 414 -189 385 -250 414 -226 b 340 -139 414 -153 393 -139 b 301 -144 322 -139 313 -140 l 292 -137 l 342 -15 b 235 13 303 -10 271 -3 b 169 28 208 22 185 28 b 131 -18 149 28 132 8 l 100 -18 l 58 276 l 90 276 b 371 31 160 107 246 31 b 542 186 472 31 542 94 b 522 268 542 221 535 250 b 315 431 488 321 415 376 b 99 701 160 513 99 590 b 172 875 99 774 124 832 b 338 939 218 915 279 939 b 486 908 383 939 435 928 b 547 892 510 897 533 892 b 592 939 571 892 586 907 l 621 939 l 651 643 l 617 643 b 532 806 594 725 575 761 b 363 882 483 856 425 882 b 218 754 276 882 218 831 b 422 538 218 678 276 617 b 682 233 606 438 682 347 b 401 -19 682 92 560 -19 l 389 -19 "},"ş":{"ha":540,"x_min":0,"x_max":0,"o":"m 246 -90 b 282 -86 260 -87 268 -86 b 401 -182 357 -86 401 -121 b 228 -299 401 -254 335 -299 b 111 -276 185 -299 151 -292 l 131 -233 b 221 -250 168 -246 192 -250 b 297 -189 268 -250 297 -226 b 224 -139 297 -153 276 -139 b 185 -144 207 -139 196 -140 l 175 -137 l 229 -8 b 186 0 211 -6 203 -3 b 122 11 153 8 138 11 b 90 -6 106 11 100 8 l 72 -6 l 72 211 l 94 211 b 271 17 126 69 175 17 b 386 117 342 17 386 56 b 314 221 386 160 363 193 l 233 267 b 71 467 115 333 71 389 b 260 639 71 567 150 639 b 357 621 293 639 325 632 b 394 611 372 614 386 611 b 417 626 401 611 408 615 l 432 626 l 438 436 l 417 436 b 264 607 385 561 343 607 b 157 513 200 607 157 569 b 217 418 157 475 178 440 l 367 329 b 483 164 451 279 483 233 b 290 -14 483 67 396 -14 l 275 -14 "},"Š":{"ha":772,"x_min":0,"x_max":0,"o":"m 651 643 l 617 643 b 532 806 594 725 575 761 b 363 882 483 856 425 882 b 218 754 276 882 218 831 b 422 538 218 678 276 617 b 682 233 606 438 682 347 b 399 -19 682 90 560 -19 b 235 13 344 -19 288 -8 b 169 28 208 22 185 28 b 131 -18 149 28 132 8 l 100 -18 l 58 276 l 90 276 b 371 31 160 107 246 31 b 542 186 472 31 542 94 b 522 268 542 221 535 250 b 315 431 488 321 415 376 b 99 701 160 513 99 590 b 172 875 99 774 124 832 b 338 939 218 915 279 939 b 486 908 383 939 435 928 b 547 892 510 897 533 892 b 592 939 571 892 586 907 l 621 939 m 429 999 l 343 999 l 171 1231 l 218 1231 l 386 1088 l 556 1231 l 603 1231 "},"š":{"ha":540,"x_min":0,"x_max":0,"o":"m 417 436 b 264 607 385 561 343 607 b 157 513 200 607 157 569 b 217 418 157 475 178 440 l 367 329 b 483 164 451 279 483 233 b 288 -14 483 67 396 -14 b 186 0 260 -14 224 -8 b 122 11 154 8 138 11 b 90 -6 106 11 100 8 l 72 -6 l 72 211 l 94 211 b 271 17 126 69 175 17 b 386 117 342 17 386 56 b 314 221 386 160 363 193 l 233 267 b 71 467 115 333 71 389 b 260 639 71 567 150 639 b 357 621 293 639 325 632 b 394 611 372 614 386 611 b 417 626 401 611 408 615 l 432 626 l 438 436 m 313 704 l 226 704 l 54 936 l 101 936 l 269 793 l 439 936 l 486 936 "},"Ţ":{"ha":849,"x_min":0,"x_max":0,"o":"m 628 0 l 222 0 l 222 26 b 353 167 339 33 351 47 l 353 861 l 278 861 b 57 683 118 858 89 835 l 24 683 l 32 919 l 815 919 l 824 683 l 790 683 b 569 861 760 835 731 858 l 494 861 l 494 151 b 628 26 496 50 514 32 m 353 -364 b 467 -217 428 -312 467 -261 b 447 -197 467 -206 458 -197 b 438 -200 446 -197 444 -197 b 410 -203 429 -201 419 -203 b 328 -132 358 -203 328 -176 b 410 -53 328 -85 361 -53 b 521 -176 472 -53 521 -107 b 365 -390 521 -260 458 -344 "},"ţ":{"ha":386,"x_min":0,"x_max":0,"o":"m 354 581 l 214 581 l 214 183 b 286 58 214 96 235 58 b 369 107 317 58 339 71 l 388 92 b 221 -14 342 19 289 -14 b 97 163 139 -14 97 46 l 97 581 l 24 581 b 18 590 19 583 18 586 b 42 617 18 599 26 607 b 204 804 82 640 124 688 b 214 786 211 804 214 800 l 214 625 l 354 625 m 135 -364 b 249 -217 210 -312 249 -262 b 229 -197 249 -206 240 -197 b 219 -200 228 -197 226 -197 b 192 -203 211 -201 201 -203 b 110 -132 140 -203 110 -176 b 192 -53 110 -85 143 -53 b 303 -176 254 -53 303 -107 b 147 -390 303 -260 240 -344 "},"Ť":{"ha":849,"x_min":0,"x_max":0,"o":"m 628 0 l 222 0 l 222 26 b 353 167 339 33 351 47 l 353 861 l 278 861 b 57 683 118 858 89 835 l 24 683 l 32 919 l 815 919 l 824 683 l 790 683 b 569 861 760 835 731 858 l 494 861 l 494 151 b 628 26 496 50 514 32 m 467 999 l 381 999 l 208 1231 l 256 1231 l 424 1088 l 593 1231 l 640 1231 "},"ť":{"ha":453,"x_min":0,"x_max":0,"o":"m 410 628 b 524 775 485 679 524 729 b 504 794 524 786 515 794 b 494 792 503 794 501 794 b 467 789 486 790 476 789 b 385 860 415 789 385 815 b 467 939 385 907 418 939 b 578 815 529 939 578 885 b 464 625 578 747 536 679 l 424 596 m 357 581 l 217 581 l 217 183 b 289 58 217 96 238 58 b 372 107 319 58 342 71 l 390 92 b 224 -14 344 19 292 -14 b 100 163 142 -14 100 46 l 100 581 l 26 581 b 21 590 22 583 21 586 b 44 617 21 599 29 607 b 207 804 85 640 126 688 b 217 786 214 804 217 800 l 217 625 l 357 625 "},"Ŧ":{"ha":849,"x_min":0,"x_max":0,"o":"m 208 439 l 208 486 l 353 486 l 353 861 l 278 861 b 57 683 118 858 89 835 l 24 683 l 32 919 l 815 919 l 824 683 l 790 683 b 569 861 760 835 731 858 l 494 861 l 494 486 l 640 486 l 640 439 l 494 439 l 494 151 b 628 26 496 49 514 32 l 628 0 l 222 0 l 222 26 b 353 167 339 33 351 47 l 353 439 "},"ŧ":{"ha":386,"x_min":0,"x_max":0,"o":"m 386 440 l 386 393 l 214 393 l 214 183 b 286 58 214 96 235 58 b 369 107 317 58 339 71 l 388 92 b 221 -14 342 19 289 -14 b 97 163 139 -14 97 46 l 97 393 l 0 393 l 0 440 l 97 440 l 97 581 l 24 581 b 18 590 19 583 18 586 b 42 617 18 599 26 607 b 204 804 82 640 124 688 b 214 786 211 804 214 800 l 214 625 l 354 625 l 354 581 l 214 581 l 214 440 "},"Ũ":{"ha":1003,"x_min":0,"x_max":0,"o":"m 979 893 b 849 715 867 881 851 861 l 849 353 b 803 124 849 246 836 182 b 493 -19 749 29 644 -19 b 144 335 257 -19 144 94 l 144 768 b 19 893 143 871 129 885 l 19 919 l 413 919 l 413 893 b 286 768 301 883 288 869 l 286 324 b 321 140 286 236 296 185 b 525 42 358 75 426 42 b 756 151 629 42 718 85 b 788 340 778 193 788 246 l 788 715 b 657 893 785 858 764 886 l 657 919 l 979 919 m 772 1178 b 626 1031 744 1071 703 1031 b 514 1064 592 1031 569 1038 l 482 1079 b 426 1094 463 1089 440 1094 b 354 1031 393 1094 371 1074 l 314 1031 b 456 1171 335 1121 385 1171 b 551 1146 485 1171 519 1161 l 585 1129 b 658 1108 611 1115 638 1108 b 732 1178 690 1108 708 1125 "},"ũ":{"ha":694,"x_min":0,"x_max":0,"o":"m 572 243 b 628 82 572 108 581 82 b 665 88 639 82 649 83 l 674 64 b 463 -14 572 32 558 26 l 463 117 b 393 44 421 71 414 64 b 260 -10 356 10 308 -10 b 128 75 197 -10 151 19 b 106 229 111 114 106 154 l 106 464 b 26 611 106 589 94 608 l 7 611 l 7 635 l 215 635 l 215 233 b 311 82 215 124 242 82 b 463 163 360 82 385 96 l 463 464 b 383 611 463 589 451 608 l 350 611 l 350 635 l 572 635 m 557 886 b 411 739 529 781 488 739 b 299 772 376 739 357 744 l 267 788 b 211 803 247 797 226 803 b 139 739 178 803 156 782 l 99 739 b 240 879 119 829 169 879 b 336 854 269 879 304 871 l 369 838 b 443 817 396 825 424 817 b 517 886 475 817 493 833 "},"Ū":{"ha":1003,"x_min":0,"x_max":0,"o":"m 979 893 b 849 715 867 881 851 861 l 849 353 b 803 124 849 246 836 182 b 493 -19 749 29 644 -19 b 144 335 257 -19 144 94 l 144 768 b 19 893 143 871 129 885 l 19 919 l 413 919 l 413 893 b 286 768 301 883 288 869 l 286 324 b 321 140 286 236 296 185 b 525 42 358 75 426 42 b 756 151 629 42 718 85 b 788 340 778 193 788 246 l 788 715 b 657 893 785 858 764 886 l 657 919 l 979 919 m 746 1129 l 746 1054 l 314 1054 l 314 1129 "},"ū":{"ha":694,"x_min":0,"x_max":0,"o":"m 665 50 b 475 -12 594 31 544 15 l 469 -10 l 469 106 l 410 46 b 267 -14 372 8 318 -14 b 99 167 165 -14 99 57 l 99 517 b 13 606 97 583 78 603 l 13 625 l 215 625 l 215 172 b 314 67 215 114 260 67 b 436 114 356 67 399 83 b 463 188 456 129 463 149 l 463 514 b 360 601 463 583 446 597 l 360 625 l 579 625 l 579 149 b 658 69 581 83 590 72 l 665 69 m 535 835 l 535 760 l 103 760 l 103 835 "},"Ŭ":{"ha":1003,"x_min":0,"x_max":0,"o":"m 979 893 b 849 715 867 881 851 861 l 849 353 b 803 124 849 246 836 182 b 493 -19 749 29 644 -19 b 144 335 257 -19 144 94 l 144 768 b 19 893 143 871 129 885 l 19 919 l 413 919 l 413 893 b 286 768 301 883 288 869 l 286 324 b 321 140 286 236 296 185 b 525 42 358 75 426 42 b 756 151 629 42 718 85 b 788 340 778 193 788 246 l 788 715 b 657 893 785 858 764 886 l 657 919 l 979 919 m 732 1215 b 535 997 714 1068 650 997 b 379 1072 468 997 414 1024 b 342 1215 351 1111 343 1144 l 382 1215 b 538 1081 400 1122 447 1081 b 692 1215 618 1081 651 1110 "},"ŭ":{"ha":694,"x_min":0,"x_max":0,"o":"m 572 243 b 628 82 572 108 581 82 b 665 88 639 82 649 83 l 674 64 b 463 -14 572 32 558 26 l 463 117 b 393 44 421 71 414 64 b 260 -10 356 10 308 -10 b 128 75 197 -10 151 19 b 106 229 111 114 106 154 l 106 464 b 26 611 106 589 94 608 l 7 611 l 7 635 l 215 635 l 215 233 b 311 82 215 124 242 82 b 463 163 360 82 385 96 l 463 464 b 383 611 463 589 451 608 l 350 611 l 350 635 l 572 635 m 496 889 b 461 799 483 843 475 824 b 325 726 433 754 381 726 b 189 799 269 726 217 754 b 154 889 174 824 165 843 l 186 889 b 325 810 210 842 264 810 b 463 889 385 810 440 842 "},"Ů":{"ha":1003,"x_min":0,"x_max":0,"o":"m 979 893 b 849 715 867 881 851 861 l 849 353 b 803 124 849 246 836 182 b 493 -19 749 29 644 -19 b 144 335 257 -19 144 94 l 144 768 b 19 893 143 871 129 885 l 19 919 l 413 919 l 413 893 b 286 768 301 883 288 869 l 286 324 b 321 140 286 236 296 185 b 525 42 358 75 426 42 b 756 151 629 42 718 85 b 788 340 778 193 788 246 l 788 715 b 657 893 785 858 764 886 l 657 919 l 979 919 m 529 1282 b 668 1143 606 1282 668 1219 b 529 1006 668 1067 606 1006 b 392 1144 451 1006 392 1067 b 529 1282 392 1219 454 1282 m 531 1235 b 439 1144 481 1235 439 1194 b 528 1053 439 1093 479 1053 b 621 1143 581 1053 621 1093 b 531 1235 621 1193 579 1235 "},"ů":{"ha":694,"x_min":0,"x_max":0,"o":"m 665 50 b 475 -12 594 31 544 15 l 469 -10 l 469 106 l 410 46 b 267 -14 372 8 318 -14 b 99 167 165 -14 99 57 l 99 517 b 13 606 97 583 78 603 l 13 625 l 215 625 l 215 172 b 314 67 215 114 260 67 b 436 114 356 67 399 83 b 463 188 456 129 463 149 l 463 514 b 360 601 463 583 446 597 l 360 625 l 579 625 l 579 149 b 658 69 581 83 590 72 l 665 69 m 326 988 b 465 849 403 988 465 925 b 326 711 465 772 403 711 b 189 850 249 711 189 772 b 326 988 189 925 251 988 m 328 940 b 236 850 278 940 236 900 b 325 758 236 799 276 758 b 418 849 378 758 418 799 b 328 940 418 899 376 940 "},"Ű":{"ha":1003,"x_min":0,"x_max":0,"o":"m 979 893 b 849 715 867 881 851 861 l 849 353 b 803 124 849 246 836 182 b 493 -19 749 29 644 -19 b 144 335 257 -19 144 94 l 144 768 b 19 893 143 871 129 885 l 19 919 l 413 919 l 413 893 b 286 768 301 883 288 869 l 286 324 b 321 140 286 236 296 185 b 525 42 358 75 426 42 b 756 151 629 42 718 85 b 788 340 778 193 788 246 l 788 715 b 657 893 785 858 764 886 l 657 919 l 979 919 m 592 999 l 796 1204 b 854 1236 821 1229 833 1236 b 903 1192 885 1236 903 1219 b 861 1133 903 1169 890 1151 l 647 999 m 375 999 l 579 1204 b 638 1236 604 1229 617 1236 b 686 1192 668 1236 686 1219 b 644 1133 686 1169 674 1151 l 431 999 "},"ű":{"ha":694,"x_min":0,"x_max":0,"o":"m 665 50 b 475 -12 594 31 544 15 l 469 -10 l 469 106 l 410 46 b 267 -14 372 8 318 -14 b 99 167 165 -14 99 57 l 99 517 b 13 606 97 583 78 603 l 13 625 l 215 625 l 215 172 b 314 67 215 114 260 67 b 436 114 356 67 399 83 b 463 188 456 129 463 149 l 463 514 b 360 601 463 583 446 597 l 360 625 l 579 625 l 579 149 b 658 69 581 83 590 72 l 665 69 m 335 704 l 539 910 b 597 942 564 935 576 942 b 646 897 628 942 646 925 b 604 839 646 875 633 857 l 390 704 m 118 704 l 322 910 b 381 942 347 935 360 942 b 429 897 411 942 429 925 b 388 839 429 875 417 857 l 174 704 "},"Ų":{"ha":1003,"x_min":0,"x_max":0,"o":"m 979 893 b 849 715 867 881 851 861 l 849 353 b 714 32 846 174 825 124 b 632 -99 656 -17 632 -56 b 685 -151 632 -129 654 -151 b 783 -101 714 -151 739 -139 l 811 -124 b 656 -229 760 -197 713 -229 b 554 -125 597 -229 554 -183 b 624 -4 554 -79 575 -44 b 490 -19 578 -14 538 -19 b 144 335 257 -19 144 96 l 144 768 b 19 893 143 871 129 885 l 19 919 l 413 919 l 413 893 b 286 768 301 883 288 869 l 286 324 b 321 140 286 236 296 185 b 525 42 358 75 426 42 b 756 151 629 42 718 85 b 788 340 778 193 788 246 l 788 715 b 657 893 785 858 764 886 l 657 919 l 979 919 "},"ų":{"ha":694,"x_min":0,"x_max":0,"o":"m 665 50 b 576 8 624 40 604 32 b 515 -97 540 -22 515 -64 b 568 -151 515 -129 538 -151 b 667 -101 597 -151 624 -139 l 694 -124 b 539 -229 643 -197 596 -229 b 438 -124 481 -229 438 -183 b 469 -40 438 -94 446 -72 l 469 106 l 410 46 b 267 -14 372 8 318 -14 b 99 167 165 -14 99 57 l 99 517 b 13 606 97 583 78 603 l 13 625 l 215 625 l 215 172 b 314 67 215 114 260 67 b 436 114 356 67 399 83 b 463 188 456 129 463 149 l 463 514 b 360 601 463 583 446 597 l 360 625 l 579 625 l 579 149 b 658 69 581 83 590 72 l 665 69 "},"Ŵ":{"ha":1311,"x_min":0,"x_max":0,"o":"m 160 767 b 54 894 124 865 107 886 l 44 894 l 44 919 l 376 919 l 376 894 l 358 893 b 299 842 317 892 299 876 b 313 782 299 826 301 813 l 492 278 l 631 658 l 578 801 b 482 894 550 871 528 892 l 463 894 l 463 919 l 818 919 l 818 894 l 794 894 b 724 838 749 893 724 872 b 743 754 724 817 731 788 l 925 278 l 1096 771 b 1110 828 1107 801 1110 814 b 1036 893 1110 869 1089 888 l 1019 894 l 1019 919 l 1292 919 l 1292 894 b 1129 672 1221 896 1189 853 l 897 -14 l 882 -14 l 668 560 l 463 -14 l 449 -14 m 838 999 l 668 1142 l 500 999 l 453 999 l 625 1231 l 711 1231 l 885 999 "},"ŵ":{"ha":1003,"x_min":0,"x_max":0,"o":"m 964 625 l 964 604 b 907 529 936 594 932 588 l 715 49 b 676 -19 693 -7 686 -19 b 643 40 667 -19 664 -12 l 517 368 l 361 35 b 326 -19 344 -3 333 -19 b 290 42 318 -19 307 -1 l 103 517 b 29 604 72 588 61 601 l 29 625 l 279 625 l 279 604 b 215 558 231 599 215 588 b 224 517 215 544 218 531 l 361 154 l 488 431 b 460 508 479 456 469 482 b 364 604 432 583 415 599 l 364 625 l 646 625 l 646 604 b 565 554 581 594 565 585 b 589 472 565 536 565 536 l 706 161 l 831 469 b 854 561 846 506 854 540 b 793 604 854 585 840 594 l 793 625 m 674 704 l 504 847 l 336 704 l 289 704 l 461 936 l 547 936 l 721 704 "},"Ŷ":{"ha":1003,"x_min":0,"x_max":0,"o":"m 211 753 b 51 892 153 854 121 882 l 19 894 l 19 919 l 438 919 l 438 894 l 418 894 b 342 850 367 894 342 881 b 379 760 342 828 353 801 l 560 475 l 739 778 b 769 854 763 817 769 836 b 713 893 769 879 750 893 l 683 894 l 683 919 l 993 919 l 993 894 l 978 893 b 788 728 904 889 857 847 l 588 392 l 588 143 b 683 26 588 56 610 29 l 721 25 l 721 0 l 307 0 l 307 25 l 342 26 b 438 143 417 29 438 56 l 438 392 m 721 999 l 551 1142 l 383 999 l 336 999 l 508 1231 l 594 1231 l 768 999 "},"ŷ":{"ha":694,"x_min":0,"x_max":0,"o":"m 181 410 b 58 610 106 601 106 603 l 38 611 l 38 635 l 310 635 l 310 611 l 299 611 b 244 567 261 611 244 597 b 271 479 244 551 251 529 l 392 176 l 500 474 b 526 571 519 526 526 553 b 474 611 526 599 508 611 l 467 611 l 467 635 l 665 635 l 665 611 l 651 610 b 561 483 608 600 599 585 l 392 32 b 289 -164 350 -76 322 -131 b 164 -219 251 -201 211 -219 b 72 -150 113 -219 72 -189 b 144 -81 72 -115 108 -81 b 213 -100 161 -81 181 -86 b 233 -106 221 -104 229 -106 b 328 22 264 -106 296 -64 m 536 704 l 367 847 l 199 704 l 151 704 l 324 936 l 410 936 l 583 704 "},"Ÿ":{"ha":1003,"x_min":0,"x_max":0,"o":"m 976 893 b 785 735 906 888 869 857 l 579 421 l 579 151 b 722 26 581 44 599 29 l 722 0 l 297 0 l 297 26 b 438 167 424 32 436 44 l 438 408 l 256 675 b 31 893 117 871 97 890 l 31 919 l 419 919 l 419 893 b 385 892 404 892 390 892 b 321 851 340 889 321 878 b 344 790 321 836 329 813 l 550 482 l 749 796 b 768 847 763 817 768 833 b 672 893 768 881 744 892 l 672 919 l 976 919 m 408 1160 b 478 1090 446 1160 478 1128 b 408 1021 478 1051 446 1021 b 342 1092 371 1021 342 1051 b 408 1160 342 1128 372 1160 m 685 1160 b 754 1090 722 1160 754 1128 b 685 1021 754 1051 722 1021 b 618 1092 647 1021 618 1051 b 685 1160 618 1128 649 1160 "},"Ź":{"ha":849,"x_min":0,"x_max":0,"o":"m 829 244 l 796 0 l 13 0 l 13 21 l 619 867 l 313 867 b 79 682 153 863 103 822 l 43 682 l 71 919 l 801 919 l 801 899 l 201 53 l 558 53 b 797 244 708 58 756 96 m 347 999 l 551 1204 b 610 1236 576 1229 589 1236 b 658 1192 640 1236 658 1219 b 617 1133 658 1169 646 1151 l 403 999 "},"ź":{"ha":617,"x_min":0,"x_max":0,"o":"m 561 0 l 38 0 l 38 21 l 407 583 l 215 583 b 99 461 129 581 110 560 l 74 461 l 78 625 l 560 625 l 560 604 l 186 42 l 378 42 b 556 193 511 46 531 63 l 581 188 m 217 704 l 421 910 b 479 942 446 935 458 942 b 528 897 510 942 528 925 b 486 839 528 875 515 857 l 272 704 "},"Ż":{"ha":849,"x_min":0,"x_max":0,"o":"m 829 244 l 796 0 l 13 0 l 13 21 l 619 867 l 313 867 b 79 682 153 863 103 822 l 43 682 l 71 919 l 801 919 l 801 899 l 201 53 l 558 53 b 797 244 708 58 756 96 m 449 1160 b 518 1090 486 1160 518 1128 b 449 1021 518 1051 486 1021 b 382 1092 411 1021 382 1051 b 449 1160 382 1128 413 1160 "},"ż":{"ha":617,"x_min":0,"x_max":0,"o":"m 561 0 l 38 0 l 38 21 l 407 583 l 215 583 b 99 461 129 581 110 560 l 74 461 l 78 625 l 560 625 l 560 604 l 186 42 l 378 42 b 556 193 511 46 531 63 l 581 188 m 324 865 b 393 796 361 865 393 833 b 324 726 393 757 361 726 b 257 797 286 726 257 757 b 324 865 257 833 288 865 "},"Ž":{"ha":849,"x_min":0,"x_max":0,"o":"m 829 244 l 796 0 l 13 0 l 13 21 l 619 867 l 313 867 b 79 682 153 863 103 822 l 43 682 l 71 919 l 801 919 l 801 899 l 201 53 l 558 53 b 797 244 708 58 756 96 m 492 999 l 406 999 l 233 1231 l 281 1231 l 449 1088 l 618 1231 l 665 1231 "},"ž":{"ha":617,"x_min":0,"x_max":0,"o":"m 561 0 l 38 0 l 38 21 l 407 583 l 215 583 b 99 461 129 581 110 560 l 74 461 l 78 625 l 560 625 l 560 604 l 186 42 l 378 42 b 556 193 511 46 531 63 l 581 188 m 358 704 l 272 704 l 100 936 l 147 936 l 315 793 l 485 936 l 532 936 "},"ſ":{"ha":386,"x_min":0,"x_max":0,"o":"m 350 0 l -11 0 l -11 21 b 104 144 88 25 101 40 l 104 581 l 42 581 l 42 625 l 104 625 b 153 847 106 736 117 786 b 349 949 189 911 263 949 b 493 863 432 949 493 913 b 436 806 493 831 468 806 b 372 856 411 806 394 819 b 299 910 347 896 329 910 b 221 786 247 910 221 867 l 221 144 b 350 21 221 40 236 26 "},"ƒ":{"ha":694,"x_min":0,"x_max":0,"o":"m 142 569 l 156 625 l 285 625 b 429 904 335 778 372 850 b 574 961 471 943 517 961 b 696 869 649 961 696 925 b 636 807 696 831 672 807 b 578 860 603 807 578 831 b 583 886 578 868 579 875 b 588 904 588 899 588 900 b 563 922 588 915 576 922 b 425 721 506 922 453 846 l 404 625 l 556 625 l 543 569 l 388 569 l 310 210 b 181 -171 275 50 229 -86 b -7 -293 135 -250 68 -293 b -122 -203 -75 -293 -122 -257 b -62 -143 -122 -167 -99 -143 b -4 -194 -32 -143 -4 -167 b -12 -226 -4 -204 -7 -212 b -17 -240 -15 -232 -17 -236 b 4 -254 -17 -247 -7 -254 b 86 -196 33 -254 67 -231 b 186 171 126 -124 126 -124 b 244 449 224 360 226 368 l 271 569 "},"Ǻ":{"ha":1003,"x_min":0,"x_max":0,"o":"m 981 0 l 626 0 l 626 26 b 724 74 700 28 724 39 b 697 167 724 93 714 129 l 640 300 l 276 300 l 213 138 b 201 83 206 119 201 100 b 296 26 201 43 229 26 l 296 0 l 21 0 l 21 26 b 193 254 88 29 104 51 l 482 936 l 510 936 l 856 147 b 981 26 904 44 918 31 m 621 357 l 460 739 l 300 357 m 488 1224 b 626 1085 564 1224 626 1161 b 488 947 626 1008 564 947 b 350 1086 410 947 350 1008 b 488 1224 350 1161 413 1224 m 489 1176 b 397 1086 439 1176 397 1136 b 486 994 397 1035 438 994 b 579 1085 539 994 579 1035 b 489 1176 579 1135 538 1176 m 357 1225 l 561 1431 b 621 1463 588 1456 599 1463 b 668 1418 650 1463 668 1446 b 626 1360 668 1396 656 1378 l 413 1225 "},"ǻ":{"ha":617,"x_min":0,"x_max":0,"o":"m 614 56 b 489 -14 565 3 536 -14 b 400 88 432 -14 407 14 b 197 -14 315 15 258 -14 b 51 135 113 -14 51 47 b 101 256 51 181 71 228 b 399 406 161 308 185 319 l 399 490 b 293 606 399 565 361 606 b 193 538 238 606 193 575 b 197 504 193 528 194 517 b 200 482 199 494 200 488 b 138 424 200 451 171 424 b 78 483 104 424 78 451 b 311 639 78 571 181 639 b 483 563 393 639 453 613 b 511 417 504 529 511 489 l 511 146 b 553 65 511 85 521 65 b 614 92 574 65 590 72 m 399 372 b 174 179 236 315 175 263 l 174 174 b 261 67 174 114 213 67 b 363 97 290 67 328 78 b 399 171 392 114 399 129 m 308 1003 b 447 864 385 1003 447 940 b 308 726 447 788 385 726 b 171 865 231 726 171 788 b 308 1003 171 940 233 1003 m 310 956 b 218 865 260 956 218 915 b 307 774 218 814 258 774 b 400 864 360 774 400 814 b 310 956 400 914 358 956 m 182 1050 l 386 1256 b 444 1288 411 1281 424 1288 b 493 1243 475 1288 493 1271 b 451 1185 493 1221 481 1203 l 238 1050 "},"Ǽ":{"ha":1235,"x_min":0,"x_max":0,"o":"m 1101 724 b 849 869 1085 850 1050 869 l 728 869 b 690 828 700 869 692 860 l 690 508 l 844 508 b 1028 643 990 511 1018 532 l 1057 643 l 1057 318 l 1028 318 b 892 457 1018 425 990 454 l 690 457 l 690 126 b 701 65 690 93 694 69 b 786 53 707 58 743 53 l 892 53 b 1165 233 1047 56 1085 81 l 1199 233 l 1138 0 l 429 0 l 429 26 l 453 29 b 553 150 540 42 550 54 l 553 361 l 308 361 l 269 288 b 181 68 213 179 181 99 b 275 26 181 47 215 32 l 276 26 l 276 0 l 0 0 l 0 26 b 122 135 60 35 76 50 l 463 807 b 475 846 471 822 475 838 b 350 892 475 876 440 889 l 350 919 l 1133 919 l 1133 724 m 553 415 l 553 858 l 332 415 m 557 1015 l 761 1221 b 819 1253 786 1246 799 1253 b 868 1208 850 1253 868 1236 b 826 1150 868 1186 856 1168 l 613 1015 "},"ǽ":{"ha":926,"x_min":0,"x_max":0,"o":"m 878 207 b 775 53 839 125 814 86 b 604 -14 726 8 668 -14 b 425 88 524 -14 472 15 b 214 -14 331 8 283 -14 b 53 139 119 -14 53 49 b 260 340 53 222 111 279 l 379 390 l 382 478 b 365 575 382 510 375 553 b 296 606 356 594 329 606 b 201 536 236 606 204 582 l 201 528 l 203 513 b 204 489 204 504 204 494 b 144 422 204 446 183 422 b 83 489 107 422 83 447 b 304 639 83 574 179 639 b 468 576 374 639 414 624 b 633 639 531 625 568 639 b 856 385 774 639 839 564 l 492 385 b 529 149 492 246 499 203 b 661 79 551 107 604 79 b 861 214 740 79 794 115 m 379 351 b 174 174 211 290 174 257 b 267 53 174 107 215 53 b 407 122 317 53 407 97 b 406 126 407 124 407 125 b 381 279 390 176 382 228 m 724 426 b 614 599 721 549 689 599 b 493 426 535 599 500 549 m 364 704 l 568 910 b 626 942 593 935 606 942 b 675 897 657 942 675 925 b 633 839 675 875 663 857 l 419 704 "},"Ǿ":{"ha":1003,"x_min":0,"x_max":0,"o":"m 792 839 b 897 710 849 786 872 758 b 956 461 935 640 956 550 b 499 -19 956 176 769 -19 b 256 50 406 -19 342 -1 l 146 -111 l 78 -111 l 210 82 b 104 211 151 135 129 163 b 47 458 68 281 47 369 b 503 939 47 740 235 939 b 746 871 594 939 657 921 l 846 1019 l 914 1019 m 304 122 b 501 31 364 57 421 31 b 797 458 685 31 797 193 b 732 750 797 582 779 660 m 697 799 b 501 889 636 863 579 889 b 206 458 319 889 206 724 b 269 171 206 336 222 260 m 400 1011 l 604 1217 b 663 1249 629 1242 642 1249 b 711 1204 693 1249 711 1232 b 669 1146 711 1182 699 1164 l 456 1011 "},"ǿ":{"ha":694,"x_min":0,"x_max":0,"o":"m 517 592 b 600 511 560 561 578 544 b 653 325 633 460 653 392 b 343 -14 653 132 519 -14 b 214 15 294 -14 263 -7 l 124 -156 l 72 -156 l 174 39 b 86 135 126 76 108 97 b 40 315 57 188 40 251 b 346 639 40 504 167 639 b 474 614 392 639 425 632 l 553 765 l 607 765 m 249 83 b 363 25 283 42 315 25 b 528 282 467 25 528 119 b 472 508 528 371 513 433 m 440 550 b 329 600 403 586 372 600 b 165 383 231 600 165 514 b 219 128 165 288 182 208 m 219 704 l 424 910 b 482 942 449 935 461 942 b 531 897 513 942 531 925 b 489 839 531 875 518 857 l 275 704 "},"Ș":{"ha":772,"x_min":0,"x_max":0,"o":"m 628 644 b 549 797 604 722 585 760 b 375 878 497 853 443 878 b 231 749 286 878 231 828 b 381 576 231 683 261 649 l 457 531 b 604 431 549 476 571 461 b 696 244 668 376 696 318 b 401 -18 696 92 572 -18 b 224 21 347 -18 297 -7 b 183 31 201 29 196 31 b 143 -12 157 31 147 21 l 110 -12 l 68 285 l 101 285 b 178 144 126 218 147 182 b 388 42 232 79 310 42 b 550 194 482 42 550 106 b 389 400 550 274 500 338 l 317 440 b 186 532 268 468 215 504 b 108 707 138 574 108 642 b 371 938 108 842 217 938 b 504 911 421 938 460 929 b 557 894 542 896 544 894 b 603 938 581 894 582 897 l 635 938 l 665 644 m 299 -404 b 411 -260 364 -365 411 -304 b 388 -236 411 -246 401 -236 b 369 -239 382 -236 381 -236 b 349 -242 363 -240 354 -242 b 276 -167 310 -242 276 -207 b 363 -87 276 -122 314 -87 b 471 -222 424 -87 471 -144 b 315 -429 471 -303 417 -375 "},"ș":{"ha":540,"x_min":0,"x_max":0,"o":"m 446 433 l 419 433 b 268 599 396 540 343 599 b 165 513 210 599 165 561 b 317 365 165 463 197 432 b 489 165 451 290 489 246 b 288 -15 489 61 404 -15 b 185 7 254 -15 236 -11 b 131 18 160 15 147 18 b 97 -1 113 18 103 13 l 76 -1 l 76 214 l 103 214 b 167 76 118 146 135 108 b 281 25 200 42 239 25 b 390 118 344 25 390 64 b 263 257 390 169 357 206 b 74 467 117 336 74 383 b 271 638 74 565 157 638 b 357 618 301 638 324 632 b 401 606 378 608 390 606 b 425 624 414 606 418 608 l 446 624 m 186 -404 b 299 -260 250 -365 299 -304 b 275 -236 299 -246 289 -236 b 257 -239 269 -236 268 -236 b 236 -242 250 -240 242 -242 b 164 -167 197 -242 164 -207 b 250 -87 164 -122 201 -87 b 358 -222 311 -87 358 -144 b 201 -429 358 -303 304 -375 "},"Ț":{"ha":849,"x_min":0,"x_max":0,"o":"m 628 0 l 222 0 l 222 26 b 353 167 339 33 351 47 l 353 861 l 278 861 b 57 683 118 858 89 835 l 24 683 l 32 919 l 815 919 l 824 683 l 790 683 b 569 861 760 835 731 858 l 494 861 l 494 151 b 628 26 496 50 514 32 m 353 -364 b 467 -217 428 -312 467 -261 b 447 -197 467 -206 458 -197 b 438 -200 446 -197 444 -197 b 410 -203 429 -201 419 -203 b 328 -132 358 -203 328 -176 b 410 -53 328 -85 361 -53 b 521 -176 472 -53 521 -107 b 365 -390 521 -260 458 -344 "},"ț":{"ha":386,"x_min":0,"x_max":0,"o":"m 354 581 l 214 581 l 214 183 b 286 58 214 96 235 58 b 369 107 317 58 339 71 l 388 92 b 221 -14 342 19 289 -14 b 97 163 139 -14 97 46 l 97 581 l 24 581 b 18 590 19 583 18 586 b 42 617 18 599 26 607 b 204 804 82 640 124 688 b 214 786 211 804 214 800 l 214 625 l 354 625 m 135 -364 b 249 -217 210 -312 249 -262 b 229 -197 249 -206 240 -197 b 219 -200 228 -197 226 -197 b 192 -203 211 -201 201 -203 b 110 -132 140 -203 110 -176 b 192 -53 110 -85 143 -53 b 303 -176 254 -53 303 -107 b 147 -390 303 -260 240 -344 "},"ˆ":{"ha":463,"x_min":0,"x_max":0,"o":"m 400 704 l 231 847 l 63 704 l 15 704 l 188 936 l 274 936 l 447 704 "},"ˇ":{"ha":463,"x_min":0,"x_max":0,"o":"m 274 704 l 188 704 l 15 936 l 63 936 l 231 793 l 400 936 l 447 936 "},"ˉ":{"ha":463,"x_min":0,"x_max":0,"o":"m 439 825 l 439 757 l 22 757 l 22 825 "},"˘":{"ha":463,"x_min":0,"x_max":0,"o":"m 426 922 b 229 704 410 775 346 704 b 74 779 163 704 108 731 b 36 922 47 818 38 851 l 76 922 b 232 788 96 829 143 788 b 386 922 313 788 346 817 "},"˙":{"ha":463,"x_min":0,"x_max":0,"o":"m 231 865 b 300 796 268 865 300 833 b 231 726 300 757 268 726 b 164 797 193 726 164 757 b 231 865 164 833 194 865 "},"˚":{"ha":463,"x_min":0,"x_max":0,"o":"m 231 988 b 369 849 307 988 369 925 b 231 711 369 772 307 711 b 93 850 153 711 93 772 b 231 988 93 925 156 988 m 232 940 b 140 850 182 940 140 900 b 229 758 140 799 181 758 b 322 849 282 758 322 799 b 232 940 322 899 281 940 "},"˛":{"ha":463,"x_min":0,"x_max":0,"o":"m 346 -124 b 190 -229 294 -197 247 -229 b 89 -125 132 -229 89 -183 b 164 0 89 -79 111 -42 l 228 0 b 167 -96 185 -35 167 -64 b 219 -151 167 -129 189 -151 b 318 -101 249 -151 275 -139 "},"˜":{"ha":463,"x_min":0,"x_max":0,"o":"m 460 886 b 314 739 431 781 390 739 b 201 772 279 739 258 744 l 169 788 b 113 803 149 797 129 803 b 42 739 81 803 57 782 l 1 739 b 142 879 22 829 72 879 b 239 854 172 879 207 871 l 272 838 b 346 817 299 825 325 817 b 419 886 378 817 396 833 "},"˝":{"ha":463,"x_min":0,"x_max":0,"o":"m 203 704 l 407 910 b 465 942 432 935 444 942 b 514 897 496 942 514 925 b 472 839 514 875 501 857 l 258 704 m -14 704 l 190 910 b 249 942 215 935 228 942 b 297 897 279 942 297 925 b 256 839 297 875 285 857 l 42 704 "},"΄":{"ha":463,"x_min":0,"x_max":0,"o":"m 200 754 b 181 860 182 825 181 833 b 232 929 181 906 199 929 b 283 860 265 929 283 906 b 264 754 283 832 282 828 l 250 699 l 214 699 "},"΅":{"ha":463,"x_min":0,"x_max":0,"o":"m 197 876 b 182 957 189 904 182 939 b 231 1018 182 993 201 1018 b 279 951 263 1018 279 996 b 264 876 279 932 275 911 l 249 824 l 214 824 m 126 808 b 186 747 158 808 186 781 b 125 686 186 714 158 686 b 64 747 92 686 64 714 b 126 808 64 782 92 808 m 338 808 b 397 747 369 808 397 781 b 336 686 397 714 369 686 b 275 747 303 686 275 714 b 338 808 275 782 303 808 "},"Ά":{"ha":1003,"x_min":0,"x_max":0,"o":"m 832 188 b 981 25 882 65 918 25 l 999 25 l 999 0 l 613 0 l 613 26 l 635 26 b 711 78 685 26 711 44 b 688 167 711 99 706 121 l 635 301 l 299 301 l 240 156 b 217 78 226 121 217 88 b 299 26 217 46 249 26 l 315 26 l 315 0 l 8 0 l 8 25 b 171 172 100 28 115 42 l 499 929 l 515 929 m 613 358 l 464 689 l 325 358 m 197 738 b 176 851 178 817 176 824 b 233 929 176 903 196 929 b 289 853 269 929 289 903 b 267 738 289 825 288 814 l 253 676 l 213 676 "},"·":{"ha":347,"x_min":0,"x_max":0,"o":"m 174 431 b 251 351 215 431 251 394 b 172 276 251 310 215 276 b 97 351 132 276 97 311 b 174 431 97 396 132 431 "},"Έ":{"ha":964,"x_min":0,"x_max":0,"o":"m 19 738 b -1 853 0 814 -1 824 b 56 929 -1 903 18 929 b 111 853 92 929 111 903 b 89 738 111 824 110 814 l 75 676 l 35 676 m 431 161 b 506 63 431 74 439 61 l 671 63 b 928 242 817 65 872 104 l 951 232 l 872 0 l 158 0 l 158 25 l 190 26 b 285 144 264 29 285 56 l 285 776 b 190 893 285 864 264 890 l 158 894 l 158 919 l 858 919 l 872 711 l 849 710 b 643 865 832 835 788 868 l 431 865 l 431 519 l 663 519 b 768 657 740 518 771 556 l 793 657 l 793 322 l 768 322 b 663 457 771 419 743 456 l 431 457 "},"Ή":{"ha":1122,"x_min":0,"x_max":0,"o":"m 15 738 b -6 853 -4 814 -6 824 b 51 929 -6 903 14 929 b 107 853 88 929 107 903 b 85 738 107 824 106 814 l 71 676 l 31 676 m 429 144 b 524 26 429 56 451 29 l 556 25 l 556 0 l 157 0 l 157 25 l 189 26 b 283 144 263 29 283 56 l 283 776 b 189 893 283 864 263 890 l 157 894 l 157 919 l 556 919 l 556 894 l 524 893 b 429 776 450 890 429 864 l 429 500 l 840 500 l 840 776 b 746 893 840 864 819 890 l 714 894 l 714 919 l 1113 919 l 1113 894 l 1081 893 b 986 776 1007 890 986 864 l 986 144 b 1081 26 986 56 1008 29 l 1113 25 l 1113 0 l 714 0 l 714 25 l 746 26 b 840 144 819 29 840 56 l 840 438 l 429 438 "},"Ί":{"ha":571,"x_min":0,"x_max":0,"o":"m 18 738 b -3 853 -1 814 -3 824 b 54 929 -3 903 17 929 b 110 853 90 929 110 903 b 88 738 110 824 108 814 l 74 676 l 33 676 m 157 919 l 556 919 l 556 894 l 524 893 b 429 776 450 890 429 864 l 429 143 b 524 26 429 56 450 29 l 556 25 l 556 0 l 157 0 l 157 25 l 189 26 b 283 143 263 29 283 56 l 283 776 b 189 893 283 864 263 890 l 157 894 "},"Ό":{"ha":1003,"x_min":0,"x_max":0,"o":"m 15 738 b -6 853 -4 814 -6 824 b 51 929 -6 903 14 929 b 107 853 88 929 107 903 b 85 738 107 824 106 814 l 71 676 l 31 676 m 521 929 b 964 461 775 929 964 729 b 833 118 964 326 918 207 b 521 -10 749 32 650 -10 b 83 460 271 -10 83 192 b 521 929 83 728 271 929 m 519 875 b 246 460 356 875 246 707 b 519 44 246 214 357 44 b 801 461 690 44 801 210 b 519 875 801 707 686 875 "},"Ύ":{"ha":1133,"x_min":0,"x_max":0,"o":"m 53 738 b 32 853 33 814 32 824 b 89 929 32 903 51 929 b 144 853 125 929 144 903 b 122 738 144 824 143 814 l 108 676 l 68 676 m 363 753 b 203 892 304 854 271 882 l 171 894 l 171 919 l 589 919 l 589 894 l 569 894 b 493 850 518 894 493 881 b 531 760 493 828 504 801 l 711 475 l 890 778 b 921 854 914 817 921 836 b 864 893 921 879 901 893 l 835 894 l 835 919 l 1144 919 l 1144 894 l 1129 893 b 939 728 1056 889 1008 847 l 739 392 l 739 143 b 835 26 739 56 760 29 l 872 25 l 872 0 l 458 0 l 458 25 l 493 26 b 589 143 567 29 589 56 l 589 392 "},"Ώ":{"ha":1032,"x_min":0,"x_max":0,"o":"m 26 738 b 6 853 7 814 6 824 b 63 929 6 903 25 929 b 118 853 99 929 118 903 b 96 738 118 824 117 814 l 82 676 l 42 676 m 982 0 l 631 0 l 631 103 b 818 501 746 156 818 308 b 543 875 818 721 704 875 b 268 499 382 875 268 719 b 342 210 268 385 293 286 b 456 103 376 153 403 129 l 456 0 l 104 0 l 51 233 l 75 238 b 258 100 115 132 154 103 l 401 100 b 240 210 343 124 293 158 b 111 508 156 292 111 394 b 543 929 111 742 303 929 b 975 507 785 929 975 743 b 683 100 975 332 865 179 l 828 100 b 1010 238 931 103 969 132 l 1033 233 "},"ΐ":{"ha":374,"x_min":0,"x_max":0,"o":"m 240 186 b 294 74 240 97 251 74 b 336 88 310 74 318 76 l 344 68 l 201 -7 b 183 -14 194 -11 188 -14 b 157 7 178 -14 168 -6 b 131 97 135 32 131 49 l 131 447 b 83 543 131 524 121 543 b 53 539 74 543 64 542 l 44 536 l 36 557 b 240 649 133 596 147 603 m 153 876 b 138 957 144 904 138 939 b 186 1018 138 993 157 1018 b 235 951 218 1018 235 996 b 219 876 235 932 231 911 l 204 824 l 169 824 m 82 808 b 142 747 114 808 142 781 b 81 686 142 714 114 686 b 19 747 47 686 19 714 b 82 808 19 782 47 808 m 293 808 b 353 747 325 808 353 781 b 292 686 353 714 325 686 b 231 747 258 686 231 714 b 293 808 231 782 258 808 "},"Α":{"ha":1003,"x_min":0,"x_max":0,"o":"m 832 188 b 981 25 882 65 918 25 l 999 25 l 999 0 l 613 0 l 613 26 l 635 26 b 711 78 685 26 711 44 b 688 167 711 99 706 121 l 635 301 l 299 301 l 240 156 b 217 78 226 121 217 88 b 299 26 217 46 249 26 l 315 26 l 315 0 l 8 0 l 8 25 b 171 172 100 28 115 42 l 499 929 l 515 929 m 613 358 l 464 689 l 325 358 "},"Β":{"ha":926,"x_min":0,"x_max":0,"o":"m 413 919 b 653 879 546 919 593 911 b 785 685 735 836 785 763 b 725 535 785 632 761 574 b 638 478 703 513 683 499 b 822 254 763 435 822 363 b 678 35 822 160 767 76 b 356 0 611 4 572 0 l 76 0 l 76 25 l 108 26 b 203 143 181 29 203 56 l 203 776 b 108 893 203 864 181 890 l 76 894 l 76 919 m 349 513 b 424 504 383 506 399 504 b 622 683 547 504 622 571 b 410 867 622 794 539 867 b 349 861 390 867 376 865 m 349 69 b 440 57 389 60 407 57 b 651 254 565 57 651 138 b 422 451 651 375 563 451 b 349 442 397 451 382 450 "},"Γ":{"ha":803,"x_min":0,"x_max":0,"o":"m 385 0 l -7 0 l -7 28 b 117 150 96 36 117 57 l 117 769 b -7 892 117 863 96 883 l -7 919 l 739 919 l 807 676 l 768 676 b 501 860 715 807 644 856 l 344 860 b 261 781 278 854 258 836 l 261 150 b 385 28 261 57 282 36 "},"Δ":{"ha":893,"x_min":0,"x_max":0,"o":"m 861 0 l 33 0 l 439 929 l 451 929 m 410 697 l 185 178 b 169 126 175 157 169 136 b 215 106 169 111 182 106 l 664 106 "},"Ε":{"ha":849,"x_min":0,"x_max":0,"o":"m 303 161 b 376 63 303 74 311 61 l 542 63 b 799 242 688 65 743 104 l 821 232 l 742 0 l 31 0 l 31 25 l 63 26 b 157 144 135 29 157 56 l 157 776 b 63 893 157 864 135 890 l 31 894 l 31 919 l 728 919 l 742 711 l 718 710 b 515 865 703 833 658 868 l 303 865 l 303 519 l 533 519 b 639 657 611 518 640 556 l 664 657 l 664 322 l 639 322 b 533 457 642 419 614 456 l 303 457 "},"Ζ":{"ha":849,"x_min":0,"x_max":0,"o":"m 329 857 b 118 676 172 860 139 832 l 92 679 l 118 919 l 806 919 l 228 63 l 549 63 b 796 256 697 57 765 110 l 822 253 l 772 0 l 8 0 l 589 857 "},"Η":{"ha":1003,"x_min":0,"x_max":0,"o":"m 297 144 b 392 26 297 56 318 29 l 422 25 l 422 0 l 25 0 l 25 25 l 57 26 b 151 144 129 29 151 56 l 151 776 b 57 893 151 864 129 890 l 25 894 l 25 919 l 422 919 l 422 894 l 392 893 b 297 776 318 890 297 864 l 297 500 l 707 500 l 707 776 b 613 893 707 864 685 890 l 581 894 l 581 919 l 978 919 l 978 894 l 947 893 b 853 776 874 890 853 864 l 853 144 b 947 26 853 56 874 29 l 978 25 l 978 0 l 581 0 l 581 25 l 613 26 b 707 144 685 29 707 56 l 707 438 l 297 438 "},"Θ":{"ha":1003,"x_min":0,"x_max":0,"o":"m 397 603 b 501 508 404 536 433 508 b 604 603 568 508 597 536 l 647 603 l 647 328 l 604 328 b 501 426 604 393 569 426 b 397 328 432 426 397 393 l 354 328 l 354 603 m 506 938 b 956 458 764 938 956 733 b 500 -18 956 182 764 -18 b 46 458 238 -18 46 183 b 506 938 46 739 236 938 m 493 885 b 207 465 313 885 207 729 b 507 35 207 206 326 35 b 679 97 574 35 638 58 b 794 449 753 167 794 293 b 661 821 794 615 747 747 b 493 885 614 863 554 885 "},"Ι":{"ha":463,"x_min":0,"x_max":0,"o":"m 33 919 l 431 919 l 431 894 l 400 893 b 306 776 326 890 306 864 l 306 143 b 400 26 306 56 326 29 l 431 25 l 431 0 l 33 0 l 33 25 l 65 26 b 160 143 138 29 160 56 l 160 776 b 65 893 160 864 138 890 l 33 894 "},"Κ":{"ha":1003,"x_min":0,"x_max":0,"o":"m 324 143 b 419 26 322 56 344 29 l 451 25 l 451 0 l 51 0 l 51 25 l 83 26 b 178 143 156 29 178 56 l 178 776 b 83 893 178 864 156 890 l 51 894 l 51 919 l 451 919 l 451 894 l 425 893 b 324 775 344 892 324 867 l 324 481 b 649 857 514 650 649 807 b 568 893 649 885 633 892 l 568 919 l 906 919 l 906 893 l 886 892 b 682 756 807 882 775 861 b 543 607 653 724 561 625 b 481 542 522 585 501 563 b 453 511 471 531 461 521 l 769 183 b 1032 25 888 63 947 26 l 1032 0 l 590 0 l 590 25 l 613 26 b 671 61 650 28 671 40 b 575 186 671 82 644 115 l 324 444 "},"Λ":{"ha":1007,"x_min":0,"x_max":0,"o":"m 835 189 b 983 25 885 65 921 26 l 1001 25 l 1001 0 l 615 0 l 615 26 l 638 26 b 714 79 688 26 714 44 b 690 167 714 103 707 128 l 467 685 l 243 156 b 219 78 232 128 219 89 b 301 26 219 46 251 26 l 318 26 l 318 0 l 11 0 l 11 25 b 174 172 103 29 118 42 l 501 929 l 518 929 "},"Μ":{"ha":1235,"x_min":0,"x_max":0,"o":"m 239 729 l 239 143 b 333 26 239 56 260 29 l 367 25 l 367 0 l 44 0 l 44 25 l 76 26 b 171 143 149 29 171 56 l 171 776 b 76 893 171 864 149 890 l 44 894 l 44 919 l 310 919 l 621 238 l 919 919 l 1190 919 l 1190 894 l 1160 893 b 1065 776 1086 890 1065 864 l 1065 143 b 1160 26 1065 56 1086 29 l 1190 25 l 1190 0 l 797 0 l 797 25 l 824 26 b 919 143 897 29 919 56 l 919 738 l 592 0 l 569 0 "},"Ν":{"ha":1003,"x_min":0,"x_max":0,"o":"m 224 715 l 224 143 b 318 26 224 56 244 29 l 350 25 l 350 0 l 29 0 l 29 25 l 61 26 b 156 143 135 29 156 56 l 156 797 b -21 894 74 882 56 892 l -21 919 l 251 919 l 796 285 l 796 776 b 701 893 796 864 775 890 l 669 894 l 669 919 l 990 919 l 990 894 l 958 893 b 864 776 885 890 864 864 l 864 0 l 842 0 "},"Ξ":{"ha":893,"x_min":0,"x_max":0,"o":"m 206 656 l 231 656 b 336 549 228 576 257 547 l 557 549 b 663 656 636 547 664 576 l 688 656 l 688 321 l 663 321 b 557 440 665 408 639 439 l 336 440 b 231 321 254 439 228 408 l 206 321 m 108 711 l 122 919 l 769 919 l 783 711 l 760 708 b 601 815 747 794 713 817 l 290 815 b 132 708 179 817 144 794 m 71 235 l 94 240 b 282 113 135 142 175 115 l 613 113 b 800 240 718 115 758 143 l 824 235 l 767 0 l 128 0 "},"Ο":{"ha":1003,"x_min":0,"x_max":0,"o":"m 499 929 b 942 461 753 929 942 729 b 811 118 942 326 896 207 b 499 -10 728 32 628 -10 b 61 460 249 -10 61 192 b 499 929 61 728 249 929 m 497 875 b 224 460 335 875 224 707 b 497 44 224 214 335 44 b 779 461 668 44 779 210 b 497 875 779 707 664 875 "},"Π":{"ha":1003,"x_min":0,"x_max":0,"o":"m 978 894 l 947 893 b 853 776 874 890 853 864 l 853 143 b 947 26 853 56 874 29 l 978 25 l 978 0 l 581 0 l 581 25 l 613 26 b 707 143 685 29 707 56 l 707 757 b 613 875 707 844 685 872 l 392 875 b 297 757 319 872 297 844 l 297 143 b 392 26 297 56 318 29 l 422 25 l 422 0 l 25 0 l 25 25 l 57 26 b 151 143 129 29 151 56 l 151 776 b 57 893 151 864 129 890 l 25 894 l 25 919 l 978 919 "},"Ρ":{"ha":772,"x_min":0,"x_max":0,"o":"m 301 143 b 396 26 301 56 322 29 l 429 25 l 429 0 l 29 0 l 29 25 l 61 26 b 156 143 133 29 156 56 l 156 776 b 61 893 156 864 133 890 l 29 894 l 29 919 l 326 919 b 586 890 501 918 529 915 b 740 663 689 843 740 769 b 664 486 740 589 713 525 b 440 414 607 440 525 414 b 301 439 392 414 354 421 m 301 492 b 393 472 336 478 361 472 b 578 667 504 472 578 549 b 382 867 578 786 500 867 b 301 853 351 867 332 864 "},"Σ":{"ha":808,"x_min":0,"x_max":0,"o":"m 744 635 l 701 635 b 407 863 689 797 597 868 l 251 863 l 456 464 l 260 74 l 419 74 b 769 314 599 71 694 136 l 813 314 l 744 0 l 63 0 l 299 431 l 63 919 l 744 919 "},"Τ":{"ha":849,"x_min":0,"x_max":0,"o":"m 225 25 l 256 26 b 351 144 331 29 351 56 l 351 853 l 228 853 b 58 694 110 854 64 811 l 32 697 l 46 919 l 803 919 l 817 697 l 790 694 b 621 853 785 811 739 854 l 497 853 l 497 144 b 593 26 497 56 518 29 l 624 25 l 624 0 l 225 0 "},"Υ":{"ha":1003,"x_min":0,"x_max":0,"o":"m 211 753 b 51 892 153 854 121 882 l 19 894 l 19 919 l 438 919 l 438 894 l 418 894 b 342 850 367 894 342 881 b 379 760 342 828 353 801 l 560 475 l 739 778 b 769 854 763 817 769 836 b 713 893 769 879 750 893 l 683 894 l 683 919 l 993 919 l 993 894 l 978 893 b 788 728 904 889 857 847 l 588 392 l 588 143 b 683 26 588 56 610 29 l 721 25 l 721 0 l 307 0 l 307 25 l 342 26 b 438 143 417 29 438 56 l 438 392 "},"Φ":{"ha":1015,"x_min":0,"x_max":0,"o":"m 436 836 b 342 935 438 915 422 932 l 310 936 l 310 961 l 706 961 l 706 936 l 674 935 b 579 836 593 932 578 915 l 579 819 b 978 460 819 792 978 649 b 579 100 978 271 813 122 l 579 83 b 674 -15 578 4 593 -12 l 706 -17 l 706 -42 l 310 -42 l 310 -17 l 342 -15 b 436 83 422 -12 438 4 l 436 100 b 38 460 203 122 38 271 b 436 819 38 649 199 794 m 436 782 b 200 460 289 753 200 632 b 436 139 200 288 286 169 m 579 138 b 815 460 726 168 815 289 b 579 781 815 631 729 747 "},"Χ":{"ha":1003,"x_min":0,"x_max":0,"o":"m 250 739 b 76 890 171 854 139 882 l 46 894 l 46 919 l 457 919 l 457 894 b 403 889 422 893 414 892 b 372 842 385 883 372 864 b 394 783 372 825 381 804 l 538 569 l 706 790 b 736 849 729 821 736 835 b 669 894 736 878 713 894 l 647 894 l 647 919 l 957 919 l 957 894 l 940 893 b 756 750 867 888 857 881 l 575 513 l 796 189 b 971 28 881 64 915 33 l 1000 25 l 1000 0 l 596 0 l 596 25 b 681 71 660 26 681 38 b 647 150 681 92 671 117 l 483 390 l 286 132 b 254 68 261 99 254 85 b 311 28 254 46 276 31 l 340 25 l 340 0 l 1 0 l 1 25 b 254 199 113 26 140 46 l 443 450 "},"Ψ":{"ha":1025,"x_min":0,"x_max":0,"o":"m 713 919 l 713 894 l 681 893 b 586 776 607 890 586 864 l 586 351 b 711 417 647 365 671 378 b 785 672 767 478 781 528 b 806 849 786 782 790 814 b 928 929 828 903 868 929 b 1028 910 961 929 993 922 l 1017 881 b 983 889 1003 888 994 889 b 938 851 958 889 943 878 b 928 704 933 839 933 839 b 792 381 926 543 892 464 b 586 308 731 335 676 317 l 586 143 b 681 26 586 56 607 29 l 713 25 l 713 0 l 314 0 l 314 25 l 346 26 b 440 143 419 29 440 56 l 440 308 b 185 428 326 318 251 353 b 94 779 110 524 101 556 b 43 889 90 872 83 889 b 8 881 31 889 24 888 l -1 910 b 99 929 33 922 65 929 b 225 836 163 929 204 899 b 242 672 236 804 240 772 b 315 417 246 528 260 478 b 440 351 356 378 379 365 l 440 776 b 346 893 440 864 419 890 l 314 894 l 314 919 "},"Ω":{"ha":1032,"x_min":0,"x_max":0,"o":"m 440 0 l 31 0 l 31 226 l 54 226 b 153 143 71 157 86 143 l 358 143 l 358 163 b 171 260 271 188 217 217 b 57 539 100 326 57 433 b 192 833 57 650 107 761 b 517 938 271 901 385 938 b 840 833 647 938 761 901 b 975 539 925 761 975 650 b 843 243 975 424 924 310 b 674 163 800 208 750 185 l 674 143 l 879 143 b 978 226 946 143 963 157 l 1001 226 l 1001 0 l 592 0 l 613 197 b 733 279 672 219 703 240 b 808 540 782 344 808 433 b 719 814 808 657 778 750 b 517 890 674 864 604 890 b 313 814 428 890 358 864 b 224 542 254 750 224 656 b 299 279 224 435 250 344 b 419 197 329 240 360 219 "},"Ϊ":{"ha":463,"x_min":0,"x_max":0,"o":"m 32 919 l 431 919 l 431 894 l 399 893 b 304 776 325 890 304 864 l 304 143 b 399 26 304 56 325 29 l 431 25 l 431 0 l 32 0 l 32 25 l 64 26 b 158 143 138 29 158 56 l 158 776 b 64 893 158 864 138 890 l 32 894 m 103 1140 b 174 1069 142 1140 174 1108 b 101 997 174 1029 142 997 b 31 1069 63 997 31 1029 b 103 1140 31 1108 63 1140 m 360 1140 b 431 1069 399 1140 431 1108 b 358 997 431 1029 399 997 b 288 1069 319 997 288 1029 b 360 1140 288 1108 319 1140 "},"Ϋ":{"ha":1003,"x_min":0,"x_max":0,"o":"m 211 753 b 51 892 153 854 121 882 l 19 894 l 19 919 l 438 919 l 438 894 l 418 894 b 342 850 367 894 342 881 b 379 760 342 828 353 801 l 560 475 l 739 778 b 769 854 763 817 769 836 b 713 893 769 879 750 893 l 683 894 l 683 919 l 993 919 l 993 894 l 978 893 b 788 728 904 889 857 847 l 588 392 l 588 143 b 683 26 588 56 610 29 l 721 25 l 721 0 l 307 0 l 307 25 l 342 26 b 438 143 417 29 438 56 l 438 392 m 428 1140 b 499 1069 467 1140 499 1107 b 426 997 499 1029 467 997 b 356 1069 388 997 356 1029 b 428 1140 356 1108 388 1140 m 686 1140 b 757 1069 725 1140 757 1107 b 685 997 757 1029 725 997 b 614 1069 646 997 614 1029 b 686 1140 614 1108 646 1140 "},"ά":{"ha":728,"x_min":0,"x_max":0,"o":"m 293 754 b 272 860 274 828 272 833 b 324 929 272 906 290 929 b 375 860 357 929 375 906 b 356 754 375 833 374 824 l 342 699 l 306 699 m 585 235 b 704 79 608 131 649 79 b 753 92 718 79 729 82 l 753 42 l 626 -15 b 606 -22 617 -19 610 -22 b 565 14 596 -22 581 -10 b 525 126 543 46 533 74 b 283 -22 467 26 388 -22 b 40 281 140 -22 40 103 b 329 656 40 488 169 656 b 485 558 397 656 450 622 b 525 447 497 533 504 514 l 579 629 l 721 628 m 494 361 b 435 536 465 469 454 504 b 335 604 407 583 375 604 b 185 294 242 604 185 486 b 304 21 185 132 233 21 b 464 260 361 21 413 97 "},"έ":{"ha":583,"x_min":0,"x_max":0,"o":"m 493 514 b 318 551 431 540 379 551 b 179 447 229 551 179 514 b 213 372 179 417 189 393 b 328 397 261 390 292 397 b 408 351 376 397 408 379 b 340 306 408 324 382 306 b 213 335 297 306 257 315 b 169 222 181 292 169 263 b 333 58 169 128 240 58 b 528 224 426 58 493 115 l 554 219 b 290 -10 526 75 429 -10 b 58 181 156 -10 58 69 b 178 356 58 254 89 299 b 79 486 108 396 79 435 b 317 643 79 575 183 643 b 511 618 379 643 446 635 m 288 754 b 268 858 269 826 268 833 b 318 929 268 906 286 929 b 369 860 351 929 369 904 b 350 754 369 833 368 824 l 338 699 l 300 699 "},"ή":{"ha":726,"x_min":0,"x_max":0,"o":"m 246 526 b 457 643 325 608 390 643 b 586 564 514 643 565 613 b 611 393 606 522 611 485 l 611 -249 l 501 -249 l 501 396 b 404 558 501 524 481 558 b 246 476 354 558 317 539 l 246 0 l 136 0 l 136 444 b 86 542 136 524 126 542 b 57 538 75 542 67 540 l 43 532 l 33 551 b 246 649 135 594 150 601 m 332 754 b 313 860 313 829 313 833 b 364 929 313 906 331 929 b 415 860 397 929 415 906 b 394 754 415 833 414 825 l 382 699 l 344 699 "},"ί":{"ha":374,"x_min":0,"x_max":0,"o":"m 242 186 b 294 74 242 97 253 74 b 338 88 310 74 319 76 l 346 68 l 203 -7 b 185 -14 194 -11 189 -14 b 157 7 179 -14 169 -6 b 132 97 136 32 132 49 l 132 447 b 85 543 132 524 122 543 b 54 539 75 543 64 542 l 44 536 l 38 557 b 242 649 133 596 149 603 m 156 754 b 136 858 136 829 136 832 b 188 929 136 906 153 929 b 239 860 221 929 239 906 b 218 754 239 833 238 825 l 206 699 l 168 699 "},"ΰ":{"ha":688,"x_min":0,"x_max":0,"o":"m 38 569 l 181 644 b 196 649 186 647 192 649 b 233 618 206 649 219 638 b 251 540 247 599 251 582 l 251 250 b 272 125 251 183 257 150 b 361 83 289 99 322 83 b 553 317 472 83 553 182 b 528 438 553 363 544 406 b 471 504 517 461 508 471 b 426 581 440 532 426 554 b 489 643 426 614 454 643 b 611 364 558 643 611 524 b 526 94 611 249 583 163 b 322 -10 468 26 397 -10 b 142 194 208 -10 142 65 l 142 450 b 88 564 142 540 131 564 b 46 550 72 564 63 561 m 311 876 b 294 957 300 911 294 939 b 343 1018 294 993 314 1018 b 393 951 376 1018 393 996 b 378 876 393 932 389 914 l 361 824 l 326 824 m 240 808 b 300 747 272 808 300 781 b 239 686 300 714 272 686 b 178 747 204 686 178 714 b 240 808 178 782 206 808 m 451 808 b 511 747 483 808 511 781 b 450 686 511 714 483 686 b 389 747 417 686 389 714 b 451 808 389 782 417 808 "},"α":{"ha":728,"x_min":0,"x_max":0,"o":"m 585 235 b 704 79 608 131 649 79 b 753 92 718 79 729 82 l 753 42 l 626 -15 b 606 -22 617 -19 610 -22 b 565 14 596 -22 581 -10 b 525 126 543 46 533 74 b 283 -22 467 26 388 -22 b 40 281 140 -22 40 103 b 329 656 40 488 169 656 b 485 558 397 656 450 622 b 525 447 497 533 504 514 l 579 629 l 721 628 m 494 361 b 435 536 465 469 454 504 b 335 604 407 583 375 604 b 185 294 242 604 185 486 b 304 21 185 132 233 21 b 464 260 361 21 413 97 "},"β":{"ha":707,"x_min":0,"x_max":0,"o":"m 218 -249 l 108 -249 l 108 536 b 165 806 108 683 121 740 b 410 929 221 886 306 929 b 597 776 522 929 597 868 b 482 597 597 708 561 653 b 643 315 586 544 643 444 b 374 -10 643 135 524 -10 b 218 69 313 -10 274 10 m 218 122 b 354 40 269 60 303 40 b 531 304 457 40 531 150 b 436 567 531 415 504 490 b 322 528 386 539 353 528 b 276 564 296 528 276 544 b 379 619 276 597 318 619 b 436 610 399 619 413 617 b 501 756 488 671 501 701 b 382 881 501 828 451 881 b 244 778 324 881 274 843 b 218 561 226 735 218 669 "},"γ":{"ha":614,"x_min":0,"x_max":0,"o":"m -31 558 l 79 642 b 92 649 86 646 90 649 b 179 549 106 650 150 597 b 335 100 231 457 306 242 l 429 297 b 486 461 481 403 486 418 b 464 544 486 483 485 488 b 456 582 458 557 456 572 b 521 643 456 617 485 643 b 594 561 564 643 594 608 b 564 442 594 526 583 485 b 525 365 553 418 540 393 b 489 299 506 332 493 308 l 351 24 b 369 -115 364 -35 369 -76 b 293 -257 369 -200 339 -257 b 222 -144 254 -257 222 -207 b 264 33 222 -96 232 -56 b 136 396 243 131 199 257 b 11 551 89 501 49 551 b -19 540 1 551 -6 549 "},"δ":{"ha":654,"x_min":0,"x_max":0,"o":"m 554 792 b 226 894 428 856 306 894 b 169 864 190 894 169 883 b 232 794 169 844 188 825 l 332 724 b 500 597 439 650 456 636 b 633 328 597 511 633 438 b 321 -15 633 135 496 -15 b 22 301 149 -15 22 118 b 286 633 22 469 129 606 l 164 726 b 82 840 103 772 82 801 b 228 938 82 899 140 938 b 554 875 310 938 411 918 m 308 592 b 151 356 210 592 151 504 b 218 100 151 258 176 161 b 349 31 247 57 297 31 b 504 269 447 31 504 118 b 308 592 504 460 424 592 "},"ε":{"ha":583,"x_min":0,"x_max":0,"o":"m 493 514 b 318 551 431 540 379 551 b 179 447 229 551 179 514 b 213 372 179 417 189 393 b 328 397 261 390 292 397 b 408 351 376 397 408 379 b 340 306 408 324 382 306 b 213 335 297 306 257 315 b 169 222 181 292 169 263 b 333 58 169 128 240 58 b 528 224 426 58 493 115 l 554 219 b 290 -10 526 75 429 -10 b 58 181 156 -10 58 69 b 178 356 58 254 89 299 b 79 486 108 396 79 435 b 317 643 79 575 183 643 b 511 618 379 643 446 635 "},"ζ":{"ha":575,"x_min":0,"x_max":0,"o":"m 192 936 b 168 889 175 917 168 903 b 301 781 168 851 215 813 b 511 890 388 856 451 890 b 568 849 542 890 568 871 b 360 735 568 792 463 735 b 314 736 344 735 332 735 b 157 275 207 581 157 435 b 301 99 157 163 208 99 b 394 104 322 99 358 101 b 447 108 417 107 438 108 b 556 -6 517 108 556 67 b 365 -217 556 -115 465 -217 b 289 -157 321 -217 289 -192 b 342 -106 289 -128 311 -106 b 388 -115 354 -106 367 -108 b 421 -122 404 -121 411 -122 b 501 -44 465 -122 501 -87 b 449 6 501 -14 482 6 b 408 3 439 6 424 4 b 301 -4 353 -3 331 -4 b 124 58 225 -4 171 15 b 47 260 71 108 47 169 b 269 746 47 433 121 593 b 92 865 172 776 92 831 b 97 879 92 869 94 875 l 169 947 "},"η":{"ha":726,"x_min":0,"x_max":0,"o":"m 251 526 b 463 643 331 608 396 643 b 592 564 519 643 571 613 b 617 393 611 522 617 485 l 617 -249 l 507 -249 l 507 396 b 410 558 507 524 486 558 b 251 476 360 558 322 539 l 251 0 l 142 0 l 142 444 b 92 542 142 524 132 542 b 63 538 81 542 72 540 l 49 532 l 39 551 b 251 649 140 594 156 601 "},"θ":{"ha":665,"x_min":0,"x_max":0,"o":"m 339 929 b 619 471 500 929 619 733 b 328 -10 619 201 492 -10 b 121 132 243 -10 169 40 b 46 450 72 221 46 333 b 139 801 46 583 79 708 b 339 929 193 888 258 929 m 492 532 b 321 881 474 756 413 881 b 171 532 235 881 182 757 m 169 481 b 343 39 169 208 236 39 b 496 426 436 39 496 190 b 494 481 496 444 496 458 "},"ι":{"ha":374,"x_min":0,"x_max":0,"o":"m 242 186 b 294 74 242 97 253 74 b 338 88 310 74 319 76 l 346 68 l 203 -7 b 185 -14 194 -11 189 -14 b 157 7 179 -14 169 -6 b 132 97 136 32 132 49 l 132 447 b 85 543 132 524 122 543 b 54 539 75 543 64 542 l 44 536 l 38 557 b 242 649 133 596 149 603 "},"κ":{"ha":700,"x_min":0,"x_max":0,"o":"m 251 360 l 260 371 b 564 643 436 589 496 643 b 629 583 601 643 629 618 b 568 514 629 547 600 514 b 538 518 563 514 551 515 b 511 519 528 519 519 519 b 339 385 464 519 439 500 l 490 178 b 558 100 503 160 538 122 b 614 74 576 83 594 74 b 653 83 625 74 635 76 l 661 63 l 526 -7 b 507 -14 518 -11 511 -14 b 485 3 500 -14 493 -8 l 251 328 l 251 0 l 142 0 l 142 447 b 92 543 142 525 132 543 b 64 539 82 543 74 542 l 49 533 l 39 553 b 251 649 140 594 156 601 "},"λ":{"ha":674,"x_min":0,"x_max":0,"o":"m 640 69 l 525 -12 b 515 -15 522 -14 518 -15 b 442 136 497 -15 471 38 l 343 464 l 150 0 l 32 0 l 296 607 b 246 743 275 679 261 718 b 174 792 229 774 201 792 b 147 788 168 792 158 790 b 119 785 138 786 126 785 b 54 854 83 785 54 815 b 122 919 54 893 82 919 b 249 847 165 919 211 893 b 346 635 283 807 310 749 l 476 236 b 589 76 514 119 544 76 b 631 89 601 76 613 79 "},"μ":{"ha":744,"x_min":0,"x_max":0,"o":"m 599 183 b 653 69 599 93 610 69 b 694 85 668 69 678 74 l 703 65 l 560 -7 b 542 -14 551 -11 544 -14 b 515 7 536 -14 526 -7 b 489 93 493 31 489 46 l 489 117 b 419 44 447 69 440 63 b 288 -10 382 10 333 -10 b 154 100 222 -10 181 25 b 186 -126 157 10 160 -14 b 194 -187 192 -149 194 -172 b 139 -257 194 -229 172 -257 b 78 -182 103 -257 78 -226 b 99 -28 78 -161 78 -161 b 131 426 124 153 128 200 l 131 625 l 240 625 l 240 233 b 338 82 240 125 268 82 b 489 163 385 82 411 96 l 489 625 l 599 625 "},"ν":{"ha":628,"x_min":0,"x_max":0,"o":"m 435 332 b 474 458 463 389 474 426 b 460 535 474 479 472 485 b 456 569 457 546 456 560 b 521 643 456 611 483 643 b 586 563 558 643 586 610 b 542 417 586 525 571 474 l 324 -14 l 289 -14 l 149 425 b 114 519 124 501 124 501 b 69 547 106 536 88 547 b 32 536 57 547 49 544 l 22 554 l 135 642 b 151 649 140 646 146 649 b 226 546 174 649 210 600 l 350 154 "},"ξ":{"ha":619,"x_min":0,"x_max":0,"o":"m 225 983 b 208 938 214 967 208 951 b 315 868 208 913 229 900 b 513 929 393 910 457 929 b 593 883 558 929 593 910 b 431 807 593 840 522 807 b 308 824 390 807 363 811 b 239 682 258 778 239 738 b 292 565 239 633 253 601 b 475 644 367 618 428 644 b 544 601 515 644 544 626 b 365 513 544 554 461 513 b 296 519 342 513 325 514 b 185 271 221 446 185 364 b 329 99 185 163 239 99 b 422 104 350 99 386 101 b 475 108 444 107 465 108 b 583 -6 544 108 583 67 b 393 -217 583 -115 493 -217 b 317 -157 349 -217 317 -192 b 369 -106 317 -128 339 -106 b 415 -115 382 -106 394 -108 b 449 -122 432 -121 439 -122 b 529 -44 493 -122 529 -87 b 476 6 529 -14 510 6 b 436 3 467 6 451 4 b 329 -4 381 -3 358 -4 b 151 58 253 -4 199 15 b 75 242 103 104 75 169 b 250 532 75 351 129 442 b 146 669 179 560 146 603 b 263 838 146 735 181 783 b 125 911 178 864 125 893 b 138 932 125 917 131 925 l 211 994 "},"ο":{"ha":694,"x_min":0,"x_max":0,"o":"m 354 640 b 647 324 524 640 647 507 b 343 -14 647 135 513 -14 b 46 306 174 -14 46 124 b 143 551 46 399 81 488 b 354 640 204 613 268 640 m 336 592 b 169 322 231 592 169 493 b 358 35 169 151 246 35 b 524 281 458 35 524 132 b 336 592 524 465 447 592 "},"π":{"ha":701,"x_min":0,"x_max":0,"o":"m 733 535 l 565 535 b 550 351 550 492 549 478 l 550 175 b 551 113 550 119 550 119 b 604 72 557 92 582 72 b 668 92 610 72 631 79 l 674 63 l 524 -3 b 503 -10 508 -8 506 -10 b 456 43 490 -10 467 17 b 444 140 446 69 444 82 l 444 350 b 528 535 446 432 467 476 l 242 535 l 233 417 b 229 325 233 403 232 371 b 107 -10 218 64 190 -10 b 43 54 67 -10 43 14 b 107 154 43 90 50 101 b 194 535 154 197 169 264 b -29 456 96 536 54 521 l -53 483 l 64 586 b 179 622 100 617 115 622 l 733 622 "},"ρ":{"ha":693,"x_min":0,"x_max":0,"o":"m 101 -253 l 101 294 b 154 544 101 424 117 493 b 363 640 200 606 276 640 b 638 318 528 640 638 513 b 357 -14 638 129 517 -14 b 211 47 299 -14 260 3 l 211 -253 m 211 108 b 351 38 264 57 301 38 b 515 303 451 38 515 140 b 346 592 515 482 450 592 b 238 526 300 592 260 568 b 211 394 218 494 211 457 "},"ς":{"ha":550,"x_min":0,"x_max":0,"o":"m 432 108 b 533 -4 497 108 533 68 b 349 -217 533 -114 443 -217 b 267 -158 299 -217 267 -193 b 322 -108 267 -128 289 -108 b 360 -117 332 -108 343 -111 b 400 -125 379 -124 388 -125 b 479 -37 442 -125 479 -85 b 429 6 479 -11 461 6 b 356 -1 422 6 392 3 b 300 -4 338 -3 319 -4 b 121 56 218 -4 163 14 b 49 253 74 103 49 171 b 424 643 49 468 217 643 b 539 571 494 643 539 615 b 478 513 539 538 514 513 b 406 536 456 513 443 517 b 336 557 376 551 357 557 b 197 486 292 557 235 528 b 135 297 156 442 135 378 b 301 99 135 169 194 99 b 367 103 315 99 342 100 b 432 108 406 107 418 108 "},"σ":{"ha":749,"x_min":0,"x_max":0,"o":"m 744 556 l 517 585 b 601 513 561 557 581 540 b 657 328 636 465 657 397 b 344 -15 657 135 519 -15 b 46 301 172 -15 46 118 b 240 614 46 439 124 564 b 404 638 288 635 308 638 l 744 638 m 329 592 b 175 357 233 592 175 503 b 242 100 175 258 200 163 b 372 31 271 57 321 31 b 528 265 469 31 528 118 b 329 592 528 463 449 592 "},"τ":{"ha":558,"x_min":0,"x_max":0,"o":"m 589 538 l 381 538 b 347 393 357 507 350 476 l 347 207 b 403 88 347 125 365 88 b 472 108 419 88 435 92 l 472 54 l 303 -6 b 272 -19 276 -19 276 -19 b 224 115 246 -19 224 42 l 224 315 b 283 538 226 407 238 451 l 263 538 b 33 432 142 539 93 517 l -24 464 l 53 571 b 197 625 85 615 110 624 l 589 625 "},"υ":{"ha":688,"x_min":0,"x_max":0,"o":"m 38 569 l 181 644 b 196 649 186 647 192 649 b 233 618 206 649 219 638 b 251 540 247 599 251 582 l 251 250 b 272 125 251 183 257 150 b 361 83 289 99 322 83 b 553 317 472 83 553 182 b 528 438 553 363 544 406 b 471 504 517 461 508 471 b 426 581 440 532 426 554 b 489 643 426 614 454 643 b 611 364 558 643 611 524 b 526 94 611 249 583 163 b 322 -10 468 26 397 -10 b 142 194 208 -10 142 65 l 142 450 b 88 564 142 540 131 564 b 46 550 72 564 63 561 "},"φ":{"ha":801,"x_min":0,"x_max":0,"o":"m 317 615 b 247 582 282 606 265 597 b 164 340 192 536 164 456 b 256 76 164 217 194 129 b 344 32 279 56 299 46 l 344 418 b 374 575 344 504 351 546 b 501 639 401 615 449 639 b 682 554 567 639 631 610 b 765 338 739 496 765 425 b 633 61 765 224 717 124 b 438 -6 581 21 531 4 l 438 -279 l 344 -279 l 344 -6 b 38 333 151 15 38 140 b 317 639 38 511 143 628 m 438 32 b 557 75 497 43 525 53 b 654 306 622 121 654 196 b 500 561 654 444 585 561 b 449 529 476 561 458 550 b 438 426 439 513 438 493 "},"χ":{"ha":617,"x_min":0,"x_max":0,"o":"m 415 58 b 500 -121 458 -54 471 -81 b 590 -175 525 -157 556 -175 b 633 -165 604 -175 615 -172 l 642 -186 l 532 -253 b 515 -258 525 -257 519 -258 b 385 -29 489 -258 440 -172 l 319 142 l 101 -249 l -25 -249 l 275 256 l 221 386 b 58 511 175 492 144 515 b -12 574 19 511 -12 539 b 58 636 -12 610 17 636 b 274 417 142 636 219 557 l 313 317 l 489 626 l 614 626 l 360 206 "},"ψ":{"ha":869,"x_min":0,"x_max":0,"o":"m 513 625 l 513 86 b 658 139 586 96 622 108 b 736 328 707 179 736 250 b 710 436 736 371 728 407 b 644 507 696 458 696 458 b 607 575 618 532 607 553 b 671 635 607 607 636 635 b 792 368 739 635 792 518 b 513 -12 792 168 689 28 l 513 -249 l 408 -249 l 408 -10 b 139 254 229 4 135 96 l 139 442 b 83 553 139 529 126 553 b 40 539 68 553 58 550 l 32 557 l 172 628 b 190 635 181 632 188 635 b 225 604 199 635 213 624 b 240 529 238 585 240 571 l 240 282 b 408 92 235 158 283 103 l 408 625 "},"ω":{"ha":914,"x_min":0,"x_max":0,"o":"m 278 624 b 190 326 219 540 190 443 b 318 81 190 171 238 81 b 444 186 367 81 408 114 b 410 358 419 250 410 296 b 471 476 410 433 432 476 b 524 368 504 476 524 438 b 489 189 524 310 514 261 b 624 82 524 114 564 82 b 785 306 717 82 785 178 b 746 458 785 367 771 422 b 649 521 725 490 718 494 b 610 582 626 529 610 556 b 671 642 610 617 635 642 b 836 328 768 642 836 514 b 629 -10 836 138 746 -10 b 464 136 563 -10 508 39 b 281 -10 419 40 356 -10 b 78 293 164 -10 78 119 b 251 642 78 436 138 557 "},"ϊ":{"ha":374,"x_min":0,"x_max":0,"o":"m 240 186 b 294 74 240 97 251 74 b 336 88 310 74 318 76 l 344 68 l 201 -7 b 183 -14 194 -11 188 -14 b 157 7 178 -14 168 -6 b 131 97 135 32 131 49 l 131 447 b 83 543 131 524 121 543 b 53 539 74 543 64 542 l 44 536 l 36 557 b 240 649 133 596 147 603 m 82 883 b 153 813 121 883 153 851 b 81 740 153 772 121 740 b 10 813 42 740 10 772 b 82 883 10 851 42 883 m 293 883 b 364 813 332 883 364 851 b 292 740 364 772 332 740 b 221 813 253 740 221 772 b 293 883 221 851 253 883 "},"ϋ":{"ha":688,"x_min":0,"x_max":0,"o":"m 38 569 l 181 644 b 196 649 186 647 192 649 b 233 618 206 649 219 638 b 251 540 247 599 251 582 l 251 250 b 272 125 251 183 257 150 b 361 83 289 99 322 83 b 553 317 472 83 553 182 b 528 438 553 363 544 406 b 471 504 517 461 508 471 b 426 581 440 532 426 554 b 489 643 426 614 454 643 b 611 364 558 643 611 524 b 526 94 611 249 583 163 b 322 -10 468 26 397 -10 b 142 194 208 -10 142 65 l 142 450 b 88 564 142 540 131 564 b 46 550 72 564 63 561 m 239 883 b 310 813 278 883 310 851 b 238 740 310 772 278 740 b 167 813 199 740 167 772 b 239 883 167 851 199 883 m 450 883 b 521 813 489 883 521 851 b 449 740 521 772 489 740 b 378 813 410 740 378 772 b 450 883 378 851 410 883 "},"ό":{"ha":694,"x_min":0,"x_max":0,"o":"m 354 640 b 647 324 524 640 647 507 b 343 -14 647 135 513 -14 b 46 306 174 -14 46 124 b 143 551 46 399 81 488 b 354 640 204 613 268 640 m 336 592 b 169 322 231 592 169 493 b 358 35 169 151 246 35 b 524 281 458 35 524 132 b 336 592 524 465 447 592 m 315 754 b 296 858 297 828 296 832 b 346 929 296 906 314 929 b 397 860 379 929 397 904 b 378 754 397 832 396 824 l 365 699 l 328 699 "},"ύ":{"ha":688,"x_min":0,"x_max":0,"o":"m 38 569 l 181 644 b 196 649 186 647 192 649 b 233 618 206 649 219 638 b 251 540 247 599 251 582 l 251 250 b 272 125 251 183 257 150 b 361 83 289 99 322 83 b 553 317 472 83 553 182 b 528 438 553 363 544 406 b 471 504 517 461 508 471 b 426 581 440 532 426 554 b 489 643 426 614 454 643 b 611 364 558 643 611 524 b 526 94 611 249 583 163 b 322 -10 468 26 397 -10 b 142 194 208 -10 142 65 l 142 450 b 88 564 142 540 131 564 b 46 550 72 564 63 561 m 313 754 b 293 860 294 824 293 833 b 344 929 293 906 311 929 b 396 860 378 929 396 906 b 375 754 396 833 394 828 l 363 699 l 325 699 "},"ώ":{"ha":914,"x_min":0,"x_max":0,"o":"m 278 625 b 190 328 219 543 190 444 b 317 81 190 171 238 81 b 444 186 367 81 408 114 b 410 360 419 251 410 297 b 471 478 410 435 432 478 b 524 369 504 478 524 439 b 489 190 524 311 514 263 b 624 82 524 114 564 82 b 785 307 717 82 785 178 b 746 461 785 368 771 424 b 649 524 725 493 718 497 b 610 585 626 532 610 558 b 669 644 610 619 635 644 b 836 329 768 644 836 515 b 629 -10 836 139 746 -10 b 464 138 563 -10 508 39 b 281 -10 419 40 356 -10 b 78 294 164 -10 78 119 b 251 643 78 438 138 560 m 431 754 b 411 860 413 828 411 833 b 463 929 411 906 429 929 b 513 860 494 929 513 904 b 493 754 513 832 511 824 l 481 699 l 443 699 "},"ϑ":{"ha":688,"x_min":0,"x_max":0,"o":"m 704 444 l 685 444 l 631 443 l 614 443 b 296 -10 608 168 483 -10 b 103 172 181 -10 103 64 l 103 278 b 46 383 103 358 89 383 b 4 369 31 383 21 381 l -6 389 l 139 464 b 153 468 144 467 150 468 b 185 436 163 468 172 458 b 200 360 197 418 200 401 l 200 203 b 332 56 200 114 251 56 b 507 449 449 56 503 178 b 236 515 374 467 304 483 b 75 719 131 565 75 635 b 317 935 75 836 186 935 b 567 761 422 935 515 869 b 613 540 596 697 608 638 l 632 540 l 686 542 l 704 542 m 506 546 b 457 765 499 654 486 713 b 296 875 421 836 363 875 b 157 749 218 875 157 819 b 297 593 157 682 206 629 b 506 546 354 571 413 558 "},"ϕ":{"ha":731,"x_min":0,"x_max":0,"o":"m 425 -257 l 301 -257 l 304 -22 b 24 308 133 -14 24 117 b 311 657 24 499 142 642 b 294 792 308 700 304 740 b 285 864 286 839 285 844 b 365 953 285 918 317 953 b 444 864 413 953 444 918 b 429 756 444 840 443 835 b 417 657 422 719 419 693 b 706 329 590 650 706 519 b 424 -21 706 142 588 -6 m 310 622 b 143 318 213 600 143 474 b 304 14 143 151 208 28 m 424 14 b 586 314 524 42 586 157 b 418 624 586 483 519 606 "},"ϖ":{"ha":914,"x_min":0,"x_max":0,"o":"m 311 625 b 596 597 468 625 521 619 b 814 293 738 554 814 447 b 761 82 814 215 796 142 b 610 -10 725 21 676 -10 b 444 122 538 -10 483 33 b 292 -10 408 32 358 -10 b 100 281 179 -10 100 111 b 265 581 100 429 149 518 b 103 564 181 578 165 576 l 158 625 m 433 179 b 419 279 419 244 419 249 b 464 381 419 342 436 381 b 503 331 483 381 503 357 b 489 271 503 314 501 310 b 481 197 485 260 481 218 b 596 78 481 129 531 78 b 700 257 661 78 700 144 b 607 503 700 361 665 451 b 319 581 543 558 469 579 b 215 299 249 524 215 433 b 333 81 215 160 258 81 b 433 179 375 81 406 110 "},"Ѐ":{"ha":849,"x_min":0,"x_max":0,"o":"m 767 0 l 17 0 l 17 26 b 138 151 117 32 135 51 l 138 768 b 17 893 135 868 118 886 l 17 919 l 754 919 l 758 721 l 724 721 b 513 867 701 844 674 864 l 325 867 b 279 819 286 867 281 861 l 279 511 l 493 511 b 646 643 610 514 629 531 l 678 643 l 678 321 l 646 321 b 493 454 628 435 610 451 l 279 454 l 279 111 b 425 51 279 57 281 56 l 463 51 b 790 235 661 53 724 88 l 829 235 m 475 999 l 261 1133 b 221 1193 235 1149 221 1171 b 268 1236 221 1219 239 1236 b 326 1204 289 1236 300 1229 l 531 999 "},"Ё":{"ha":849,"x_min":0,"x_max":0,"o":"m 301 161 b 375 63 301 74 310 61 l 540 63 b 797 242 686 65 742 104 l 819 232 l 740 0 l 29 0 l 29 25 l 61 26 b 156 144 133 29 156 56 l 156 776 b 61 893 156 864 133 890 l 29 894 l 29 919 l 726 919 l 740 711 l 717 710 b 514 865 701 833 657 868 l 301 865 l 301 519 l 532 519 b 638 657 610 518 639 556 l 663 657 l 663 322 l 638 322 b 532 457 640 419 613 456 l 301 457 m 286 1160 b 356 1090 324 1160 356 1128 b 285 1021 356 1051 324 1021 b 219 1092 247 1021 219 1051 b 286 1160 219 1128 250 1160 m 563 1160 b 632 1090 600 1160 632 1128 b 561 1021 632 1051 600 1021 b 496 1092 524 1021 496 1051 b 563 1160 496 1128 526 1160 "},"Ђ":{"ha":1044,"x_min":0,"x_max":0,"o":"m 447 483 b 654 531 526 518 581 531 b 965 260 842 531 965 424 b 878 40 965 178 932 96 b 692 -31 832 -7 771 -31 b 531 69 592 -31 531 7 b 599 140 531 111 558 140 b 658 85 633 140 658 117 b 657 71 658 81 658 76 b 656 53 656 63 656 60 b 701 11 656 25 671 11 b 803 224 765 11 803 90 b 617 471 803 393 744 471 b 447 429 565 471 531 463 l 447 0 l 175 0 l 175 25 b 301 144 279 25 301 46 l 301 853 l 251 853 b 82 694 133 854 88 811 l 56 697 l 69 919 l 821 919 l 833 697 l 807 694 b 638 853 803 811 756 854 l 447 853 "},"Ѓ":{"ha":803,"x_min":0,"x_max":0,"o":"m 313 142 b 465 25 314 44 340 25 l 465 0 l 40 0 l 40 25 b 167 143 143 25 165 46 l 167 776 b 40 894 165 874 143 894 l 40 919 l 739 919 l 753 696 l 726 694 b 557 857 721 815 675 858 l 313 857 m 306 999 l 510 1204 b 569 1236 535 1229 547 1236 b 618 1192 600 1236 618 1219 b 575 1133 618 1169 606 1151 l 361 999 "},"Є":{"ha":917,"x_min":0,"x_max":0,"o":"m 621 303 b 515 438 624 401 597 436 l 210 438 b 265 211 214 339 229 274 b 540 51 322 108 421 51 b 851 215 667 51 768 104 l 875 200 b 503 -10 782 60 657 -10 b 42 460 249 -10 42 201 b 522 929 42 722 253 929 b 715 890 592 929 661 915 b 786 864 771 864 772 864 b 828 919 810 864 822 881 l 857 919 l 865 610 l 840 607 b 757 786 831 686 807 738 b 536 878 697 844 619 878 b 211 500 350 878 225 733 l 515 500 b 621 638 594 499 622 536 l 646 638 l 646 303 "},"Ѕ":{"ha":772,"x_min":0,"x_max":0,"o":"m 119 0 l 119 311 l 147 311 b 199 157 157 236 169 200 b 386 50 242 90 314 50 b 546 199 476 50 546 115 b 492 315 546 242 531 275 b 403 385 465 342 432 367 l 294 446 b 114 690 167 521 114 592 b 358 929 114 832 213 929 b 485 906 400 929 431 924 b 557 886 540 888 544 886 b 596 919 574 886 585 896 l 624 919 l 624 628 l 599 628 b 508 815 567 732 544 778 b 376 868 475 850 431 868 b 232 743 293 868 232 815 b 367 581 232 688 281 629 l 474 518 b 681 244 615 436 681 351 b 408 -10 681 96 567 -10 b 240 26 354 -10 354 -10 b 189 38 219 33 201 38 b 146 0 167 38 156 28 "},"І":{"ha":463,"x_min":0,"x_max":0,"o":"m 33 919 l 431 919 l 431 894 l 400 893 b 306 776 326 890 306 864 l 306 143 b 400 26 306 56 326 29 l 431 25 l 431 0 l 33 0 l 33 25 l 65 26 b 160 143 138 29 160 56 l 160 776 b 65 893 160 864 138 890 l 33 894 "},"Ї":{"ha":463,"x_min":0,"x_max":0,"o":"m 32 919 l 431 919 l 431 894 b 304 776 326 894 306 874 l 304 143 b 431 25 306 46 326 25 l 431 0 l 32 0 l 32 25 b 158 143 136 25 157 46 l 158 776 b 32 894 157 874 136 894 m 92 1160 b 161 1090 129 1160 161 1128 b 92 1021 161 1051 129 1021 b 25 1092 54 1021 25 1051 b 92 1160 25 1128 56 1160 m 368 1160 b 438 1090 406 1160 438 1128 b 368 1021 438 1051 406 1021 b 301 1092 331 1021 301 1051 b 368 1160 301 1128 332 1160 "},"Ј":{"ha":540,"x_min":0,"x_max":0,"o":"m 111 919 l 510 919 l 510 894 l 482 893 b 388 776 408 890 388 864 l 388 268 b 153 -10 388 99 296 -10 b 7 93 67 -10 7 32 b 76 157 7 131 36 157 b 165 81 117 157 135 142 b 204 47 175 60 189 47 b 244 200 235 47 244 83 l 244 776 b 142 893 242 857 211 893 l 111 894 "},"Љ":{"ha":1211,"x_min":0,"x_max":0,"o":"m 850 919 l 850 894 b 724 776 746 894 725 874 l 724 526 b 838 535 765 532 794 535 b 1199 265 1067 535 1199 436 b 850 0 1199 93 1076 0 l 451 0 l 451 25 b 578 143 556 25 578 44 l 578 857 l 313 857 l 313 450 b 272 129 313 283 301 200 b 81 -12 232 35 168 -12 b -28 68 15 -12 -28 19 b 36 138 -28 108 0 138 b 110 104 58 138 72 132 b 147 90 122 96 136 90 b 219 158 175 90 201 115 b 254 453 244 217 254 304 l 254 776 b 128 894 253 874 232 894 l 128 919 m 724 68 b 826 51 765 56 793 51 b 1036 260 950 51 1036 138 b 815 481 1036 392 947 481 b 724 471 788 481 758 478 "}}}
